<?xml version="1.0" encoding="utf-8" standalone="no"?>
<!DOCTYPE svg PUBLIC "-//W3C//DTD SVG 1.1//EN"
  "http://www.w3.org/Graphics/SVG/1.1/DTD/svg11.dtd">
<svg xmlns:xlink="http://www.w3.org/1999/xlink" width="515.52pt" height="230.4pt" viewBox="0 0 515.52 230.4" xmlns="http://www.w3.org/2000/svg" version="1.1">
 <metadata>
  <rdf:RDF xmlns:dc="http://purl.org/dc/elements/1.1/" xmlns:cc="http://creativecommons.org/ns#" xmlns:rdf="http://www.w3.org/1999/02/22-rdf-syntax-ns#">
   <cc:Work>
    <dc:type rdf:resource="http://purl.org/dc/dcmitype/StillImage"/>
    <dc:date>2026-07-31T14:39:21.459388</dc:date>
    <dc:format>image/svg+xml</dc:format>
    <dc:creator>
     <cc:Agent>
      <dc:title>Matplotlib v3.8.4, https://matplotlib.org/</dc:title>
     </cc:Agent>
    </dc:creator>
   </cc:Work>
  </rdf:RDF>
 </metadata>
 <defs>
  <style type="text/css">*{stroke-linejoin: round; stroke-linecap: butt}</style>
 </defs>
 <g id="figure_1">
  <g id="patch_1">
   <path d="M 0 230.4 
L 515.52 230.4 
L 515.52 0 
L 0 0 
z
" style="fill: #ffffff"/>
  </g>
  <g id="axes_1">
   <g id="patch_2">
    <path d="M 60.68 188.87875 
L 252.268934 188.87875 
L 252.268934 26.16 
L 60.68 26.16 
z
" style="fill: #ffffff"/>
   </g>
   <g id="matplotlib.axis_1">
    <g id="xtick_1">
     <g id="line2d_1">
      <path d="M 69.388588 188.87875 
L 69.388588 26.16 
" clip-path="url(#p54a5e1c693)" style="fill: none; stroke-dasharray: 2.96,1.28; stroke-dashoffset: 0; stroke: #b0b0b0; stroke-opacity: 0.5; stroke-width: 0.8"/>
     </g>
     <g id="line2d_2">
      <defs>
       <path id="m81ee2db3b6" d="M 0 0 
L 0 3.5 
" style="stroke: #000000; stroke-width: 0.8"/>
      </defs>
      <g>
       <use xlink:href="#m81ee2db3b6" x="69.388588" y="188.87875" style="stroke: #000000; stroke-width: 0.8"/>
      </g>
     </g>
     <g id="text_1">
      <!-- 0 -->
      <g transform="translate(66.525463 202.717344) scale(0.09 -0.09)">
       <defs>
        <path id="DejaVuSerif-30" d="M 2034 219 
Q 2513 219 2750 744 
Q 2988 1269 2988 2328 
Q 2988 3391 2750 3916 
Q 2513 4441 2034 4441 
Q 1556 4441 1318 3916 
Q 1081 3391 1081 2328 
Q 1081 1269 1318 744 
Q 1556 219 2034 219 
z
M 2034 -91 
Q 1275 -91 848 546 
Q 422 1184 422 2328 
Q 422 3475 848 4112 
Q 1275 4750 2034 4750 
Q 2797 4750 3222 4112 
Q 3647 3475 3647 2328 
Q 3647 1184 3222 546 
Q 2797 -91 2034 -91 
z
" transform="scale(0.015625)"/>
       </defs>
       <use xlink:href="#DejaVuSerif-30"/>
      </g>
     </g>
    </g>
    <g id="xtick_2">
     <g id="line2d_3">
      <path d="M 98.132831 188.87875 
L 98.132831 26.16 
" clip-path="url(#p54a5e1c693)" style="fill: none; stroke-dasharray: 2.96,1.28; stroke-dashoffset: 0; stroke: #b0b0b0; stroke-opacity: 0.5; stroke-width: 0.8"/>
     </g>
     <g id="line2d_4">
      <g>
       <use xlink:href="#m81ee2db3b6" x="98.132831" y="188.87875" style="stroke: #000000; stroke-width: 0.8"/>
      </g>
     </g>
     <g id="text_2">
      <!-- 1000 -->
      <g transform="translate(86.680331 202.717344) scale(0.09 -0.09)">
       <defs>
        <path id="DejaVuSerif-31" d="M 909 0 
L 909 331 
L 1722 331 
L 1722 4213 
L 781 3603 
L 781 4013 
L 1919 4750 
L 2350 4750 
L 2350 331 
L 3163 331 
L 3163 0 
L 909 0 
z
" transform="scale(0.015625)"/>
       </defs>
       <use xlink:href="#DejaVuSerif-31"/>
       <use xlink:href="#DejaVuSerif-30" x="63.623047"/>
       <use xlink:href="#DejaVuSerif-30" x="127.246094"/>
       <use xlink:href="#DejaVuSerif-30" x="190.869141"/>
      </g>
     </g>
    </g>
    <g id="xtick_3">
     <g id="line2d_5">
      <path d="M 126.877073 188.87875 
L 126.877073 26.16 
" clip-path="url(#p54a5e1c693)" style="fill: none; stroke-dasharray: 2.96,1.28; stroke-dashoffset: 0; stroke: #b0b0b0; stroke-opacity: 0.5; stroke-width: 0.8"/>
     </g>
     <g id="line2d_6">
      <g>
       <use xlink:href="#m81ee2db3b6" x="126.877073" y="188.87875" style="stroke: #000000; stroke-width: 0.8"/>
      </g>
     </g>
     <g id="text_3">
      <!-- 2000 -->
      <g transform="translate(115.424573 202.717344) scale(0.09 -0.09)">
       <defs>
        <path id="DejaVuSerif-32" d="M 819 3553 
L 469 3553 
L 469 4384 
Q 803 4563 1142 4656 
Q 1481 4750 1806 4750 
Q 2534 4750 2956 4397 
Q 3378 4044 3378 3438 
Q 3378 2753 2422 1800 
Q 2347 1728 2309 1691 
L 1131 513 
L 3078 513 
L 3078 1088 
L 3444 1088 
L 3444 0 
L 434 0 
L 434 341 
L 1850 1753 
Q 2319 2222 2519 2614 
Q 2719 3006 2719 3438 
Q 2719 3909 2473 4175 
Q 2228 4441 1797 4441 
Q 1350 4441 1106 4219 
Q 863 3997 819 3553 
z
" transform="scale(0.015625)"/>
       </defs>
       <use xlink:href="#DejaVuSerif-32"/>
       <use xlink:href="#DejaVuSerif-30" x="63.623047"/>
       <use xlink:href="#DejaVuSerif-30" x="127.246094"/>
       <use xlink:href="#DejaVuSerif-30" x="190.869141"/>
      </g>
     </g>
    </g>
    <g id="xtick_4">
     <g id="line2d_7">
      <path d="M 155.621316 188.87875 
L 155.621316 26.16 
" clip-path="url(#p54a5e1c693)" style="fill: none; stroke-dasharray: 2.96,1.28; stroke-dashoffset: 0; stroke: #b0b0b0; stroke-opacity: 0.5; stroke-width: 0.8"/>
     </g>
     <g id="line2d_8">
      <g>
       <use xlink:href="#m81ee2db3b6" x="155.621316" y="188.87875" style="stroke: #000000; stroke-width: 0.8"/>
      </g>
     </g>
     <g id="text_4">
      <!-- 3000 -->
      <g transform="translate(144.168816 202.717344) scale(0.09 -0.09)">
       <defs>
        <path id="DejaVuSerif-33" d="M 622 4469 
Q 988 4606 1323 4678 
Q 1659 4750 1953 4750 
Q 2638 4750 3022 4454 
Q 3406 4159 3406 3634 
Q 3406 3213 3140 2930 
Q 2875 2647 2388 2547 
Q 2963 2466 3280 2130 
Q 3597 1794 3597 1259 
Q 3597 606 3158 257 
Q 2719 -91 1894 -91 
Q 1528 -91 1179 -12 
Q 831 66 488 225 
L 488 1131 
L 838 1131 
Q 869 681 1141 450 
Q 1413 219 1906 219 
Q 2384 219 2661 495 
Q 2938 772 2938 1253 
Q 2938 1803 2653 2086 
Q 2369 2369 1819 2369 
L 1522 2369 
L 1522 2688 
L 1678 2688 
Q 2225 2688 2498 2914 
Q 2772 3141 2772 3597 
Q 2772 4006 2547 4223 
Q 2322 4441 1900 4441 
Q 1478 4441 1245 4241 
Q 1013 4041 972 3647 
L 622 3647 
L 622 4469 
z
" transform="scale(0.015625)"/>
       </defs>
       <use xlink:href="#DejaVuSerif-33"/>
       <use xlink:href="#DejaVuSerif-30" x="63.623047"/>
       <use xlink:href="#DejaVuSerif-30" x="127.246094"/>
       <use xlink:href="#DejaVuSerif-30" x="190.869141"/>
      </g>
     </g>
    </g>
    <g id="xtick_5">
     <g id="line2d_9">
      <path d="M 184.365559 188.87875 
L 184.365559 26.16 
" clip-path="url(#p54a5e1c693)" style="fill: none; stroke-dasharray: 2.96,1.28; stroke-dashoffset: 0; stroke: #b0b0b0; stroke-opacity: 0.5; stroke-width: 0.8"/>
     </g>
     <g id="line2d_10">
      <g>
       <use xlink:href="#m81ee2db3b6" x="184.365559" y="188.87875" style="stroke: #000000; stroke-width: 0.8"/>
      </g>
     </g>
     <g id="text_5">
      <!-- 4000 -->
      <g transform="translate(172.913059 202.717344) scale(0.09 -0.09)">
       <defs>
        <path id="DejaVuSerif-34" d="M 2234 1581 
L 2234 4063 
L 641 1581 
L 2234 1581 
z
M 3609 0 
L 1484 0 
L 1484 331 
L 2234 331 
L 2234 1247 
L 197 1247 
L 197 1588 
L 2241 4750 
L 2859 4750 
L 2859 1581 
L 3750 1581 
L 3750 1247 
L 2859 1247 
L 2859 331 
L 3609 331 
L 3609 0 
z
" transform="scale(0.015625)"/>
       </defs>
       <use xlink:href="#DejaVuSerif-34"/>
       <use xlink:href="#DejaVuSerif-30" x="63.623047"/>
       <use xlink:href="#DejaVuSerif-30" x="127.246094"/>
       <use xlink:href="#DejaVuSerif-30" x="190.869141"/>
      </g>
     </g>
    </g>
    <g id="xtick_6">
     <g id="line2d_11">
      <path d="M 213.109802 188.87875 
L 213.109802 26.16 
" clip-path="url(#p54a5e1c693)" style="fill: none; stroke-dasharray: 2.96,1.28; stroke-dashoffset: 0; stroke: #b0b0b0; stroke-opacity: 0.5; stroke-width: 0.8"/>
     </g>
     <g id="line2d_12">
      <g>
       <use xlink:href="#m81ee2db3b6" x="213.109802" y="188.87875" style="stroke: #000000; stroke-width: 0.8"/>
      </g>
     </g>
     <g id="text_6">
      <!-- 5000 -->
      <g transform="translate(201.657302 202.717344) scale(0.09 -0.09)">
       <defs>
        <path id="DejaVuSerif-35" d="M 3219 4666 
L 3219 4153 
L 1081 4153 
L 1081 2816 
Q 1244 2928 1461 2984 
Q 1678 3041 1947 3041 
Q 2703 3041 3140 2622 
Q 3578 2203 3578 1478 
Q 3578 738 3136 323 
Q 2694 -91 1894 -91 
Q 1572 -91 1234 -12 
Q 897 66 544 225 
L 544 1131 
L 897 1131 
Q 925 688 1179 453 
Q 1434 219 1894 219 
Q 2388 219 2653 544 
Q 2919 869 2919 1478 
Q 2919 2084 2655 2407 
Q 2391 2731 1894 2731 
Q 1613 2731 1398 2631 
Q 1184 2531 1019 2322 
L 750 2322 
L 750 4666 
L 3219 4666 
z
" transform="scale(0.015625)"/>
       </defs>
       <use xlink:href="#DejaVuSerif-35"/>
       <use xlink:href="#DejaVuSerif-30" x="63.623047"/>
       <use xlink:href="#DejaVuSerif-30" x="127.246094"/>
       <use xlink:href="#DejaVuSerif-30" x="190.869141"/>
      </g>
     </g>
    </g>
    <g id="xtick_7">
     <g id="line2d_13">
      <path d="M 241.854045 188.87875 
L 241.854045 26.16 
" clip-path="url(#p54a5e1c693)" style="fill: none; stroke-dasharray: 2.96,1.28; stroke-dashoffset: 0; stroke: #b0b0b0; stroke-opacity: 0.5; stroke-width: 0.8"/>
     </g>
     <g id="line2d_14">
      <g>
       <use xlink:href="#m81ee2db3b6" x="241.854045" y="188.87875" style="stroke: #000000; stroke-width: 0.8"/>
      </g>
     </g>
     <g id="text_7">
      <!-- 6000 -->
      <g transform="translate(230.401545 202.717344) scale(0.09 -0.09)">
       <defs>
        <path id="DejaVuSerif-36" d="M 2094 219 
Q 2534 219 2771 542 
Q 3009 866 3009 1472 
Q 3009 2078 2771 2401 
Q 2534 2725 2094 2725 
Q 1647 2725 1412 2412 
Q 1178 2100 1178 1509 
Q 1178 888 1415 553 
Q 1653 219 2094 219 
z
M 1075 2569 
Q 1288 2803 1556 2918 
Q 1825 3034 2163 3034 
Q 2859 3034 3264 2615 
Q 3669 2197 3669 1472 
Q 3669 763 3233 336 
Q 2797 -91 2069 -91 
Q 1278 -91 853 498 
Q 428 1088 428 2181 
Q 428 3406 931 4078 
Q 1434 4750 2350 4750 
Q 2597 4750 2869 4703 
Q 3141 4656 3425 4563 
L 3425 3794 
L 3072 3794 
Q 3034 4109 2831 4275 
Q 2628 4441 2284 4441 
Q 1678 4441 1381 3981 
Q 1084 3522 1075 2569 
z
" transform="scale(0.015625)"/>
       </defs>
       <use xlink:href="#DejaVuSerif-36"/>
       <use xlink:href="#DejaVuSerif-30" x="63.623047"/>
       <use xlink:href="#DejaVuSerif-30" x="127.246094"/>
       <use xlink:href="#DejaVuSerif-30" x="190.869141"/>
      </g>
     </g>
    </g>
    <g id="text_8">
     <!-- East (y) [meters] -->
     <g transform="translate(109.573217 216.947344) scale(0.11 -0.11)">
      <defs>
       <path id="DejaVuSerif-45" d="M 353 0 
L 353 331 
L 947 331 
L 947 4331 
L 353 4331 
L 353 4666 
L 4109 4666 
L 4109 3628 
L 3725 3628 
L 3725 4281 
L 1581 4281 
L 1581 2719 
L 3109 2719 
L 3109 3303 
L 3494 3303 
L 3494 1753 
L 3109 1753 
L 3109 2338 
L 1581 2338 
L 1581 384 
L 3775 384 
L 3775 1038 
L 4159 1038 
L 4159 0 
L 353 0 
z
" transform="scale(0.015625)"/>
       <path id="DejaVuSerif-61" d="M 2547 1044 
L 2547 1747 
L 1806 1747 
Q 1378 1747 1168 1562 
Q 959 1378 959 997 
Q 959 650 1171 447 
Q 1384 244 1747 244 
Q 2106 244 2326 466 
Q 2547 688 2547 1044 
z
M 3122 2075 
L 3122 331 
L 3634 331 
L 3634 0 
L 2547 0 
L 2547 359 
Q 2356 128 2106 18 
Q 1856 -91 1522 -91 
Q 969 -91 644 203 
Q 319 497 319 997 
Q 319 1513 691 1797 
Q 1063 2081 1741 2081 
L 2547 2081 
L 2547 2309 
Q 2547 2688 2317 2895 
Q 2088 3103 1672 3103 
Q 1328 3103 1125 2947 
Q 922 2791 872 2484 
L 575 2484 
L 575 3156 
Q 875 3284 1158 3348 
Q 1441 3413 1709 3413 
Q 2400 3413 2761 3070 
Q 3122 2728 3122 2075 
z
" transform="scale(0.015625)"/>
       <path id="DejaVuSerif-73" d="M 359 184 
L 359 959 
L 691 959 
Q 703 588 923 403 
Q 1144 219 1575 219 
Q 1963 219 2166 364 
Q 2369 509 2369 788 
Q 2369 1006 2220 1140 
Q 2072 1275 1594 1428 
L 1178 1569 
Q 750 1706 558 1912 
Q 366 2119 366 2438 
Q 366 2894 700 3153 
Q 1034 3413 1625 3413 
Q 1888 3413 2178 3344 
Q 2469 3275 2778 3144 
L 2778 2419 
L 2447 2419 
Q 2434 2741 2221 2922 
Q 2009 3103 1644 3103 
Q 1281 3103 1095 2975 
Q 909 2847 909 2591 
Q 909 2381 1050 2254 
Q 1191 2128 1613 1997 
L 2069 1856 
Q 2541 1709 2748 1489 
Q 2956 1269 2956 922 
Q 2956 450 2595 179 
Q 2234 -91 1600 -91 
Q 1278 -91 972 -22 
Q 666 47 359 184 
z
" transform="scale(0.015625)"/>
       <path id="DejaVuSerif-74" d="M 691 2988 
L 184 2988 
L 184 3322 
L 691 3322 
L 691 4353 
L 1269 4353 
L 1269 3322 
L 2350 3322 
L 2350 2988 
L 1269 2988 
L 1269 878 
Q 1269 456 1350 337 
Q 1431 219 1650 219 
Q 1875 219 1978 351 
Q 2081 484 2088 781 
L 2522 781 
Q 2497 328 2275 118 
Q 2053 -91 1600 -91 
Q 1103 -91 897 129 
Q 691 350 691 878 
L 691 2988 
z
" transform="scale(0.015625)"/>
       <path id="DejaVuSerif-20" transform="scale(0.015625)"/>
       <path id="DejaVuSerif-28" d="M 2041 -997 
Q 1281 -656 893 83 
Q 506 822 506 1931 
Q 506 3044 893 3783 
Q 1281 4522 2041 4863 
L 2041 4556 
Q 1559 4225 1350 3623 
Q 1141 3022 1141 1931 
Q 1141 844 1350 242 
Q 1559 -359 2041 -691 
L 2041 -997 
z
" transform="scale(0.015625)"/>
       <path id="DejaVuSerif-79" d="M 1381 -609 
L 1600 -56 
L 359 2988 
L -19 2988 
L -19 3322 
L 1509 3322 
L 1509 2988 
L 978 2988 
L 1913 703 
L 2847 2988 
L 2350 2988 
L 2350 3322 
L 3597 3322 
L 3597 2988 
L 3225 2988 
L 1703 -750 
Q 1547 -1138 1356 -1280 
Q 1166 -1422 819 -1422 
Q 672 -1422 517 -1397 
Q 363 -1372 206 -1325 
L 206 -691 
L 500 -691 
Q 519 -903 608 -995 
Q 697 -1088 884 -1088 
Q 1056 -1088 1161 -992 
Q 1266 -897 1381 -609 
z
" transform="scale(0.015625)"/>
       <path id="DejaVuSerif-29" d="M 453 -997 
L 453 -691 
Q 934 -359 1145 242 
Q 1356 844 1356 1931 
Q 1356 3022 1145 3623 
Q 934 4225 453 4556 
L 453 4863 
Q 1216 4522 1603 3783 
Q 1991 3044 1991 1931 
Q 1991 822 1603 83 
Q 1216 -656 453 -997 
z
" transform="scale(0.015625)"/>
       <path id="DejaVuSerif-5b" d="M 550 4863 
L 2003 4863 
L 2003 4531 
L 1147 4531 
L 1147 -513 
L 2003 -513 
L 2003 -844 
L 550 -844 
L 550 4863 
z
" transform="scale(0.015625)"/>
       <path id="DejaVuSerif-6d" d="M 3316 2675 
Q 3481 3041 3739 3227 
Q 3997 3413 4341 3413 
Q 4863 3413 5119 3089 
Q 5375 2766 5375 2113 
L 5375 331 
L 5894 331 
L 5894 0 
L 4300 0 
L 4300 331 
L 4800 331 
L 4800 2047 
Q 4800 2556 4650 2772 
Q 4500 2988 4153 2988 
Q 3769 2988 3567 2697 
Q 3366 2406 3366 1850 
L 3366 331 
L 3866 331 
L 3866 0 
L 2291 0 
L 2291 331 
L 2791 331 
L 2791 2069 
Q 2791 2566 2641 2777 
Q 2491 2988 2144 2988 
Q 1759 2988 1557 2697 
Q 1356 2406 1356 1850 
L 1356 331 
L 1856 331 
L 1856 0 
L 263 0 
L 263 331 
L 781 331 
L 781 2994 
L 231 2994 
L 231 3322 
L 1356 3322 
L 1356 2731 
Q 1516 3063 1762 3238 
Q 2009 3413 2322 3413 
Q 2709 3413 2968 3220 
Q 3228 3028 3316 2675 
z
" transform="scale(0.015625)"/>
       <path id="DejaVuSerif-65" d="M 3469 1600 
L 991 1600 
L 991 1575 
Q 991 903 1244 561 
Q 1497 219 1991 219 
Q 2369 219 2611 417 
Q 2853 616 2950 1006 
L 3413 1006 
Q 3275 459 2904 184 
Q 2534 -91 1931 -91 
Q 1203 -91 761 389 
Q 319 869 319 1663 
Q 319 2450 753 2931 
Q 1188 3413 1894 3413 
Q 2647 3413 3050 2948 
Q 3453 2484 3469 1600 
z
M 2791 1931 
Q 2772 2513 2545 2808 
Q 2319 3103 1894 3103 
Q 1497 3103 1269 2806 
Q 1041 2509 991 1931 
L 2791 1931 
z
" transform="scale(0.015625)"/>
       <path id="DejaVuSerif-72" d="M 3059 3328 
L 3059 2497 
L 2728 2497 
Q 2713 2744 2591 2866 
Q 2469 2988 2234 2988 
Q 1809 2988 1582 2694 
Q 1356 2400 1356 1850 
L 1356 331 
L 2022 331 
L 2022 0 
L 263 0 
L 263 331 
L 781 331 
L 781 2994 
L 231 2994 
L 231 3322 
L 1356 3322 
L 1356 2731 
Q 1525 3078 1790 3245 
Q 2056 3413 2438 3413 
Q 2578 3413 2733 3391 
Q 2888 3369 3059 3328 
z
" transform="scale(0.015625)"/>
       <path id="DejaVuSerif-5d" d="M 1947 4863 
L 1947 -844 
L 494 -844 
L 494 -513 
L 1350 -513 
L 1350 4531 
L 494 4531 
L 494 4863 
L 1947 4863 
z
" transform="scale(0.015625)"/>
      </defs>
      <use xlink:href="#DejaVuSerif-45"/>
      <use xlink:href="#DejaVuSerif-61" x="72.998047"/>
      <use xlink:href="#DejaVuSerif-73" x="132.617188"/>
      <use xlink:href="#DejaVuSerif-74" x="183.935547"/>
      <use xlink:href="#DejaVuSerif-20" x="224.121094"/>
      <use xlink:href="#DejaVuSerif-28" x="255.908203"/>
      <use xlink:href="#DejaVuSerif-79" x="294.921875"/>
      <use xlink:href="#DejaVuSerif-29" x="351.416016"/>
      <use xlink:href="#DejaVuSerif-20" x="390.429688"/>
      <use xlink:href="#DejaVuSerif-5b" x="422.216797"/>
      <use xlink:href="#DejaVuSerif-6d" x="461.230469"/>
      <use xlink:href="#DejaVuSerif-65" x="556.054688"/>
      <use xlink:href="#DejaVuSerif-74" x="615.234375"/>
      <use xlink:href="#DejaVuSerif-65" x="655.419922"/>
      <use xlink:href="#DejaVuSerif-72" x="714.599609"/>
      <use xlink:href="#DejaVuSerif-73" x="762.402344"/>
      <use xlink:href="#DejaVuSerif-5d" x="813.720703"/>
     </g>
    </g>
   </g>
   <g id="matplotlib.axis_2">
    <g id="ytick_1">
     <g id="line2d_15">
      <path d="M 60.68 181.482443 
L 252.268934 181.482443 
" clip-path="url(#p54a5e1c693)" style="fill: none; stroke-dasharray: 2.96,1.28; stroke-dashoffset: 0; stroke: #b0b0b0; stroke-opacity: 0.5; stroke-width: 0.8"/>
     </g>
     <g id="line2d_16">
      <defs>
       <path id="m685fc3ec3a" d="M 0 0 
L -3.5 0 
" style="stroke: #000000; stroke-width: 0.8"/>
      </defs>
      <g>
       <use xlink:href="#m685fc3ec3a" x="60.68" y="181.482443" style="stroke: #000000; stroke-width: 0.8"/>
      </g>
     </g>
     <g id="text_9">
      <!-- 0 -->
      <g transform="translate(47.95375 184.90174) scale(0.09 -0.09)">
       <use xlink:href="#DejaVuSerif-30"/>
      </g>
     </g>
    </g>
    <g id="ytick_2">
     <g id="line2d_17">
      <path d="M 60.68 156.828087 
L 252.268934 156.828087 
" clip-path="url(#p54a5e1c693)" style="fill: none; stroke-dasharray: 2.96,1.28; stroke-dashoffset: 0; stroke: #b0b0b0; stroke-opacity: 0.5; stroke-width: 0.8"/>
     </g>
     <g id="line2d_18">
      <g>
       <use xlink:href="#m685fc3ec3a" x="60.68" y="156.828087" style="stroke: #000000; stroke-width: 0.8"/>
      </g>
     </g>
     <g id="text_10">
      <!-- 2000 -->
      <g transform="translate(30.775 160.247384) scale(0.09 -0.09)">
       <use xlink:href="#DejaVuSerif-32"/>
       <use xlink:href="#DejaVuSerif-30" x="63.623047"/>
       <use xlink:href="#DejaVuSerif-30" x="127.246094"/>
       <use xlink:href="#DejaVuSerif-30" x="190.869141"/>
      </g>
     </g>
    </g>
    <g id="ytick_3">
     <g id="line2d_19">
      <path d="M 60.68 132.173731 
L 252.268934 132.173731 
" clip-path="url(#p54a5e1c693)" style="fill: none; stroke-dasharray: 2.96,1.28; stroke-dashoffset: 0; stroke: #b0b0b0; stroke-opacity: 0.5; stroke-width: 0.8"/>
     </g>
     <g id="line2d_20">
      <g>
       <use xlink:href="#m685fc3ec3a" x="60.68" y="132.173731" style="stroke: #000000; stroke-width: 0.8"/>
      </g>
     </g>
     <g id="text_11">
      <!-- 4000 -->
      <g transform="translate(30.775 135.593028) scale(0.09 -0.09)">
       <use xlink:href="#DejaVuSerif-34"/>
       <use xlink:href="#DejaVuSerif-30" x="63.623047"/>
       <use xlink:href="#DejaVuSerif-30" x="127.246094"/>
       <use xlink:href="#DejaVuSerif-30" x="190.869141"/>
      </g>
     </g>
    </g>
    <g id="ytick_4">
     <g id="line2d_21">
      <path d="M 60.68 107.519375 
L 252.268934 107.519375 
" clip-path="url(#p54a5e1c693)" style="fill: none; stroke-dasharray: 2.96,1.28; stroke-dashoffset: 0; stroke: #b0b0b0; stroke-opacity: 0.5; stroke-width: 0.8"/>
     </g>
     <g id="line2d_22">
      <g>
       <use xlink:href="#m685fc3ec3a" x="60.68" y="107.519375" style="stroke: #000000; stroke-width: 0.8"/>
      </g>
     </g>
     <g id="text_12">
      <!-- 6000 -->
      <g transform="translate(30.775 110.938672) scale(0.09 -0.09)">
       <use xlink:href="#DejaVuSerif-36"/>
       <use xlink:href="#DejaVuSerif-30" x="63.623047"/>
       <use xlink:href="#DejaVuSerif-30" x="127.246094"/>
       <use xlink:href="#DejaVuSerif-30" x="190.869141"/>
      </g>
     </g>
    </g>
    <g id="ytick_5">
     <g id="line2d_23">
      <path d="M 60.68 82.865019 
L 252.268934 82.865019 
" clip-path="url(#p54a5e1c693)" style="fill: none; stroke-dasharray: 2.96,1.28; stroke-dashoffset: 0; stroke: #b0b0b0; stroke-opacity: 0.5; stroke-width: 0.8"/>
     </g>
     <g id="line2d_24">
      <g>
       <use xlink:href="#m685fc3ec3a" x="60.68" y="82.865019" style="stroke: #000000; stroke-width: 0.8"/>
      </g>
     </g>
     <g id="text_13">
      <!-- 8000 -->
      <g transform="translate(30.775 86.284316) scale(0.09 -0.09)">
       <defs>
        <path id="DejaVuSerif-38" d="M 2981 1275 
Q 2981 1775 2732 2051 
Q 2484 2328 2034 2328 
Q 1584 2328 1336 2051 
Q 1088 1775 1088 1275 
Q 1088 772 1336 495 
Q 1584 219 2034 219 
Q 2484 219 2732 495 
Q 2981 772 2981 1275 
z
M 2853 3541 
Q 2853 3966 2637 4203 
Q 2422 4441 2034 4441 
Q 1650 4441 1433 4203 
Q 1216 3966 1216 3541 
Q 1216 3113 1433 2875 
Q 1650 2638 2034 2638 
Q 2422 2638 2637 2875 
Q 2853 3113 2853 3541 
z
M 2516 2484 
Q 3047 2413 3344 2092 
Q 3641 1772 3641 1275 
Q 3641 619 3225 264 
Q 2809 -91 2034 -91 
Q 1263 -91 845 264 
Q 428 619 428 1275 
Q 428 1772 725 2092 
Q 1022 2413 1556 2484 
Q 1084 2569 832 2842 
Q 581 3116 581 3541 
Q 581 4103 968 4426 
Q 1356 4750 2034 4750 
Q 2713 4750 3100 4426 
Q 3488 4103 3488 3541 
Q 3488 3116 3236 2842 
Q 2984 2569 2516 2484 
z
" transform="scale(0.015625)"/>
       </defs>
       <use xlink:href="#DejaVuSerif-38"/>
       <use xlink:href="#DejaVuSerif-30" x="63.623047"/>
       <use xlink:href="#DejaVuSerif-30" x="127.246094"/>
       <use xlink:href="#DejaVuSerif-30" x="190.869141"/>
      </g>
     </g>
    </g>
    <g id="ytick_6">
     <g id="line2d_25">
      <path d="M 60.68 58.210663 
L 252.268934 58.210663 
" clip-path="url(#p54a5e1c693)" style="fill: none; stroke-dasharray: 2.96,1.28; stroke-dashoffset: 0; stroke: #b0b0b0; stroke-opacity: 0.5; stroke-width: 0.8"/>
     </g>
     <g id="line2d_26">
      <g>
       <use xlink:href="#m685fc3ec3a" x="60.68" y="58.210663" style="stroke: #000000; stroke-width: 0.8"/>
      </g>
     </g>
     <g id="text_14">
      <!-- 10000 -->
      <g transform="translate(25.04875 61.62996) scale(0.09 -0.09)">
       <use xlink:href="#DejaVuSerif-31"/>
       <use xlink:href="#DejaVuSerif-30" x="63.623047"/>
       <use xlink:href="#DejaVuSerif-30" x="127.246094"/>
       <use xlink:href="#DejaVuSerif-30" x="190.869141"/>
       <use xlink:href="#DejaVuSerif-30" x="254.492188"/>
      </g>
     </g>
    </g>
    <g id="ytick_7">
     <g id="line2d_27">
      <path d="M 60.68 33.556307 
L 252.268934 33.556307 
" clip-path="url(#p54a5e1c693)" style="fill: none; stroke-dasharray: 2.96,1.28; stroke-dashoffset: 0; stroke: #b0b0b0; stroke-opacity: 0.5; stroke-width: 0.8"/>
     </g>
     <g id="line2d_28">
      <g>
       <use xlink:href="#m685fc3ec3a" x="60.68" y="33.556307" style="stroke: #000000; stroke-width: 0.8"/>
      </g>
     </g>
     <g id="text_15">
      <!-- 12000 -->
      <g transform="translate(25.04875 36.975604) scale(0.09 -0.09)">
       <use xlink:href="#DejaVuSerif-31"/>
       <use xlink:href="#DejaVuSerif-32" x="63.623047"/>
       <use xlink:href="#DejaVuSerif-30" x="127.246094"/>
       <use xlink:href="#DejaVuSerif-30" x="190.869141"/>
       <use xlink:href="#DejaVuSerif-30" x="254.492188"/>
      </g>
     </g>
    </g>
    <g id="text_16">
     <!-- North (x) [meters] -->
     <g transform="translate(18.761094 158.592891) rotate(-90) scale(0.11 -0.11)">
      <defs>
       <path id="DejaVuSerif-4e" d="M 313 0 
L 313 331 
L 941 331 
L 941 4331 
L 313 4331 
L 313 4666 
L 1509 4666 
L 4306 984 
L 4306 4331 
L 3681 4331 
L 3681 4666 
L 5319 4666 
L 5319 4331 
L 4691 4331 
L 4691 -91 
L 4313 -91 
L 1325 3841 
L 1325 331 
L 1953 331 
L 1953 0 
L 313 0 
z
" transform="scale(0.015625)"/>
       <path id="DejaVuSerif-6f" d="M 1925 219 
Q 2388 219 2623 584 
Q 2859 950 2859 1663 
Q 2859 2375 2623 2739 
Q 2388 3103 1925 3103 
Q 1463 3103 1227 2739 
Q 991 2375 991 1663 
Q 991 950 1228 584 
Q 1466 219 1925 219 
z
M 1925 -91 
Q 1200 -91 759 389 
Q 319 869 319 1663 
Q 319 2456 758 2934 
Q 1197 3413 1925 3413 
Q 2653 3413 3092 2934 
Q 3531 2456 3531 1663 
Q 3531 869 3092 389 
Q 2653 -91 1925 -91 
z
" transform="scale(0.015625)"/>
       <path id="DejaVuSerif-68" d="M 263 0 
L 263 331 
L 781 331 
L 781 4531 
L 231 4531 
L 231 4863 
L 1356 4863 
L 1356 2731 
Q 1516 3069 1770 3241 
Q 2025 3413 2363 3413 
Q 2913 3413 3172 3097 
Q 3431 2781 3431 2113 
L 3431 331 
L 3944 331 
L 3944 0 
L 2356 0 
L 2356 331 
L 2853 331 
L 2853 1931 
Q 2853 2541 2704 2764 
Q 2556 2988 2175 2988 
Q 1775 2988 1565 2697 
Q 1356 2406 1356 1850 
L 1356 331 
L 1856 331 
L 1856 0 
L 263 0 
z
" transform="scale(0.015625)"/>
       <path id="DejaVuSerif-78" d="M 1863 2028 
L 2559 2988 
L 2113 2988 
L 2113 3322 
L 3391 3322 
L 3391 2988 
L 2950 2988 
L 2059 1759 
L 3097 331 
L 3531 331 
L 3531 0 
L 1997 0 
L 1997 331 
L 2419 331 
L 1697 1325 
L 972 331 
L 1403 331 
L 1403 0 
L 141 0 
L 141 331 
L 581 331 
L 1497 1594 
L 488 2988 
L 78 2988 
L 78 3322 
L 1563 3322 
L 1563 2988 
L 1166 2988 
L 1863 2028 
z
" transform="scale(0.015625)"/>
      </defs>
      <use xlink:href="#DejaVuSerif-4e"/>
      <use xlink:href="#DejaVuSerif-6f" x="87.5"/>
      <use xlink:href="#DejaVuSerif-72" x="147.705078"/>
      <use xlink:href="#DejaVuSerif-74" x="195.507812"/>
      <use xlink:href="#DejaVuSerif-68" x="235.693359"/>
      <use xlink:href="#DejaVuSerif-20" x="300.097656"/>
      <use xlink:href="#DejaVuSerif-28" x="331.884766"/>
      <use xlink:href="#DejaVuSerif-78" x="370.898438"/>
      <use xlink:href="#DejaVuSerif-29" x="427.294922"/>
      <use xlink:href="#DejaVuSerif-20" x="466.308594"/>
      <use xlink:href="#DejaVuSerif-5b" x="498.095703"/>
      <use xlink:href="#DejaVuSerif-6d" x="537.109375"/>
      <use xlink:href="#DejaVuSerif-65" x="631.933594"/>
      <use xlink:href="#DejaVuSerif-74" x="691.113281"/>
      <use xlink:href="#DejaVuSerif-65" x="731.298828"/>
      <use xlink:href="#DejaVuSerif-72" x="790.478516"/>
      <use xlink:href="#DejaVuSerif-73" x="838.28125"/>
      <use xlink:href="#DejaVuSerif-5d" x="889.599609"/>
     </g>
    </g>
   </g>
   <g id="line2d_29">
    <path d="M 69.388588 181.482443 
L 70.953733 180.239366 
L 72.518355 178.99629 
L 74.081933 177.753213 
L 75.64395 176.510136 
L 77.203896 175.267059 
L 78.761273 174.023983 
L 80.315592 172.780906 
L 81.866377 171.537829 
L 83.413172 170.294752 
L 84.955534 169.051675 
L 86.493044 167.808599 
L 88.025304 166.565522 
L 89.551938 165.322445 
L 91.072596 164.079368 
L 92.586957 162.836292 
L 94.094727 161.593215 
L 95.595641 160.350138 
L 97.089465 159.107061 
L 98.576 157.863984 
L 100.055076 156.620908 
L 101.52656 155.377831 
L 102.99035 154.134754 
L 104.446381 152.891677 
L 105.894623 151.648601 
L 107.335081 150.405524 
L 108.767794 149.162447 
L 110.192838 147.91937 
L 111.610321 146.676293 
L 113.020388 145.433217 
L 114.423215 144.19014 
L 115.819013 142.947063 
L 117.208024 141.703986 
L 118.590519 140.46091 
L 119.9668 139.217833 
L 121.337198 137.974756 
L 122.702069 136.731679 
L 124.061793 135.488602 
L 125.416776 134.245526 
L 126.767444 133.002449 
L 128.114242 131.759372 
L 129.457633 130.516295 
L 130.798096 129.273219 
L 132.136122 128.030142 
L 133.472215 126.787065 
L 134.806885 125.543988 
L 136.14065 124.300911 
L 137.474032 123.057835 
L 138.807555 121.814758 
L 140.141742 120.571681 
L 141.477112 119.328604 
L 142.814181 118.085528 
L 144.153456 116.842451 
L 145.495433 115.599374 
L 146.840597 114.356297 
L 148.189419 113.11322 
L 149.542353 111.870144 
L 150.899833 110.627067 
L 152.262275 109.38399 
L 153.630072 108.140913 
L 155.00359 106.897837 
L 156.383173 105.65476 
L 157.769135 104.411683 
L 159.161763 103.168606 
L 160.561312 101.92553 
L 161.968007 100.682453 
L 163.382041 99.439376 
L 164.803573 98.196299 
L 166.232729 96.953222 
L 167.669598 95.710146 
L 169.114239 94.467069 
L 170.56667 93.223992 
L 172.026879 91.980915 
L 173.494815 90.737839 
L 174.970395 89.494762 
L 176.4535 88.251685 
L 177.943977 87.008608 
L 179.44164 85.765531 
L 180.946271 84.522455 
L 182.457619 83.279378 
L 183.975404 82.036301 
L 185.499317 80.793224 
L 187.02902 79.550148 
L 188.564151 78.307071 
L 190.104321 77.063994 
L 191.649119 75.820917 
L 193.198115 74.57784 
L 194.750858 73.334764 
L 196.306881 72.091687 
L 197.865701 70.84861 
L 199.426823 69.605533 
L 200.989743 68.362457 
L 202.553947 67.11938 
L 204.118915 65.876303 
L 205.684125 64.633226 
L 207.249054 63.390149 
L 208.813179 62.147073 
L 210.375982 60.903996 
L 211.936948 59.660919 
L 213.495575 58.417842 
L 215.051367 57.174766 
L 216.603844 55.931689 
L 218.15254 54.688612 
L 219.697005 53.445535 
L 221.23681 52.202458 
L 222.771546 50.959382 
L 224.300825 49.716305 
L 225.824289 48.473228 
L 227.3416 47.230151 
L 228.852452 45.987075 
L 230.356567 44.743998 
L 231.853696 43.500921 
L 233.343625 42.257844 
L 234.826168 41.014767 
L 236.301177 39.771691 
L 237.768535 38.528614 
L 239.228159 37.285537 
L 240.680005 36.04246 
L 242.124059 34.799384 
L 243.560346 33.556307 
" clip-path="url(#p54a5e1c693)" style="fill: none; stroke: #000000; stroke-width: 2; stroke-linecap: square"/>
   </g>
   <g id="line2d_30">
    <path d="M 69.388588 181.482443 
L 70.953733 180.239366 
L 72.518355 178.99629 
L 74.081933 177.753213 
L 75.64395 176.510136 
L 77.203896 175.267059 
L 78.761273 174.023983 
L 80.315592 172.780906 
L 81.866377 171.537829 
L 83.413172 170.294752 
L 84.955534 169.051675 
L 86.493044 167.808599 
L 88.025304 166.565522 
L 89.551938 165.322445 
L 91.072596 164.079368 
L 92.586957 162.836292 
L 94.094727 161.593215 
L 95.595641 160.350138 
L 97.089465 159.107061 
L 98.576 157.863984 
L 100.055076 156.620908 
L 101.52656 155.377831 
L 102.99035 154.134754 
L 104.446381 152.891677 
L 105.894623 151.648601 
L 107.335081 150.405524 
L 108.767794 149.162447 
L 110.192838 147.91937 
L 111.610321 146.676293 
L 113.020388 145.433217 
L 114.423215 144.19014 
L 115.819013 142.947063 
L 117.208024 141.703986 
L 118.590519 140.46091 
L 119.9668 139.217833 
L 121.337198 137.974756 
L 122.702069 136.731679 
L 124.061793 135.488602 
L 125.416776 134.245526 
L 126.767444 133.002449 
L 128.114242 131.72208 
L 129.457633 130.367126 
L 130.798096 129.012172 
L 132.136122 127.657219 
L 133.472215 126.302265 
L 134.806885 124.947311 
L 136.14065 123.592358 
L 137.474032 122.237404 
L 138.807555 120.88245 
L 140.141742 119.527497 
L 141.477112 118.172543 
L 142.814181 116.817589 
L 144.153456 115.462636 
L 145.495433 114.107682 
L 146.840597 112.752728 
L 148.189419 111.397775 
L 149.542353 110.042821 
L 150.899833 108.687867 
L 152.262275 107.332913 
L 153.630072 105.97796 
L 155.00359 104.623006 
L 156.383173 103.268052 
L 157.769135 101.913099 
L 159.161763 100.558145 
L 160.561312 99.203191 
L 161.968007 97.848238 
L 163.382041 96.493284 
L 164.803573 95.13833 
L 166.232729 93.783377 
L 167.669598 92.428423 
L 169.114239 94.467069 
L 170.56667 93.223992 
L 172.026879 91.980915 
L 173.494815 90.737839 
L 174.970395 89.494762 
L 176.4535 88.251685 
L 177.943977 87.008608 
L 179.44164 85.765531 
L 180.946271 84.522455 
L 182.457619 83.279378 
L 183.975404 82.036301 
L 185.499317 80.793224 
L 187.02902 79.550148 
L 188.564151 78.307071 
L 190.104321 77.063994 
L 191.649119 75.820917 
L 193.198115 74.57784 
L 194.750858 73.334764 
L 196.306881 72.091687 
L 197.865701 70.84861 
L 199.426823 69.605533 
L 200.989743 68.362457 
L 202.553947 67.11938 
L 204.118915 65.876303 
L 205.684125 64.633226 
L 207.249054 63.390149 
L 208.813179 62.147073 
L 210.375982 60.903996 
L 211.936948 59.660919 
L 213.495575 58.417842 
L 215.051367 57.174766 
L 216.603844 55.931689 
L 218.15254 54.688612 
L 219.697005 53.445535 
L 221.23681 52.202458 
L 222.771546 50.959382 
L 224.300825 49.716305 
L 225.824289 48.473228 
L 227.3416 47.230151 
L 228.852452 45.987075 
L 230.356567 44.743998 
L 231.853696 43.500921 
L 233.343625 42.257844 
L 234.826168 41.014767 
L 236.301177 39.771691 
L 237.768535 38.528614 
L 239.228159 37.285537 
L 240.680005 36.04246 
L 242.124059 34.799384 
L 243.560346 33.556307 
" clip-path="url(#p54a5e1c693)" style="fill: none; stroke-dasharray: 7.4,3.2; stroke-dashoffset: 0; stroke: #0000ff; stroke-width: 2"/>
   </g>
   <g id="line2d_31">
    <defs>
     <path id="m223dbc8358" d="M 0 1.5 
C 0.397805 1.5 0.77937 1.341951 1.06066 1.06066 
C 1.341951 0.77937 1.5 0.397805 1.5 0 
C 1.5 -0.397805 1.341951 -0.77937 1.06066 -1.06066 
C 0.77937 -1.341951 0.397805 -1.5 0 -1.5 
C -0.397805 -1.5 -0.77937 -1.341951 -1.06066 -1.06066 
C -1.341951 -0.77937 -1.5 -0.397805 -1.5 0 
C -1.5 0.397805 -1.341951 0.77937 -1.06066 1.06066 
C -0.77937 1.341951 -0.397805 1.5 0 1.5 
z
" style="stroke: #ff0000"/>
    </defs>
    <g clip-path="url(#p54a5e1c693)">
     <use xlink:href="#m223dbc8358" x="128.114242" y="131.72208" style="fill: #ff0000; stroke: #ff0000"/>
     <use xlink:href="#m223dbc8358" x="129.457633" y="130.367126" style="fill: #ff0000; stroke: #ff0000"/>
     <use xlink:href="#m223dbc8358" x="130.798096" y="129.012172" style="fill: #ff0000; stroke: #ff0000"/>
     <use xlink:href="#m223dbc8358" x="132.136122" y="127.657219" style="fill: #ff0000; stroke: #ff0000"/>
     <use xlink:href="#m223dbc8358" x="133.472215" y="126.302265" style="fill: #ff0000; stroke: #ff0000"/>
     <use xlink:href="#m223dbc8358" x="134.806885" y="124.947311" style="fill: #ff0000; stroke: #ff0000"/>
     <use xlink:href="#m223dbc8358" x="136.14065" y="123.592358" style="fill: #ff0000; stroke: #ff0000"/>
     <use xlink:href="#m223dbc8358" x="137.474032" y="122.237404" style="fill: #ff0000; stroke: #ff0000"/>
     <use xlink:href="#m223dbc8358" x="138.807555" y="120.88245" style="fill: #ff0000; stroke: #ff0000"/>
     <use xlink:href="#m223dbc8358" x="140.141742" y="119.527497" style="fill: #ff0000; stroke: #ff0000"/>
     <use xlink:href="#m223dbc8358" x="141.477112" y="118.172543" style="fill: #ff0000; stroke: #ff0000"/>
     <use xlink:href="#m223dbc8358" x="142.814181" y="116.817589" style="fill: #ff0000; stroke: #ff0000"/>
     <use xlink:href="#m223dbc8358" x="144.153456" y="115.462636" style="fill: #ff0000; stroke: #ff0000"/>
     <use xlink:href="#m223dbc8358" x="145.495433" y="114.107682" style="fill: #ff0000; stroke: #ff0000"/>
     <use xlink:href="#m223dbc8358" x="146.840597" y="112.752728" style="fill: #ff0000; stroke: #ff0000"/>
     <use xlink:href="#m223dbc8358" x="148.189419" y="111.397775" style="fill: #ff0000; stroke: #ff0000"/>
     <use xlink:href="#m223dbc8358" x="149.542353" y="110.042821" style="fill: #ff0000; stroke: #ff0000"/>
     <use xlink:href="#m223dbc8358" x="150.899833" y="108.687867" style="fill: #ff0000; stroke: #ff0000"/>
     <use xlink:href="#m223dbc8358" x="152.262275" y="107.332913" style="fill: #ff0000; stroke: #ff0000"/>
     <use xlink:href="#m223dbc8358" x="153.630072" y="105.97796" style="fill: #ff0000; stroke: #ff0000"/>
     <use xlink:href="#m223dbc8358" x="155.00359" y="104.623006" style="fill: #ff0000; stroke: #ff0000"/>
     <use xlink:href="#m223dbc8358" x="156.383173" y="103.268052" style="fill: #ff0000; stroke: #ff0000"/>
     <use xlink:href="#m223dbc8358" x="157.769135" y="101.913099" style="fill: #ff0000; stroke: #ff0000"/>
     <use xlink:href="#m223dbc8358" x="159.161763" y="100.558145" style="fill: #ff0000; stroke: #ff0000"/>
     <use xlink:href="#m223dbc8358" x="160.561312" y="99.203191" style="fill: #ff0000; stroke: #ff0000"/>
     <use xlink:href="#m223dbc8358" x="161.968007" y="97.848238" style="fill: #ff0000; stroke: #ff0000"/>
     <use xlink:href="#m223dbc8358" x="163.382041" y="96.493284" style="fill: #ff0000; stroke: #ff0000"/>
     <use xlink:href="#m223dbc8358" x="164.803573" y="95.13833" style="fill: #ff0000; stroke: #ff0000"/>
     <use xlink:href="#m223dbc8358" x="166.232729" y="93.783377" style="fill: #ff0000; stroke: #ff0000"/>
     <use xlink:href="#m223dbc8358" x="167.669598" y="92.428423" style="fill: #ff0000; stroke: #ff0000"/>
    </g>
   </g>
   <g id="patch_3">
    <path d="M 60.68 188.87875 
L 60.68 26.16 
" style="fill: none; stroke: #000000; stroke-width: 0.8; stroke-linejoin: miter; stroke-linecap: square"/>
   </g>
   <g id="patch_4">
    <path d="M 252.268934 188.87875 
L 252.268934 26.16 
" style="fill: none; stroke: #000000; stroke-width: 0.8; stroke-linejoin: miter; stroke-linecap: square"/>
   </g>
   <g id="patch_5">
    <path d="M 60.68 188.87875 
L 252.268934 188.87875 
" style="fill: none; stroke: #000000; stroke-width: 0.8; stroke-linejoin: miter; stroke-linecap: square"/>
   </g>
   <g id="patch_6">
    <path d="M 60.68 26.16 
L 252.268934 26.16 
" style="fill: none; stroke: #000000; stroke-width: 0.8; stroke-linejoin: miter; stroke-linecap: square"/>
   </g>
   <g id="text_17">
    <!-- Real AIS Trajectory Tracking -->
    <g transform="translate(59.572592 20.16) scale(0.12 -0.12)">
     <defs>
      <path id="DejaVuSerif-Bold-52" d="M 3397 2278 
Q 3675 2238 3865 2094 
Q 4056 1950 4197 1678 
L 4878 378 
L 5356 378 
L 5356 0 
L 3822 0 
L 3078 1409 
Q 2863 1847 2711 1967 
Q 2559 2088 2291 2088 
L 2100 2088 
L 2100 378 
L 2700 378 
L 2700 0 
L 300 0 
L 300 378 
L 897 378 
L 897 4288 
L 300 4288 
L 300 4666 
L 2963 4666 
Q 3775 4666 4217 4339 
Q 4659 4013 4659 3413 
Q 4659 2925 4345 2642 
Q 4031 2359 3397 2278 
z
M 2100 2463 
L 2509 2463 
Q 2947 2463 3183 2700 
Q 3419 2938 3419 3378 
Q 3419 3819 3183 4053 
Q 2947 4288 2509 4288 
L 2100 4288 
L 2100 2463 
z
" transform="scale(0.015625)"/>
      <path id="DejaVuSerif-Bold-65" d="M 2566 1875 
Q 2566 2531 2444 2795 
Q 2322 3059 2028 3059 
Q 1744 3059 1620 2800 
Q 1497 2541 1497 1931 
L 1497 1875 
L 2566 1875 
z
M 3781 1503 
L 1497 1503 
L 1497 1478 
Q 1497 834 1690 548 
Q 1884 263 2316 263 
Q 2675 263 2897 453 
Q 3119 644 3181 1006 
L 3700 1006 
Q 3566 441 3166 175 
Q 2766 -91 2047 -91 
Q 1184 -91 723 364 
Q 263 819 263 1663 
Q 263 2488 734 2950 
Q 1206 3413 2047 3413 
Q 2872 3413 3312 2927 
Q 3753 2441 3781 1503 
z
" transform="scale(0.015625)"/>
      <path id="DejaVuSerif-Bold-61" d="M 3525 2041 
L 3525 378 
L 4000 378 
L 4000 0 
L 2419 0 
L 2419 422 
Q 2200 159 1931 34 
Q 1663 -91 1319 -91 
Q 809 -91 536 182 
Q 263 456 263 966 
Q 263 1525 655 1803 
Q 1047 2081 1838 2081 
L 2419 2081 
L 2419 2278 
Q 2419 2681 2228 2873 
Q 2038 3066 1638 3066 
Q 1306 3066 1126 2930 
Q 947 2794 872 2484 
L 519 2484 
L 519 3200 
Q 816 3306 1134 3359 
Q 1453 3413 1806 3413 
Q 2697 3413 3111 3081 
Q 3525 2750 3525 2041 
z
M 2419 1044 
L 2419 1709 
L 2003 1709 
Q 1694 1709 1528 1540 
Q 1363 1372 1363 1056 
Q 1363 741 1483 584 
Q 1603 428 1850 428 
Q 2106 428 2262 597 
Q 2419 766 2419 1044 
z
" transform="scale(0.015625)"/>
      <path id="DejaVuSerif-Bold-6c" d="M 1797 378 
L 2272 378 
L 2272 0 
L 219 0 
L 219 378 
L 691 378 
L 691 4488 
L 219 4488 
L 219 4863 
L 1797 4863 
L 1797 378 
z
" transform="scale(0.015625)"/>
      <path id="DejaVuSerif-Bold-20" transform="scale(0.015625)"/>
      <path id="DejaVuSerif-Bold-41" d="M -50 0 
L -50 378 
L 331 378 
L 2088 4666 
L 2834 4666 
L 4594 378 
L 5038 378 
L 5038 0 
L 2853 0 
L 2853 378 
L 3309 378 
L 2925 1331 
L 1172 1331 
L 781 378 
L 1338 378 
L 1338 0 
L -50 0 
z
M 1325 1709 
L 2772 1709 
L 2053 3494 
L 1325 1709 
z
" transform="scale(0.015625)"/>
      <path id="DejaVuSerif-Bold-49" d="M 300 0 
L 300 378 
L 897 378 
L 897 4288 
L 300 4288 
L 300 4666 
L 2700 4666 
L 2700 4288 
L 2100 4288 
L 2100 378 
L 2700 378 
L 2700 0 
L 300 0 
z
" transform="scale(0.015625)"/>
      <path id="DejaVuSerif-Bold-53" d="M 494 225 
L 494 1331 
L 891 1331 
Q 981 806 1318 547 
Q 1656 288 2253 288 
Q 2738 288 2991 472 
Q 3244 656 3244 1013 
Q 3244 1294 3072 1450 
Q 2900 1606 2363 1741 
L 1663 1913 
Q 978 2088 700 2398 
Q 422 2709 422 3284 
Q 422 3978 883 4364 
Q 1344 4750 2175 4750 
Q 2584 4750 3026 4681 
Q 3469 4613 3944 4475 
L 3944 3444 
L 3547 3444 
Q 3456 3925 3150 4148 
Q 2844 4372 2278 4372 
Q 1816 4372 1580 4211 
Q 1344 4050 1344 3731 
Q 1344 3441 1506 3289 
Q 1669 3138 2303 2975 
L 3003 2803 
Q 3653 2641 3945 2297 
Q 4238 1953 4238 1350 
Q 4238 644 3750 276 
Q 3263 -91 2316 -91 
Q 1859 -91 1409 -12 
Q 959 66 494 225 
z
" transform="scale(0.015625)"/>
      <path id="DejaVuSerif-Bold-54" d="M 1159 0 
L 1159 378 
L 1778 378 
L 1778 4238 
L 500 4238 
L 500 3500 
L 72 3500 
L 72 4666 
L 4697 4666 
L 4697 3500 
L 4275 3500 
L 4275 4238 
L 2988 4238 
L 2988 378 
L 3609 378 
L 3609 0 
L 1159 0 
z
" transform="scale(0.015625)"/>
      <path id="DejaVuSerif-Bold-72" d="M 3438 3359 
L 3438 2369 
L 3084 2369 
Q 3066 2634 2941 2764 
Q 2816 2894 2578 2894 
Q 2216 2894 2006 2575 
Q 1797 2256 1797 1691 
L 1797 378 
L 2400 378 
L 2400 0 
L 219 0 
L 219 378 
L 691 378 
L 691 2944 
L 184 2944 
L 184 3322 
L 1797 3322 
L 1797 2731 
Q 1959 3078 2226 3245 
Q 2494 3413 2881 3413 
Q 2978 3413 3117 3398 
Q 3256 3384 3438 3359 
z
" transform="scale(0.015625)"/>
      <path id="DejaVuSerif-Bold-6a" d="M 556 4263 
Q 556 4516 729 4689 
Q 903 4863 1159 4863 
Q 1403 4863 1578 4688 
Q 1753 4513 1753 4263 
Q 1753 4016 1579 3842 
Q 1406 3669 1159 3669 
Q 906 3669 731 3841 
Q 556 4013 556 4263 
z
M 684 2944 
L 213 2944 
L 213 3322 
L 1791 3322 
L 1791 -391 
Q 1791 -900 1430 -1161 
Q 1069 -1422 366 -1422 
Q 178 -1422 -34 -1390 
Q -247 -1359 -475 -1300 
L -475 -594 
L -122 -597 
Q -116 -847 -23 -958 
Q 69 -1069 275 -1069 
Q 503 -1069 593 -922 
Q 684 -775 684 -391 
L 684 2944 
z
" transform="scale(0.015625)"/>
      <path id="DejaVuSerif-Bold-63" d="M 3609 1038 
Q 3491 469 3123 189 
Q 2756 -91 2125 -91 
Q 1238 -91 750 368 
Q 263 828 263 1663 
Q 263 2488 744 2950 
Q 1225 3413 2081 3413 
Q 2428 3413 2781 3347 
Q 3134 3281 3500 3150 
L 3500 2228 
L 3150 2228 
Q 3100 2650 2903 2854 
Q 2706 3059 2350 3059 
Q 1888 3059 1692 2746 
Q 1497 2434 1497 1663 
Q 1497 909 1687 586 
Q 1878 263 2309 263 
Q 2644 263 2845 463 
Q 3047 663 3091 1038 
L 3609 1038 
z
" transform="scale(0.015625)"/>
      <path id="DejaVuSerif-Bold-74" d="M 634 2944 
L 153 2944 
L 153 3322 
L 634 3322 
L 634 4353 
L 1741 4353 
L 1741 3322 
L 2663 3322 
L 2663 2944 
L 1741 2944 
L 1741 909 
Q 1741 475 1809 369 
Q 1878 263 2059 263 
Q 2259 263 2356 397 
Q 2453 531 2459 813 
L 2925 813 
Q 2897 313 2651 111 
Q 2406 -91 1806 -91 
Q 1122 -91 878 123 
Q 634 338 634 909 
L 634 2944 
z
" transform="scale(0.015625)"/>
      <path id="DejaVuSerif-Bold-6f" d="M 2138 263 
Q 2488 263 2630 563 
Q 2772 863 2772 1663 
Q 2772 2463 2631 2761 
Q 2491 3059 2138 3059 
Q 1784 3059 1640 2757 
Q 1497 2456 1497 1663 
Q 1497 869 1640 566 
Q 1784 263 2138 263 
z
M 2138 -91 
Q 1259 -91 761 376 
Q 263 844 263 1663 
Q 263 2484 761 2948 
Q 1259 3413 2138 3413 
Q 3019 3413 3516 2948 
Q 4013 2484 4013 1663 
Q 4013 844 3514 376 
Q 3016 -91 2138 -91 
z
" transform="scale(0.015625)"/>
      <path id="DejaVuSerif-Bold-79" d="M 1997 -750 
Q 1847 -1116 1634 -1269 
Q 1422 -1422 1063 -1422 
Q 909 -1422 721 -1387 
Q 534 -1353 313 -1288 
L 313 -594 
L 666 -597 
Q 675 -838 779 -953 
Q 884 -1069 1094 -1069 
Q 1297 -1069 1422 -958 
Q 1547 -847 1672 -538 
L 1722 -422 
L 275 2944 
L -84 2944 
L -84 3322 
L 1831 3322 
L 1831 2944 
L 1434 2944 
L 2278 978 
L 3066 2944 
L 2625 2944 
L 2625 3322 
L 3872 3322 
L 3872 2944 
L 3469 2944 
L 1997 -750 
z
" transform="scale(0.015625)"/>
      <path id="DejaVuSerif-Bold-6b" d="M 2216 0 
L 219 0 
L 219 378 
L 691 378 
L 691 4488 
L 219 4488 
L 219 4863 
L 1797 4863 
L 1797 1741 
L 3138 2944 
L 2741 2944 
L 2741 3322 
L 4256 3322 
L 4256 2944 
L 3641 2944 
L 2784 2175 
L 4184 378 
L 4544 378 
L 4544 0 
L 2638 0 
L 2638 378 
L 3028 378 
L 2106 1563 
L 1797 1288 
L 1797 378 
L 2216 378 
L 2216 0 
z
" transform="scale(0.015625)"/>
      <path id="DejaVuSerif-Bold-69" d="M 588 4263 
Q 588 4516 763 4689 
Q 938 4863 1191 4863 
Q 1438 4863 1611 4689 
Q 1784 4516 1784 4263 
Q 1784 4016 1611 3842 
Q 1438 3669 1191 3669 
Q 938 3669 763 3841 
Q 588 4013 588 4263 
z
M 1797 378 
L 2272 378 
L 2272 0 
L 219 0 
L 219 378 
L 691 378 
L 691 2944 
L 219 2944 
L 219 3322 
L 1797 3322 
L 1797 378 
z
" transform="scale(0.015625)"/>
      <path id="DejaVuSerif-Bold-6e" d="M 219 0 
L 219 378 
L 691 378 
L 691 2944 
L 219 2944 
L 219 3322 
L 1797 3322 
L 1797 2853 
Q 1997 3150 2253 3281 
Q 2509 3413 2900 3413 
Q 3459 3413 3745 3083 
Q 4031 2753 4031 2113 
L 4031 378 
L 4506 378 
L 4506 0 
L 2522 0 
L 2522 378 
L 2925 378 
L 2925 2144 
Q 2925 2566 2817 2730 
Q 2709 2894 2444 2894 
Q 2109 2894 1953 2648 
Q 1797 2403 1797 1869 
L 1797 378 
L 2203 378 
L 2203 0 
L 219 0 
z
" transform="scale(0.015625)"/>
      <path id="DejaVuSerif-Bold-67" d="M 3853 2944 
L 3853 44 
Q 3853 -656 3354 -1039 
Q 2856 -1422 1947 -1422 
Q 1616 -1422 1275 -1370 
Q 934 -1319 575 -1216 
L 575 -422 
L 928 -422 
Q 975 -750 1192 -909 
Q 1409 -1069 1813 -1069 
Q 2325 -1069 2536 -823 
Q 2747 -578 2747 44 
L 2747 422 
Q 2606 163 2367 36 
Q 2128 -91 1778 -91 
Q 1072 -91 667 378 
Q 263 847 263 1663 
Q 263 2481 667 2947 
Q 1072 3413 1778 3413 
Q 2128 3413 2367 3286 
Q 2606 3159 2747 2900 
L 2747 3322 
L 4325 3322 
L 4325 2944 
L 3853 2944 
z
M 2747 1825 
Q 2747 2406 2597 2665 
Q 2447 2925 2119 2925 
Q 1775 2925 1636 2651 
Q 1497 2378 1497 1663 
Q 1497 947 1637 672 
Q 1778 397 2119 397 
Q 2447 397 2597 656 
Q 2747 916 2747 1497 
L 2747 1825 
z
" transform="scale(0.015625)"/>
     </defs>
     <use xlink:href="#DejaVuSerif-Bold-52"/>
     <use xlink:href="#DejaVuSerif-Bold-65" x="83.105469"/>
     <use xlink:href="#DejaVuSerif-Bold-61" x="146.728516"/>
     <use xlink:href="#DejaVuSerif-Bold-6c" x="211.523438"/>
     <use xlink:href="#DejaVuSerif-Bold-20" x="249.511719"/>
     <use xlink:href="#DejaVuSerif-Bold-41" x="284.326172"/>
     <use xlink:href="#DejaVuSerif-Bold-49" x="361.914062"/>
     <use xlink:href="#DejaVuSerif-Bold-53" x="408.691406"/>
     <use xlink:href="#DejaVuSerif-Bold-20" x="480.908203"/>
     <use xlink:href="#DejaVuSerif-Bold-54" x="515.722656"/>
     <use xlink:href="#DejaVuSerif-Bold-72" x="582.886719"/>
     <use xlink:href="#DejaVuSerif-Bold-61" x="635.572266"/>
     <use xlink:href="#DejaVuSerif-Bold-6a" x="700.367188"/>
     <use xlink:href="#DejaVuSerif-Bold-65" x="736.548828"/>
     <use xlink:href="#DejaVuSerif-Bold-63" x="800.171875"/>
     <use xlink:href="#DejaVuSerif-Bold-74" x="861.060547"/>
     <use xlink:href="#DejaVuSerif-Bold-6f" x="907.251953"/>
     <use xlink:href="#DejaVuSerif-Bold-72" x="973.951172"/>
     <use xlink:href="#DejaVuSerif-Bold-79" x="1026.636719"/>
     <use xlink:href="#DejaVuSerif-Bold-20" x="1084.742188"/>
     <use xlink:href="#DejaVuSerif-Bold-54" x="1119.556641"/>
     <use xlink:href="#DejaVuSerif-Bold-72" x="1186.720703"/>
     <use xlink:href="#DejaVuSerif-Bold-61" x="1239.40625"/>
     <use xlink:href="#DejaVuSerif-Bold-63" x="1304.201172"/>
     <use xlink:href="#DejaVuSerif-Bold-6b" x="1365.089844"/>
     <use xlink:href="#DejaVuSerif-Bold-69" x="1434.376953"/>
     <use xlink:href="#DejaVuSerif-Bold-6e" x="1472.365234"/>
     <use xlink:href="#DejaVuSerif-Bold-67" x="1545.070312"/>
    </g>
   </g>
   <g id="legend_1">
    <g id="patch_7">
     <path d="M 66.63 70.751797 
L 233.333594 70.751797 
Q 235.033594 70.751797 235.033594 69.051797 
L 235.033594 32.11 
Q 235.033594 30.41 233.333594 30.41 
L 66.63 30.41 
Q 64.93 30.41 64.93 32.11 
L 64.93 69.051797 
Q 64.93 70.751797 66.63 70.751797 
z
" style="fill: #ffffff; opacity: 0.8; stroke: #cccccc; stroke-linejoin: miter"/>
    </g>
    <g id="line2d_32">
     <path d="M 68.33 37.293672 
L 76.83 37.293672 
L 85.33 37.293672 
" style="fill: none; stroke: #000000; stroke-width: 2; stroke-linecap: square"/>
    </g>
    <g id="text_18">
     <!-- Ground-Truth AIS Trajectory -->
     <g transform="translate(92.13 40.268672) scale(0.085 -0.085)">
      <defs>
       <path id="DejaVuSerif-47" d="M 4097 3272 
Q 3988 3856 3641 4136 
Q 3294 4416 2675 4416 
Q 1869 4416 1472 3897 
Q 1075 3378 1075 2328 
Q 1075 1300 1484 772 
Q 1894 244 2688 244 
Q 3041 244 3362 331 
Q 3684 419 3975 594 
L 3975 1797 
L 3097 1797 
L 3097 2131 
L 4609 2131 
L 4609 391 
Q 4194 150 3714 29 
Q 3234 -91 2688 -91 
Q 1631 -91 995 570 
Q 359 1231 359 2328 
Q 359 3434 996 4092 
Q 1634 4750 2713 4750 
Q 3113 4750 3539 4658 
Q 3966 4566 4447 4378 
L 4447 3272 
L 4097 3272 
z
" transform="scale(0.015625)"/>
       <path id="DejaVuSerif-75" d="M 2266 3322 
L 3341 3322 
L 3341 331 
L 3884 331 
L 3884 0 
L 2766 0 
L 2766 588 
Q 2606 256 2353 82 
Q 2100 -91 1766 -91 
Q 1213 -91 952 223 
Q 691 538 691 1209 
L 691 2988 
L 172 2988 
L 172 3322 
L 1269 3322 
L 1269 1388 
Q 1269 781 1417 556 
Q 1566 331 1947 331 
Q 2347 331 2556 625 
Q 2766 919 2766 1478 
L 2766 2988 
L 2266 2988 
L 2266 3322 
z
" transform="scale(0.015625)"/>
       <path id="DejaVuSerif-6e" d="M 263 0 
L 263 331 
L 781 331 
L 781 2988 
L 231 2988 
L 231 3322 
L 1356 3322 
L 1356 2731 
Q 1516 3069 1770 3241 
Q 2025 3413 2363 3413 
Q 2913 3413 3172 3097 
Q 3431 2781 3431 2113 
L 3431 331 
L 3944 331 
L 3944 0 
L 2356 0 
L 2356 331 
L 2853 331 
L 2853 1931 
Q 2853 2541 2703 2767 
Q 2553 2994 2175 2994 
Q 1775 2994 1565 2701 
Q 1356 2409 1356 1850 
L 1356 331 
L 1856 331 
L 1856 0 
L 263 0 
z
" transform="scale(0.015625)"/>
       <path id="DejaVuSerif-64" d="M 3359 331 
L 3909 331 
L 3909 0 
L 2784 0 
L 2784 519 
Q 2616 206 2355 57 
Q 2094 -91 1709 -91 
Q 1097 -91 708 395 
Q 319 881 319 1663 
Q 319 2444 706 2928 
Q 1094 3413 1709 3413 
Q 2094 3413 2355 3264 
Q 2616 3116 2784 2803 
L 2784 4531 
L 2241 4531 
L 2241 4863 
L 3359 4863 
L 3359 331 
z
M 2784 1497 
L 2784 1825 
Q 2784 2422 2554 2737 
Q 2325 3053 1888 3053 
Q 1444 3053 1217 2703 
Q 991 2353 991 1663 
Q 991 975 1217 622 
Q 1444 269 1888 269 
Q 2325 269 2554 583 
Q 2784 897 2784 1497 
z
" transform="scale(0.015625)"/>
       <path id="DejaVuSerif-2d" d="M 281 1959 
L 1881 1959 
L 1881 1472 
L 281 1472 
L 281 1959 
z
" transform="scale(0.015625)"/>
       <path id="DejaVuSerif-54" d="M 1222 0 
L 1222 331 
L 1819 331 
L 1819 4294 
L 447 4294 
L 447 3566 
L 63 3566 
L 63 4666 
L 4206 4666 
L 4206 3566 
L 3822 3566 
L 3822 4294 
L 2450 4294 
L 2450 331 
L 3047 331 
L 3047 0 
L 1222 0 
z
" transform="scale(0.015625)"/>
       <path id="DejaVuSerif-41" d="M 1281 1691 
L 2994 1691 
L 2138 3909 
L 1281 1691 
z
M -38 0 
L -38 331 
L 372 331 
L 2034 4666 
L 2559 4666 
L 4225 331 
L 4684 331 
L 4684 0 
L 2988 0 
L 2988 331 
L 3506 331 
L 3116 1356 
L 1153 1356 
L 763 331 
L 1275 331 
L 1275 0 
L -38 0 
z
" transform="scale(0.015625)"/>
       <path id="DejaVuSerif-49" d="M 1581 331 
L 2175 331 
L 2175 0 
L 353 0 
L 353 331 
L 947 331 
L 947 4331 
L 353 4331 
L 353 4666 
L 2175 4666 
L 2175 4331 
L 1581 4331 
L 1581 331 
z
" transform="scale(0.015625)"/>
       <path id="DejaVuSerif-53" d="M 594 225 
L 594 1288 
L 953 1284 
Q 969 753 1261 498 
Q 1553 244 2150 244 
Q 2706 244 2998 464 
Q 3291 684 3291 1106 
Q 3291 1444 3114 1625 
Q 2938 1806 2369 1978 
L 1753 2163 
Q 1084 2366 811 2669 
Q 538 2972 538 3500 
Q 538 4094 959 4422 
Q 1381 4750 2144 4750 
Q 2469 4750 2856 4679 
Q 3244 4609 3681 4475 
L 3681 3481 
L 3328 3481 
Q 3275 3975 2998 4195 
Q 2722 4416 2156 4416 
Q 1663 4416 1405 4214 
Q 1147 4013 1147 3628 
Q 1147 3294 1340 3103 
Q 1534 2913 2163 2725 
L 2741 2553 
Q 3375 2363 3645 2067 
Q 3916 1772 3916 1275 
Q 3916 597 3481 253 
Q 3047 -91 2188 -91 
Q 1803 -91 1404 -12 
Q 1006 66 594 225 
z
" transform="scale(0.015625)"/>
       <path id="DejaVuSerif-6a" d="M 641 4353 
Q 641 4497 745 4603 
Q 850 4709 997 4709 
Q 1141 4709 1245 4603 
Q 1350 4497 1350 4353 
Q 1350 4206 1248 4103 
Q 1147 4000 997 4000 
Q 850 4000 745 4103 
Q 641 4206 641 4353 
z
M 781 2988 
L 238 2988 
L 238 3322 
L 1356 3322 
L 1356 -325 
Q 1356 -838 1051 -1130 
Q 747 -1422 213 -1422 
Q -13 -1422 -217 -1370 
Q -422 -1319 -616 -1216 
L -616 -531 
L -319 -531 
Q -297 -831 -164 -972 
Q -31 -1113 225 -1113 
Q 509 -1113 645 -920 
Q 781 -728 781 -325 
L 781 2988 
z
" transform="scale(0.015625)"/>
       <path id="DejaVuSerif-63" d="M 3291 997 
Q 3169 466 2822 187 
Q 2475 -91 1925 -91 
Q 1200 -91 759 389 
Q 319 869 319 1663 
Q 319 2459 759 2936 
Q 1200 3413 1925 3413 
Q 2241 3413 2553 3339 
Q 2866 3266 3181 3116 
L 3181 2266 
L 2847 2266 
Q 2781 2703 2561 2903 
Q 2341 3103 1931 3103 
Q 1466 3103 1228 2742 
Q 991 2381 991 1663 
Q 991 944 1227 581 
Q 1463 219 1931 219 
Q 2303 219 2525 412 
Q 2747 606 2828 997 
L 3291 997 
z
" transform="scale(0.015625)"/>
      </defs>
      <use xlink:href="#DejaVuSerif-47"/>
      <use xlink:href="#DejaVuSerif-72" x="79.882812"/>
      <use xlink:href="#DejaVuSerif-6f" x="127.685547"/>
      <use xlink:href="#DejaVuSerif-75" x="187.890625"/>
      <use xlink:href="#DejaVuSerif-6e" x="252.294922"/>
      <use xlink:href="#DejaVuSerif-64" x="316.699219"/>
      <use xlink:href="#DejaVuSerif-2d" x="380.712891"/>
      <use xlink:href="#DejaVuSerif-54" x="410.876953"/>
      <use xlink:href="#DejaVuSerif-72" x="477.576172"/>
      <use xlink:href="#DejaVuSerif-75" x="525.378906"/>
      <use xlink:href="#DejaVuSerif-74" x="589.783203"/>
      <use xlink:href="#DejaVuSerif-68" x="629.96875"/>
      <use xlink:href="#DejaVuSerif-20" x="694.373047"/>
      <use xlink:href="#DejaVuSerif-41" x="726.160156"/>
      <use xlink:href="#DejaVuSerif-49" x="798.376953"/>
      <use xlink:href="#DejaVuSerif-53" x="837.878906"/>
      <use xlink:href="#DejaVuSerif-20" x="906.384766"/>
      <use xlink:href="#DejaVuSerif-54" x="938.171875"/>
      <use xlink:href="#DejaVuSerif-72" x="1004.871094"/>
      <use xlink:href="#DejaVuSerif-61" x="1052.673828"/>
      <use xlink:href="#DejaVuSerif-6a" x="1112.292969"/>
      <use xlink:href="#DejaVuSerif-65" x="1143.298828"/>
      <use xlink:href="#DejaVuSerif-63" x="1202.478516"/>
      <use xlink:href="#DejaVuSerif-74" x="1258.484375"/>
      <use xlink:href="#DejaVuSerif-6f" x="1298.669922"/>
      <use xlink:href="#DejaVuSerif-72" x="1358.875"/>
      <use xlink:href="#DejaVuSerif-79" x="1406.677734"/>
     </g>
    </g>
    <g id="line2d_33">
     <path d="M 68.33 49.890938 
L 76.83 49.890938 
L 85.33 49.890938 
" style="fill: none; stroke-dasharray: 7.4,3.2; stroke-dashoffset: 0; stroke: #0000ff; stroke-width: 2"/>
    </g>
    <g id="text_19">
     <!-- EKF/JPDA Digital Twin Estimate -->
     <g transform="translate(92.13 52.865938) scale(0.085 -0.085)">
      <defs>
       <path id="DejaVuSerif-4b" d="M 353 0 
L 353 331 
L 947 331 
L 947 4331 
L 353 4331 
L 353 4666 
L 2175 4666 
L 2175 4331 
L 1581 4331 
L 1581 2566 
L 3591 4331 
L 3084 4331 
L 3084 4666 
L 4634 4666 
L 4634 4331 
L 4109 4331 
L 2106 2572 
L 4347 331 
L 4878 331 
L 4878 0 
L 3794 0 
L 1581 2216 
L 1581 331 
L 2175 331 
L 2175 0 
L 353 0 
z
" transform="scale(0.015625)"/>
       <path id="DejaVuSerif-46" d="M 353 0 
L 353 331 
L 947 331 
L 947 4331 
L 353 4331 
L 353 4666 
L 4172 4666 
L 4172 3628 
L 3788 3628 
L 3788 4281 
L 1581 4281 
L 1581 2719 
L 3175 2719 
L 3175 3303 
L 3559 3303 
L 3559 1753 
L 3175 1753 
L 3175 2338 
L 1581 2338 
L 1581 331 
L 2328 331 
L 2328 0 
L 353 0 
z
" transform="scale(0.015625)"/>
       <path id="DejaVuSerif-2f" d="M 1656 4666 
L 2156 4666 
L 500 -594 
L 0 -594 
L 1656 4666 
z
" transform="scale(0.015625)"/>
       <path id="DejaVuSerif-4a" d="M -538 -1119 
L -538 -384 
L -181 -384 
Q -172 -694 -34 -845 
Q 103 -997 378 -997 
Q 750 -997 897 -762 
Q 1044 -528 1044 153 
L 1044 4331 
L 319 4331 
L 319 4666 
L 2272 4666 
L 2272 4331 
L 1678 4331 
L 1678 128 
Q 1678 -644 1368 -987 
Q 1059 -1331 372 -1331 
Q 150 -1331 -79 -1278 
Q -309 -1225 -538 -1119 
z
" transform="scale(0.015625)"/>
       <path id="DejaVuSerif-50" d="M 1581 2375 
L 2406 2375 
Q 2872 2375 3115 2626 
Q 3359 2878 3359 3353 
Q 3359 3831 3115 4081 
Q 2872 4331 2406 4331 
L 1581 4331 
L 1581 2375 
z
M 353 0 
L 353 331 
L 947 331 
L 947 4331 
L 353 4331 
L 353 4666 
L 2559 4666 
Q 3259 4666 3668 4311 
Q 4078 3956 4078 3353 
Q 4078 2753 3668 2397 
Q 3259 2041 2559 2041 
L 1581 2041 
L 1581 331 
L 2303 331 
L 2303 0 
L 353 0 
z
" transform="scale(0.015625)"/>
       <path id="DejaVuSerif-44" d="M 1581 331 
L 2163 331 
Q 3072 331 3558 850 
Q 4044 1369 4044 2338 
Q 4044 3306 3559 3818 
Q 3075 4331 2163 4331 
L 1581 4331 
L 1581 331 
z
M 353 0 
L 353 331 
L 947 331 
L 947 4331 
L 353 4331 
L 353 4666 
L 2209 4666 
Q 3416 4666 4089 4050 
Q 4763 3434 4763 2338 
Q 4763 1238 4088 619 
Q 3413 0 2209 0 
L 353 0 
z
" transform="scale(0.015625)"/>
       <path id="DejaVuSerif-69" d="M 622 4353 
Q 622 4497 726 4603 
Q 831 4709 978 4709 
Q 1122 4709 1226 4603 
Q 1331 4497 1331 4353 
Q 1331 4206 1228 4103 
Q 1125 4000 978 4000 
Q 831 4000 726 4103 
Q 622 4206 622 4353 
z
M 1356 331 
L 1900 331 
L 1900 0 
L 231 0 
L 231 331 
L 781 331 
L 781 2988 
L 231 2988 
L 231 3322 
L 1356 3322 
L 1356 331 
z
" transform="scale(0.015625)"/>
       <path id="DejaVuSerif-67" d="M 3359 2988 
L 3359 72 
Q 3359 -644 2965 -1033 
Q 2572 -1422 1844 -1422 
Q 1516 -1422 1216 -1362 
Q 916 -1303 641 -1184 
L 641 -488 
L 941 -488 
Q 997 -813 1206 -963 
Q 1416 -1113 1806 -1113 
Q 2313 -1113 2548 -827 
Q 2784 -541 2784 72 
L 2784 519 
Q 2616 206 2355 57 
Q 2094 -91 1709 -91 
Q 1097 -91 708 395 
Q 319 881 319 1663 
Q 319 2444 706 2928 
Q 1094 3413 1709 3413 
Q 2094 3413 2355 3264 
Q 2616 3116 2784 2803 
L 2784 3322 
L 3909 3322 
L 3909 2988 
L 3359 2988 
z
M 2784 1825 
Q 2784 2422 2554 2737 
Q 2325 3053 1888 3053 
Q 1444 3053 1217 2703 
Q 991 2353 991 1663 
Q 991 975 1217 622 
Q 1444 269 1888 269 
Q 2325 269 2554 583 
Q 2784 897 2784 1497 
L 2784 1825 
z
" transform="scale(0.015625)"/>
       <path id="DejaVuSerif-6c" d="M 1313 331 
L 1856 331 
L 1856 0 
L 184 0 
L 184 331 
L 738 331 
L 738 4531 
L 184 4531 
L 184 4863 
L 1313 4863 
L 1313 331 
z
" transform="scale(0.015625)"/>
       <path id="DejaVuSerif-77" d="M 3072 3322 
L 3922 728 
L 4672 2988 
L 4191 2988 
L 4191 3322 
L 5394 3322 
L 5394 2988 
L 5025 2988 
L 4038 0 
L 3559 0 
L 2741 2484 
L 1919 0 
L 1459 0 
L 475 2988 
L 103 2988 
L 103 3322 
L 1606 3322 
L 1606 2988 
L 1069 2988 
L 1813 728 
L 2669 3322 
L 3072 3322 
z
" transform="scale(0.015625)"/>
      </defs>
      <use xlink:href="#DejaVuSerif-45"/>
      <use xlink:href="#DejaVuSerif-4b" x="72.998047"/>
      <use xlink:href="#DejaVuSerif-46" x="147.705078"/>
      <use xlink:href="#DejaVuSerif-2f" x="217.089844"/>
      <use xlink:href="#DejaVuSerif-4a" x="250.78125"/>
      <use xlink:href="#DejaVuSerif-50" x="290.869141"/>
      <use xlink:href="#DejaVuSerif-44" x="358.154297"/>
      <use xlink:href="#DejaVuSerif-41" x="438.330078"/>
      <use xlink:href="#DejaVuSerif-20" x="510.546875"/>
      <use xlink:href="#DejaVuSerif-44" x="542.333984"/>
      <use xlink:href="#DejaVuSerif-69" x="622.509766"/>
      <use xlink:href="#DejaVuSerif-67" x="654.492188"/>
      <use xlink:href="#DejaVuSerif-69" x="718.505859"/>
      <use xlink:href="#DejaVuSerif-74" x="750.488281"/>
      <use xlink:href="#DejaVuSerif-61" x="790.673828"/>
      <use xlink:href="#DejaVuSerif-6c" x="850.292969"/>
      <use xlink:href="#DejaVuSerif-20" x="882.275391"/>
      <use xlink:href="#DejaVuSerif-54" x="914.0625"/>
      <use xlink:href="#DejaVuSerif-77" x="977.136719"/>
      <use xlink:href="#DejaVuSerif-69" x="1062.732422"/>
      <use xlink:href="#DejaVuSerif-6e" x="1094.714844"/>
      <use xlink:href="#DejaVuSerif-20" x="1159.119141"/>
      <use xlink:href="#DejaVuSerif-45" x="1190.90625"/>
      <use xlink:href="#DejaVuSerif-73" x="1263.904297"/>
      <use xlink:href="#DejaVuSerif-74" x="1315.222656"/>
      <use xlink:href="#DejaVuSerif-69" x="1355.408203"/>
      <use xlink:href="#DejaVuSerif-6d" x="1387.390625"/>
      <use xlink:href="#DejaVuSerif-61" x="1482.214844"/>
      <use xlink:href="#DejaVuSerif-74" x="1541.833984"/>
      <use xlink:href="#DejaVuSerif-65" x="1582.019531"/>
     </g>
    </g>
    <g id="line2d_34">
     <g>
      <use xlink:href="#m223dbc8358" x="76.83" y="62.488203" style="fill: #ff0000; stroke: #ff0000"/>
     </g>
    </g>
    <g id="text_20">
     <!-- AIS Outage (Dead Reckoning) -->
     <g transform="translate(92.13 65.463203) scale(0.085 -0.085)">
      <defs>
       <path id="DejaVuSerif-4f" d="M 2625 244 
Q 3391 244 3781 770 
Q 4172 1297 4172 2328 
Q 4172 3363 3781 3889 
Q 3391 4416 2625 4416 
Q 1856 4416 1465 3889 
Q 1075 3363 1075 2328 
Q 1075 1297 1465 770 
Q 1856 244 2625 244 
z
M 2625 -91 
Q 2150 -91 1751 65 
Q 1353 222 1050 525 
Q 700 875 529 1319 
Q 359 1763 359 2328 
Q 359 2894 529 3339 
Q 700 3784 1050 4134 
Q 1356 4441 1750 4595 
Q 2144 4750 2625 4750 
Q 3641 4750 4266 4084 
Q 4891 3419 4891 2328 
Q 4891 1769 4719 1320 
Q 4547 872 4197 525 
Q 3891 219 3497 64 
Q 3103 -91 2625 -91 
z
" transform="scale(0.015625)"/>
       <path id="DejaVuSerif-52" d="M 3066 2316 
Q 3284 2256 3442 2114 
Q 3600 1972 3725 1716 
L 4403 331 
L 4972 331 
L 4972 0 
L 3872 0 
L 3144 1484 
Q 2934 1916 2759 2042 
Q 2584 2169 2278 2169 
L 1581 2169 
L 1581 331 
L 2241 331 
L 2241 0 
L 353 0 
L 353 331 
L 947 331 
L 947 4331 
L 353 4331 
L 353 4666 
L 2719 4666 
Q 3400 4666 3770 4341 
Q 4141 4016 4141 3419 
Q 4141 2938 3870 2661 
Q 3600 2384 3066 2316 
z
M 1581 2503 
L 2503 2503 
Q 2975 2503 3200 2726 
Q 3425 2950 3425 3419 
Q 3425 3888 3200 4109 
Q 2975 4331 2503 4331 
L 1581 4331 
L 1581 2503 
z
" transform="scale(0.015625)"/>
       <path id="DejaVuSerif-6b" d="M 1831 0 
L 219 0 
L 219 331 
L 738 331 
L 738 4531 
L 184 4531 
L 184 4863 
L 1313 4863 
L 1313 1697 
L 2713 2988 
L 2234 2988 
L 2234 3322 
L 3738 3322 
L 3738 2988 
L 3169 2988 
L 2181 2075 
L 3444 331 
L 3922 331 
L 3922 0 
L 2284 0 
L 2284 331 
L 2759 331 
L 1766 1697 
L 1313 1275 
L 1313 331 
L 1831 331 
L 1831 0 
z
" transform="scale(0.015625)"/>
      </defs>
      <use xlink:href="#DejaVuSerif-41"/>
      <use xlink:href="#DejaVuSerif-49" x="72.216797"/>
      <use xlink:href="#DejaVuSerif-53" x="111.71875"/>
      <use xlink:href="#DejaVuSerif-20" x="180.224609"/>
      <use xlink:href="#DejaVuSerif-4f" x="212.011719"/>
      <use xlink:href="#DejaVuSerif-75" x="293.994141"/>
      <use xlink:href="#DejaVuSerif-74" x="358.398438"/>
      <use xlink:href="#DejaVuSerif-61" x="398.583984"/>
      <use xlink:href="#DejaVuSerif-67" x="458.203125"/>
      <use xlink:href="#DejaVuSerif-65" x="522.216797"/>
      <use xlink:href="#DejaVuSerif-20" x="581.396484"/>
      <use xlink:href="#DejaVuSerif-28" x="613.183594"/>
      <use xlink:href="#DejaVuSerif-44" x="652.197266"/>
      <use xlink:href="#DejaVuSerif-65" x="732.373047"/>
      <use xlink:href="#DejaVuSerif-61" x="791.552734"/>
      <use xlink:href="#DejaVuSerif-64" x="851.171875"/>
      <use xlink:href="#DejaVuSerif-20" x="915.185547"/>
      <use xlink:href="#DejaVuSerif-52" x="946.972656"/>
      <use xlink:href="#DejaVuSerif-65" x="1022.265625"/>
      <use xlink:href="#DejaVuSerif-63" x="1081.445312"/>
      <use xlink:href="#DejaVuSerif-6b" x="1137.451172"/>
      <use xlink:href="#DejaVuSerif-6f" x="1198.046875"/>
      <use xlink:href="#DejaVuSerif-6e" x="1258.251953"/>
      <use xlink:href="#DejaVuSerif-69" x="1322.65625"/>
      <use xlink:href="#DejaVuSerif-6e" x="1354.638672"/>
      <use xlink:href="#DejaVuSerif-67" x="1419.042969"/>
      <use xlink:href="#DejaVuSerif-29" x="1483.056641"/>
     </g>
    </g>
   </g>
  </g>
  <g id="axes_2">
   <g id="patch_8">
    <path d="M 303.076851 188.87875 
L 494.665785 188.87875 
L 494.665785 26.16 
L 303.076851 26.16 
z
" style="fill: #ffffff"/>
   </g>
   <g id="patch_9">
    <path d="M 369.842692 188.87875 
L 369.842692 26.16 
L 413.385631 26.16 
L 413.385631 188.87875 
z
" clip-path="url(#p422f7028d7)" style="fill: #ff0000; opacity: 0.15; stroke: #ff0000; stroke-linejoin: miter"/>
   </g>
   <g id="matplotlib.axis_3">
    <g id="xtick_8">
     <g id="line2d_35">
      <path d="M 311.785439 188.87875 
L 311.785439 26.16 
" clip-path="url(#p422f7028d7)" style="fill: none; stroke-dasharray: 2.96,1.28; stroke-dashoffset: 0; stroke: #b0b0b0; stroke-opacity: 0.5; stroke-width: 0.8"/>
     </g>
     <g id="line2d_36">
      <g>
       <use xlink:href="#m81ee2db3b6" x="311.785439" y="188.87875" style="stroke: #000000; stroke-width: 0.8"/>
      </g>
     </g>
     <g id="text_21">
      <!-- 0 -->
      <g transform="translate(308.922314 202.717344) scale(0.09 -0.09)">
       <use xlink:href="#DejaVuSerif-30"/>
      </g>
     </g>
    </g>
    <g id="xtick_9">
     <g id="line2d_37">
      <path d="M 340.814066 188.87875 
L 340.814066 26.16 
" clip-path="url(#p422f7028d7)" style="fill: none; stroke-dasharray: 2.96,1.28; stroke-dashoffset: 0; stroke: #b0b0b0; stroke-opacity: 0.5; stroke-width: 0.8"/>
     </g>
     <g id="line2d_38">
      <g>
       <use xlink:href="#m81ee2db3b6" x="340.814066" y="188.87875" style="stroke: #000000; stroke-width: 0.8"/>
      </g>
     </g>
     <g id="text_22">
      <!-- 200 -->
      <g transform="translate(332.224691 202.717344) scale(0.09 -0.09)">
       <use xlink:href="#DejaVuSerif-32"/>
       <use xlink:href="#DejaVuSerif-30" x="63.623047"/>
       <use xlink:href="#DejaVuSerif-30" x="127.246094"/>
      </g>
     </g>
    </g>
    <g id="xtick_10">
     <g id="line2d_39">
      <path d="M 369.842692 188.87875 
L 369.842692 26.16 
" clip-path="url(#p422f7028d7)" style="fill: none; stroke-dasharray: 2.96,1.28; stroke-dashoffset: 0; stroke: #b0b0b0; stroke-opacity: 0.5; stroke-width: 0.8"/>
     </g>
     <g id="line2d_40">
      <g>
       <use xlink:href="#m81ee2db3b6" x="369.842692" y="188.87875" style="stroke: #000000; stroke-width: 0.8"/>
      </g>
     </g>
     <g id="text_23">
      <!-- 400 -->
      <g transform="translate(361.253317 202.717344) scale(0.09 -0.09)">
       <use xlink:href="#DejaVuSerif-34"/>
       <use xlink:href="#DejaVuSerif-30" x="63.623047"/>
       <use xlink:href="#DejaVuSerif-30" x="127.246094"/>
      </g>
     </g>
    </g>
    <g id="xtick_11">
     <g id="line2d_41">
      <path d="M 398.871318 188.87875 
L 398.871318 26.16 
" clip-path="url(#p422f7028d7)" style="fill: none; stroke-dasharray: 2.96,1.28; stroke-dashoffset: 0; stroke: #b0b0b0; stroke-opacity: 0.5; stroke-width: 0.8"/>
     </g>
     <g id="line2d_42">
      <g>
       <use xlink:href="#m81ee2db3b6" x="398.871318" y="188.87875" style="stroke: #000000; stroke-width: 0.8"/>
      </g>
     </g>
     <g id="text_24">
      <!-- 600 -->
      <g transform="translate(390.281943 202.717344) scale(0.09 -0.09)">
       <use xlink:href="#DejaVuSerif-36"/>
       <use xlink:href="#DejaVuSerif-30" x="63.623047"/>
       <use xlink:href="#DejaVuSerif-30" x="127.246094"/>
      </g>
     </g>
    </g>
    <g id="xtick_12">
     <g id="line2d_43">
      <path d="M 427.899945 188.87875 
L 427.899945 26.16 
" clip-path="url(#p422f7028d7)" style="fill: none; stroke-dasharray: 2.96,1.28; stroke-dashoffset: 0; stroke: #b0b0b0; stroke-opacity: 0.5; stroke-width: 0.8"/>
     </g>
     <g id="line2d_44">
      <g>
       <use xlink:href="#m81ee2db3b6" x="427.899945" y="188.87875" style="stroke: #000000; stroke-width: 0.8"/>
      </g>
     </g>
     <g id="text_25">
      <!-- 800 -->
      <g transform="translate(419.31057 202.717344) scale(0.09 -0.09)">
       <use xlink:href="#DejaVuSerif-38"/>
       <use xlink:href="#DejaVuSerif-30" x="63.623047"/>
       <use xlink:href="#DejaVuSerif-30" x="127.246094"/>
      </g>
     </g>
    </g>
    <g id="xtick_13">
     <g id="line2d_45">
      <path d="M 456.928571 188.87875 
L 456.928571 26.16 
" clip-path="url(#p422f7028d7)" style="fill: none; stroke-dasharray: 2.96,1.28; stroke-dashoffset: 0; stroke: #b0b0b0; stroke-opacity: 0.5; stroke-width: 0.8"/>
     </g>
     <g id="line2d_46">
      <g>
       <use xlink:href="#m81ee2db3b6" x="456.928571" y="188.87875" style="stroke: #000000; stroke-width: 0.8"/>
      </g>
     </g>
     <g id="text_26">
      <!-- 1000 -->
      <g transform="translate(445.476071 202.717344) scale(0.09 -0.09)">
       <use xlink:href="#DejaVuSerif-31"/>
       <use xlink:href="#DejaVuSerif-30" x="63.623047"/>
       <use xlink:href="#DejaVuSerif-30" x="127.246094"/>
       <use xlink:href="#DejaVuSerif-30" x="190.869141"/>
      </g>
     </g>
    </g>
    <g id="xtick_14">
     <g id="line2d_47">
      <path d="M 485.957197 188.87875 
L 485.957197 26.16 
" clip-path="url(#p422f7028d7)" style="fill: none; stroke-dasharray: 2.96,1.28; stroke-dashoffset: 0; stroke: #b0b0b0; stroke-opacity: 0.5; stroke-width: 0.8"/>
     </g>
     <g id="line2d_48">
      <g>
       <use xlink:href="#m81ee2db3b6" x="485.957197" y="188.87875" style="stroke: #000000; stroke-width: 0.8"/>
      </g>
     </g>
     <g id="text_27">
      <!-- 1200 -->
      <g transform="translate(474.504697 202.717344) scale(0.09 -0.09)">
       <use xlink:href="#DejaVuSerif-31"/>
       <use xlink:href="#DejaVuSerif-32" x="63.623047"/>
       <use xlink:href="#DejaVuSerif-30" x="127.246094"/>
       <use xlink:href="#DejaVuSerif-30" x="190.869141"/>
      </g>
     </g>
    </g>
    <g id="text_28">
     <!-- Time [seconds] -->
     <g transform="translate(356.578896 216.947344) scale(0.11 -0.11)">
      <use xlink:href="#DejaVuSerif-54"/>
      <use xlink:href="#DejaVuSerif-69" x="66.699219"/>
      <use xlink:href="#DejaVuSerif-6d" x="98.681641"/>
      <use xlink:href="#DejaVuSerif-65" x="193.505859"/>
      <use xlink:href="#DejaVuSerif-20" x="252.685547"/>
      <use xlink:href="#DejaVuSerif-5b" x="284.472656"/>
      <use xlink:href="#DejaVuSerif-73" x="323.486328"/>
      <use xlink:href="#DejaVuSerif-65" x="374.804688"/>
      <use xlink:href="#DejaVuSerif-63" x="433.984375"/>
      <use xlink:href="#DejaVuSerif-6f" x="489.990234"/>
      <use xlink:href="#DejaVuSerif-6e" x="550.195312"/>
      <use xlink:href="#DejaVuSerif-64" x="614.599609"/>
      <use xlink:href="#DejaVuSerif-73" x="678.613281"/>
      <use xlink:href="#DejaVuSerif-5d" x="729.931641"/>
     </g>
    </g>
   </g>
   <g id="matplotlib.axis_4">
    <g id="ytick_8">
     <g id="line2d_49">
      <path d="M 303.076851 181.482443 
L 494.665785 181.482443 
" clip-path="url(#p422f7028d7)" style="fill: none; stroke-dasharray: 2.96,1.28; stroke-dashoffset: 0; stroke: #b0b0b0; stroke-opacity: 0.5; stroke-width: 0.8"/>
     </g>
     <g id="line2d_50">
      <g>
       <use xlink:href="#m685fc3ec3a" x="303.076851" y="181.482443" style="stroke: #000000; stroke-width: 0.8"/>
      </g>
     </g>
     <g id="text_29">
      <!-- 0 -->
      <g transform="translate(290.350601 184.90174) scale(0.09 -0.09)">
       <use xlink:href="#DejaVuSerif-30"/>
      </g>
     </g>
    </g>
    <g id="ytick_9">
     <g id="line2d_51">
      <path d="M 303.076851 153.699599 
L 494.665785 153.699599 
" clip-path="url(#p422f7028d7)" style="fill: none; stroke-dasharray: 2.96,1.28; stroke-dashoffset: 0; stroke: #b0b0b0; stroke-opacity: 0.5; stroke-width: 0.8"/>
     </g>
     <g id="line2d_52">
      <g>
       <use xlink:href="#m685fc3ec3a" x="303.076851" y="153.699599" style="stroke: #000000; stroke-width: 0.8"/>
      </g>
     </g>
     <g id="text_30">
      <!-- 50 -->
      <g transform="translate(284.624351 157.118896) scale(0.09 -0.09)">
       <use xlink:href="#DejaVuSerif-35"/>
       <use xlink:href="#DejaVuSerif-30" x="63.623047"/>
      </g>
     </g>
    </g>
    <g id="ytick_10">
     <g id="line2d_53">
      <path d="M 303.076851 125.916754 
L 494.665785 125.916754 
" clip-path="url(#p422f7028d7)" style="fill: none; stroke-dasharray: 2.96,1.28; stroke-dashoffset: 0; stroke: #b0b0b0; stroke-opacity: 0.5; stroke-width: 0.8"/>
     </g>
     <g id="line2d_54">
      <g>
       <use xlink:href="#m685fc3ec3a" x="303.076851" y="125.916754" style="stroke: #000000; stroke-width: 0.8"/>
      </g>
     </g>
     <g id="text_31">
      <!-- 100 -->
      <g transform="translate(278.898101 129.336051) scale(0.09 -0.09)">
       <use xlink:href="#DejaVuSerif-31"/>
       <use xlink:href="#DejaVuSerif-30" x="63.623047"/>
       <use xlink:href="#DejaVuSerif-30" x="127.246094"/>
      </g>
     </g>
    </g>
    <g id="ytick_11">
     <g id="line2d_55">
      <path d="M 303.076851 98.13391 
L 494.665785 98.13391 
" clip-path="url(#p422f7028d7)" style="fill: none; stroke-dasharray: 2.96,1.28; stroke-dashoffset: 0; stroke: #b0b0b0; stroke-opacity: 0.5; stroke-width: 0.8"/>
     </g>
     <g id="line2d_56">
      <g>
       <use xlink:href="#m685fc3ec3a" x="303.076851" y="98.13391" style="stroke: #000000; stroke-width: 0.8"/>
      </g>
     </g>
     <g id="text_32">
      <!-- 150 -->
      <g transform="translate(278.898101 101.553207) scale(0.09 -0.09)">
       <use xlink:href="#DejaVuSerif-31"/>
       <use xlink:href="#DejaVuSerif-35" x="63.623047"/>
       <use xlink:href="#DejaVuSerif-30" x="127.246094"/>
      </g>
     </g>
    </g>
    <g id="ytick_12">
     <g id="line2d_57">
      <path d="M 303.076851 70.351065 
L 494.665785 70.351065 
" clip-path="url(#p422f7028d7)" style="fill: none; stroke-dasharray: 2.96,1.28; stroke-dashoffset: 0; stroke: #b0b0b0; stroke-opacity: 0.5; stroke-width: 0.8"/>
     </g>
     <g id="line2d_58">
      <g>
       <use xlink:href="#m685fc3ec3a" x="303.076851" y="70.351065" style="stroke: #000000; stroke-width: 0.8"/>
      </g>
     </g>
     <g id="text_33">
      <!-- 200 -->
      <g transform="translate(278.898101 73.770362) scale(0.09 -0.09)">
       <use xlink:href="#DejaVuSerif-32"/>
       <use xlink:href="#DejaVuSerif-30" x="63.623047"/>
       <use xlink:href="#DejaVuSerif-30" x="127.246094"/>
      </g>
     </g>
    </g>
    <g id="ytick_13">
     <g id="line2d_59">
      <path d="M 303.076851 42.568221 
L 494.665785 42.568221 
" clip-path="url(#p422f7028d7)" style="fill: none; stroke-dasharray: 2.96,1.28; stroke-dashoffset: 0; stroke: #b0b0b0; stroke-opacity: 0.5; stroke-width: 0.8"/>
     </g>
     <g id="line2d_60">
      <g>
       <use xlink:href="#m685fc3ec3a" x="303.076851" y="42.568221" style="stroke: #000000; stroke-width: 0.8"/>
      </g>
     </g>
     <g id="text_34">
      <!-- 250 -->
      <g transform="translate(278.898101 45.987518) scale(0.09 -0.09)">
       <use xlink:href="#DejaVuSerif-32"/>
       <use xlink:href="#DejaVuSerif-35" x="63.623047"/>
       <use xlink:href="#DejaVuSerif-30" x="127.246094"/>
      </g>
     </g>
    </g>
    <g id="text_35">
     <!-- Position Error [meters] -->
     <g transform="translate(272.610445 172.103125) rotate(-90) scale(0.11 -0.11)">
      <use xlink:href="#DejaVuSerif-50"/>
      <use xlink:href="#DejaVuSerif-6f" x="63.285156"/>
      <use xlink:href="#DejaVuSerif-73" x="123.490234"/>
      <use xlink:href="#DejaVuSerif-69" x="174.808594"/>
      <use xlink:href="#DejaVuSerif-74" x="206.791016"/>
      <use xlink:href="#DejaVuSerif-69" x="246.976562"/>
      <use xlink:href="#DejaVuSerif-6f" x="278.958984"/>
      <use xlink:href="#DejaVuSerif-6e" x="339.164062"/>
      <use xlink:href="#DejaVuSerif-20" x="403.568359"/>
      <use xlink:href="#DejaVuSerif-45" x="435.355469"/>
      <use xlink:href="#DejaVuSerif-72" x="508.353516"/>
      <use xlink:href="#DejaVuSerif-72" x="556.15625"/>
      <use xlink:href="#DejaVuSerif-6f" x="603.958984"/>
      <use xlink:href="#DejaVuSerif-72" x="664.164062"/>
      <use xlink:href="#DejaVuSerif-20" x="711.966797"/>
      <use xlink:href="#DejaVuSerif-5b" x="743.753906"/>
      <use xlink:href="#DejaVuSerif-6d" x="782.767578"/>
      <use xlink:href="#DejaVuSerif-65" x="877.591797"/>
      <use xlink:href="#DejaVuSerif-74" x="936.771484"/>
      <use xlink:href="#DejaVuSerif-65" x="976.957031"/>
      <use xlink:href="#DejaVuSerif-72" x="1036.136719"/>
      <use xlink:href="#DejaVuSerif-73" x="1083.939453"/>
      <use xlink:href="#DejaVuSerif-5d" x="1135.257812"/>
     </g>
    </g>
   </g>
   <g id="line2d_61">
    <path d="M 311.785439 181.482443 
L 313.249067 181.482443 
L 314.712696 181.482443 
L 316.176324 181.482443 
L 317.639952 181.482443 
L 319.10358 181.482443 
L 320.567209 181.482443 
L 322.030837 181.482443 
L 323.494465 181.482443 
L 324.958093 181.482443 
L 326.421721 181.482443 
L 327.88535 181.482443 
L 329.348978 181.482443 
L 330.812606 181.482443 
L 332.276234 181.482443 
L 333.739863 181.482443 
L 335.203491 181.482443 
L 336.667119 181.482443 
L 338.130747 181.482443 
L 339.594375 181.482443 
L 341.058004 181.482443 
L 342.521632 181.482443 
L 343.98526 181.482443 
L 345.448888 181.482443 
L 346.912517 181.482443 
L 348.376145 181.482443 
L 349.839773 181.482443 
L 351.303401 181.482443 
L 352.767029 181.482443 
L 354.230658 181.482443 
L 355.694286 181.482443 
L 357.157914 181.482443 
L 358.621542 181.482443 
L 360.08517 181.482443 
L 361.548799 181.482443 
L 363.012427 181.482443 
L 364.476055 181.482443 
L 365.939683 181.482443 
L 367.403312 181.482443 
L 368.86694 181.482443 
L 370.330568 179.801464 
L 371.794196 174.758528 
L 373.257824 169.715591 
L 374.721453 164.672655 
L 376.185081 159.629718 
L 377.648709 154.586782 
L 379.112337 149.543846 
L 380.575966 144.500909 
L 382.039594 139.457973 
L 383.503222 134.415036 
L 384.96685 129.3721 
L 386.430478 124.329163 
L 387.894107 119.286227 
L 389.357735 114.24329 
L 390.821363 109.200354 
L 392.284991 104.157417 
L 393.748619 99.114481 
L 395.212248 94.071544 
L 396.675876 89.028608 
L 398.139504 83.985671 
L 399.603132 78.942735 
L 401.066761 73.899799 
L 402.530389 68.856862 
L 403.994017 63.813926 
L 405.457645 58.770989 
L 406.921273 53.728053 
L 408.384902 48.685116 
L 409.84853 43.64218 
L 411.312158 38.599243 
L 412.775786 33.556307 
L 414.239415 181.482443 
L 415.703043 181.482443 
L 417.166671 181.482443 
L 418.630299 181.482443 
L 420.093927 181.482443 
L 421.557556 181.482443 
L 423.021184 181.482443 
L 424.484812 181.482443 
L 425.94844 181.482443 
L 427.412069 181.482443 
L 428.875697 181.482443 
L 430.339325 181.482443 
L 431.802953 181.482443 
L 433.266581 181.482443 
L 434.73021 181.482443 
L 436.193838 181.482443 
L 437.657466 181.482443 
L 439.121094 181.482443 
L 440.584722 181.482443 
L 442.048351 181.482443 
L 443.511979 181.482443 
L 444.975607 181.482443 
L 446.439235 181.482443 
L 447.902864 181.482443 
L 449.366492 181.482443 
L 450.83012 181.482443 
L 452.293748 181.482443 
L 453.757376 181.482443 
L 455.221005 181.482443 
L 456.684633 181.482443 
L 458.148261 181.482443 
L 459.611889 181.482443 
L 461.075518 181.482443 
L 462.539146 181.482443 
L 464.002774 181.482443 
L 465.466402 181.482443 
L 466.93003 181.482443 
L 468.393659 181.482443 
L 469.857287 181.482443 
L 471.320915 181.482443 
L 472.784543 181.482443 
L 474.248171 181.482443 
L 475.7118 181.482443 
L 477.175428 181.482443 
L 478.639056 181.482443 
L 480.102684 181.482443 
L 481.566313 181.482443 
L 483.029941 181.482443 
L 484.493569 181.482443 
L 485.957197 181.482443 
" clip-path="url(#p422f7028d7)" style="fill: none; stroke: #ff0000; stroke-width: 2; stroke-linecap: square"/>
   </g>
   <g id="patch_10">
    <path d="M 303.076851 188.87875 
L 303.076851 26.16 
" style="fill: none; stroke: #000000; stroke-width: 0.8; stroke-linejoin: miter; stroke-linecap: square"/>
   </g>
   <g id="patch_11">
    <path d="M 494.665785 188.87875 
L 494.665785 26.16 
" style="fill: none; stroke: #000000; stroke-width: 0.8; stroke-linejoin: miter; stroke-linecap: square"/>
   </g>
   <g id="patch_12">
    <path d="M 303.076851 188.87875 
L 494.665785 188.87875 
" style="fill: none; stroke: #000000; stroke-width: 0.8; stroke-linejoin: miter; stroke-linecap: square"/>
   </g>
   <g id="patch_13">
    <path d="M 303.076851 26.16 
L 494.665785 26.16 
" style="fill: none; stroke: #000000; stroke-width: 0.8; stroke-linejoin: miter; stroke-linecap: square"/>
   </g>
   <g id="text_36">
    <!-- Real AIS Tracking Position Error -->
    <g transform="translate(288.536006 20.16) scale(0.12 -0.12)">
     <defs>
      <path id="DejaVuSerif-Bold-50" d="M 300 0 
L 300 378 
L 897 378 
L 897 4288 
L 300 4288 
L 300 4666 
L 2956 4666 
Q 3734 4666 4193 4295 
Q 4653 3925 4653 3303 
Q 4653 2678 4192 2304 
Q 3731 1931 2956 1931 
L 2100 1931 
L 2100 378 
L 2853 378 
L 2853 0 
L 300 0 
z
M 2100 2309 
L 2450 2309 
Q 2856 2309 3098 2579 
Q 3341 2850 3341 3303 
Q 3341 3753 3100 4020 
Q 2859 4288 2450 4288 
L 2100 4288 
L 2100 2309 
z
" transform="scale(0.015625)"/>
      <path id="DejaVuSerif-Bold-73" d="M 300 97 
L 300 1025 
L 653 1025 
Q 697 653 931 458 
Q 1166 263 1569 263 
Q 1906 263 2086 380 
Q 2266 497 2266 716 
Q 2266 916 2152 1025 
Q 2038 1134 1709 1216 
L 1253 1331 
Q 738 1459 506 1698 
Q 275 1938 275 2344 
Q 275 2884 650 3148 
Q 1025 3413 1806 3413 
Q 2100 3413 2433 3364 
Q 2766 3316 3169 3213 
L 3169 2375 
L 2816 2375 
Q 2788 2716 2573 2887 
Q 2359 3059 1959 3059 
Q 1622 3059 1448 2951 
Q 1275 2844 1275 2638 
Q 1275 2469 1375 2372 
Q 1475 2275 1734 2209 
L 2188 2094 
Q 2841 1928 3091 1684 
Q 3341 1441 3341 1006 
Q 3341 444 2939 176 
Q 2538 -91 1691 -91 
Q 1381 -91 1034 -44 
Q 688 3 300 97 
z
" transform="scale(0.015625)"/>
      <path id="DejaVuSerif-Bold-45" d="M 300 0 
L 300 378 
L 897 378 
L 897 4288 
L 300 4288 
L 300 4666 
L 4494 4666 
L 4494 3566 
L 4063 3566 
L 4063 4238 
L 2100 4238 
L 2100 2741 
L 3322 2741 
L 3322 3334 
L 3750 3334 
L 3750 1722 
L 3322 1722 
L 3322 2316 
L 2100 2316 
L 2100 428 
L 4122 428 
L 4122 1100 
L 4550 1100 
L 4550 0 
L 300 0 
z
" transform="scale(0.015625)"/>
     </defs>
     <use xlink:href="#DejaVuSerif-Bold-52"/>
     <use xlink:href="#DejaVuSerif-Bold-65" x="83.105469"/>
     <use xlink:href="#DejaVuSerif-Bold-61" x="146.728516"/>
     <use xlink:href="#DejaVuSerif-Bold-6c" x="211.523438"/>
     <use xlink:href="#DejaVuSerif-Bold-20" x="249.511719"/>
     <use xlink:href="#DejaVuSerif-Bold-41" x="284.326172"/>
     <use xlink:href="#DejaVuSerif-Bold-49" x="361.914062"/>
     <use xlink:href="#DejaVuSerif-Bold-53" x="408.691406"/>
     <use xlink:href="#DejaVuSerif-Bold-20" x="480.908203"/>
     <use xlink:href="#DejaVuSerif-Bold-54" x="515.722656"/>
     <use xlink:href="#DejaVuSerif-Bold-72" x="582.886719"/>
     <use xlink:href="#DejaVuSerif-Bold-61" x="635.572266"/>
     <use xlink:href="#DejaVuSerif-Bold-63" x="700.367188"/>
     <use xlink:href="#DejaVuSerif-Bold-6b" x="761.255859"/>
     <use xlink:href="#DejaVuSerif-Bold-69" x="830.542969"/>
     <use xlink:href="#DejaVuSerif-Bold-6e" x="868.53125"/>
     <use xlink:href="#DejaVuSerif-Bold-67" x="941.236328"/>
     <use xlink:href="#DejaVuSerif-Bold-20" x="1011.158203"/>
     <use xlink:href="#DejaVuSerif-Bold-50" x="1045.972656"/>
     <use xlink:href="#DejaVuSerif-Bold-6f" x="1118.542969"/>
     <use xlink:href="#DejaVuSerif-Bold-73" x="1185.242188"/>
     <use xlink:href="#DejaVuSerif-Bold-69" x="1241.541016"/>
     <use xlink:href="#DejaVuSerif-Bold-74" x="1279.529297"/>
     <use xlink:href="#DejaVuSerif-Bold-69" x="1325.720703"/>
     <use xlink:href="#DejaVuSerif-Bold-6f" x="1363.708984"/>
     <use xlink:href="#DejaVuSerif-Bold-6e" x="1430.408203"/>
     <use xlink:href="#DejaVuSerif-Bold-20" x="1503.113281"/>
     <use xlink:href="#DejaVuSerif-Bold-45" x="1537.927734"/>
     <use xlink:href="#DejaVuSerif-Bold-72" x="1614.148438"/>
     <use xlink:href="#DejaVuSerif-Bold-72" x="1666.833984"/>
     <use xlink:href="#DejaVuSerif-Bold-6f" x="1719.519531"/>
     <use xlink:href="#DejaVuSerif-Bold-72" x="1786.21875"/>
    </g>
   </g>
   <g id="legend_2">
    <g id="patch_14">
     <path d="M 382.257269 57.912813 
L 488.715785 57.912813 
Q 490.415785 57.912813 490.415785 56.212813 
L 490.415785 32.11 
Q 490.415785 30.41 488.715785 30.41 
L 382.257269 30.41 
Q 380.557269 30.41 380.557269 32.11 
L 380.557269 56.212813 
Q 380.557269 57.912813 382.257269 57.912813 
z
" style="fill: #ffffff; opacity: 0.8; stroke: #cccccc; stroke-linejoin: miter"/>
    </g>
    <g id="line2d_62">
     <path d="M 383.957269 37.293672 
L 392.457269 37.293672 
L 400.957269 37.293672 
" style="fill: none; stroke: #ff0000; stroke-width: 2; stroke-linecap: square"/>
    </g>
    <g id="text_37">
     <!-- Position Error [m] -->
     <g transform="translate(407.757269 40.268672) scale(0.085 -0.085)">
      <use xlink:href="#DejaVuSerif-50"/>
      <use xlink:href="#DejaVuSerif-6f" x="63.285156"/>
      <use xlink:href="#DejaVuSerif-73" x="123.490234"/>
      <use xlink:href="#DejaVuSerif-69" x="174.808594"/>
      <use xlink:href="#DejaVuSerif-74" x="206.791016"/>
      <use xlink:href="#DejaVuSerif-69" x="246.976562"/>
      <use xlink:href="#DejaVuSerif-6f" x="278.958984"/>
      <use xlink:href="#DejaVuSerif-6e" x="339.164062"/>
      <use xlink:href="#DejaVuSerif-20" x="403.568359"/>
      <use xlink:href="#DejaVuSerif-45" x="435.355469"/>
      <use xlink:href="#DejaVuSerif-72" x="508.353516"/>
      <use xlink:href="#DejaVuSerif-72" x="556.15625"/>
      <use xlink:href="#DejaVuSerif-6f" x="603.958984"/>
      <use xlink:href="#DejaVuSerif-72" x="664.164062"/>
      <use xlink:href="#DejaVuSerif-20" x="711.966797"/>
      <use xlink:href="#DejaVuSerif-5b" x="743.753906"/>
      <use xlink:href="#DejaVuSerif-6d" x="782.767578"/>
      <use xlink:href="#DejaVuSerif-5d" x="877.591797"/>
     </g>
    </g>
    <g id="patch_15">
     <path d="M 383.957269 52.745078 
L 400.957269 52.745078 
L 400.957269 46.795078 
L 383.957269 46.795078 
z
" style="fill: #ff0000; opacity: 0.15; stroke: #ff0000; stroke-linejoin: miter"/>
    </g>
    <g id="text_38">
     <!-- 300s AIS Blackout -->
     <g transform="translate(407.757269 52.745078) scale(0.085 -0.085)">
      <defs>
       <path id="DejaVuSerif-42" d="M 1581 331 
L 2516 331 
Q 3078 331 3337 575 
Q 3597 819 3597 1350 
Q 3597 1878 3339 2120 
Q 3081 2363 2516 2363 
L 1581 2363 
L 1581 331 
z
M 1581 2694 
L 2375 2694 
Q 2888 2694 3123 2891 
Q 3359 3088 3359 3513 
Q 3359 3941 3123 4136 
Q 2888 4331 2375 4331 
L 1581 4331 
L 1581 2694 
z
M 353 0 
L 353 331 
L 947 331 
L 947 4331 
L 353 4331 
L 353 4666 
L 2656 4666 
Q 3363 4666 3720 4377 
Q 4078 4088 4078 3513 
Q 4078 3097 3829 2850 
Q 3581 2603 3103 2547 
Q 3697 2472 4005 2167 
Q 4313 1863 4313 1350 
Q 4313 656 3875 328 
Q 3438 0 2509 0 
L 353 0 
z
" transform="scale(0.015625)"/>
      </defs>
      <use xlink:href="#DejaVuSerif-33"/>
      <use xlink:href="#DejaVuSerif-30" x="63.623047"/>
      <use xlink:href="#DejaVuSerif-30" x="127.246094"/>
      <use xlink:href="#DejaVuSerif-73" x="190.869141"/>
      <use xlink:href="#DejaVuSerif-20" x="242.1875"/>
      <use xlink:href="#DejaVuSerif-41" x="273.974609"/>
      <use xlink:href="#DejaVuSerif-49" x="346.191406"/>
      <use xlink:href="#DejaVuSerif-53" x="385.693359"/>
      <use xlink:href="#DejaVuSerif-20" x="454.199219"/>
      <use xlink:href="#DejaVuSerif-42" x="485.986328"/>
      <use xlink:href="#DejaVuSerif-6c" x="559.472656"/>
      <use xlink:href="#DejaVuSerif-61" x="591.455078"/>
      <use xlink:href="#DejaVuSerif-63" x="651.074219"/>
      <use xlink:href="#DejaVuSerif-6b" x="707.080078"/>
      <use xlink:href="#DejaVuSerif-6f" x="767.675781"/>
      <use xlink:href="#DejaVuSerif-75" x="827.880859"/>
      <use xlink:href="#DejaVuSerif-74" x="892.285156"/>
     </g>
    </g>
   </g>
  </g>
 </g>
 <defs>
  <clipPath id="p54a5e1c693">
   <rect x="60.68" y="26.16" width="191.588934" height="162.71875"/>
  </clipPath>
  <clipPath id="p422f7028d7">
   <rect x="303.076851" y="26.16" width="191.588934" height="162.71875"/>
  </clipPath>
 </defs>
</svg>
