<?xml version="1.0" encoding="utf-8" standalone="no"?>
<!DOCTYPE svg PUBLIC "-//W3C//DTD SVG 1.1//EN"
  "http://www.w3.org/Graphics/SVG/1.1/DTD/svg11.dtd">
<svg xmlns:xlink="http://www.w3.org/1999/xlink" width="515.52pt" height="252pt" viewBox="0 0 515.52 252" xmlns="http://www.w3.org/2000/svg" version="1.1">
 <metadata>
  <rdf:RDF xmlns:dc="http://purl.org/dc/elements/1.1/" xmlns:cc="http://creativecommons.org/ns#" xmlns:rdf="http://www.w3.org/1999/02/22-rdf-syntax-ns#">
   <cc:Work>
    <dc:type rdf:resource="http://purl.org/dc/dcmitype/StillImage"/>
    <dc:date>2026-07-29T17:44:24.184791</dc:date>
    <dc:format>image/svg+xml</dc:format>
    <dc:creator>
     <cc:Agent>
      <dc:title>Matplotlib v3.8.4, https://matplotlib.org/</dc:title>
     </cc:Agent>
    </dc:creator>
   </cc:Work>
  </rdf:RDF>
 </metadata>
 <defs>
  <style type="text/css">*{stroke-linejoin: round; stroke-linecap: butt}</style>
 </defs>
 <g id="figure_1">
  <g id="patch_1">
   <path d="M 0 252 
L 515.52 252 
L 515.52 0 
L 0 0 
z
" style="fill: #ffffff"/>
  </g>
  <g id="axes_1">
   <g id="patch_2">
    <path d="M 48.29 213.52 
L 505.8 213.52 
L 505.8 23.88 
L 48.29 23.88 
z
" style="fill: #ffffff"/>
   </g>
   <g id="PolyCollection_1">
    <defs>
     <path id="meb16436e4f" d="M 69.085909 -65.65635 
L 69.085909 -47.1 
L 69.919412 -48.851152 
L 70.752916 -50.58067 
L 71.586419 -52.288822 
L 72.419923 -53.975873 
L 73.253426 -55.642085 
L 74.086929 -57.287716 
L 74.920433 -58.913021 
L 75.753936 -60.518251 
L 76.587439 -62.103657 
L 77.420943 -63.669482 
L 78.254446 -65.215971 
L 79.08795 -66.743362 
L 79.921453 -68.251893 
L 80.754956 -69.741797 
L 81.58846 -71.213305 
L 82.421963 -72.666644 
L 83.255466 -74.102041 
L 84.08897 -75.519717 
L 84.922473 -76.919891 
L 85.755976 -78.302782 
L 86.58948 -79.668602 
L 87.422983 -81.017564 
L 88.256487 -82.349876 
L 89.08999 -83.665745 
L 89.923493 -84.965374 
L 90.756997 -86.248965 
L 91.5905 -87.516716 
L 92.424003 -88.768823 
L 93.257507 -90.005481 
L 94.09101 -91.22688 
L 94.924514 -92.43321 
L 95.758017 -93.624658 
L 96.59152 -94.801407 
L 97.425024 -95.96364 
L 98.258527 -97.111537 
L 99.09203 -98.245274 
L 99.925534 -99.365029 
L 100.759037 -100.470973 
L 101.592541 -101.563278 
L 102.426044 -102.642113 
L 103.259547 -103.707645 
L 104.093051 -104.760038 
L 104.926554 -105.799455 
L 105.760057 -106.826057 
L 106.593561 -107.840003 
L 107.427064 -108.841449 
L 108.260567 -109.83055 
L 109.094071 -110.807459 
L 109.927574 -111.772326 
L 110.761078 -112.725302 
L 111.594581 -113.666533 
L 112.428084 -114.596165 
L 113.261588 -115.514342 
L 114.095091 -116.421204 
L 114.928594 -117.316893 
L 115.762098 -118.201546 
L 116.595601 -119.075301 
L 117.429105 -119.938292 
L 118.262608 -120.790652 
L 119.096111 -121.632513 
L 119.929615 -122.464006 
L 120.763118 -123.285257 
L 121.596621 -124.096395 
L 122.430125 -124.897545 
L 123.263628 -125.688829 
L 124.097132 -126.47037 
L 124.930635 -127.24229 
L 125.764138 -128.004706 
L 126.597642 -128.757736 
L 127.431145 -129.501497 
L 128.264648 -130.236103 
L 129.098152 -130.961668 
L 129.931655 -131.678304 
L 130.765158 -132.38612 
L 131.598662 -133.085227 
L 132.432165 -133.775732 
L 133.265669 -134.457741 
L 134.099172 -135.131359 
L 134.932675 -135.796691 
L 135.766179 -136.453839 
L 136.599682 -137.102904 
L 137.433185 -137.743986 
L 138.266689 -138.377184 
L 139.100192 -139.002595 
L 139.933696 -139.620316 
L 140.767199 -140.230442 
L 141.600702 -140.833067 
L 142.434206 -141.428284 
L 143.267709 -142.016184 
L 144.101212 -142.596857 
L 144.934716 -143.170394 
L 145.768219 -143.736882 
L 146.601723 -144.296409 
L 147.435226 -144.849061 
L 148.268729 -145.394923 
L 149.102233 -145.934078 
L 149.935736 -146.46661 
L 150.769239 -146.992601 
L 151.602743 -147.512131 
L 152.436246 -148.02528 
L 153.269749 -148.532128 
L 154.103253 -149.032751 
L 154.936756 -149.527228 
L 155.77026 -150.015634 
L 156.603763 -150.498045 
L 157.437266 -150.974533 
L 158.27077 -151.445173 
L 159.104273 -151.910037 
L 159.937776 -152.369197 
L 160.77128 -152.822721 
L 161.604783 -153.270682 
L 162.438287 -153.713146 
L 163.27179 -154.150183 
L 164.105293 -154.581858 
L 164.938797 -155.00824 
L 165.7723 -155.429392 
L 166.605803 -155.845379 
L 167.439307 -156.256266 
L 168.27281 -156.662115 
L 169.106314 -157.062989 
L 169.939817 -157.458949 
L 170.77332 -157.850055 
L 171.606824 -158.236368 
L 172.440327 -158.617948 
L 173.27383 -158.994851 
L 174.107334 -159.367137 
L 174.940837 -159.734862 
L 175.77434 -160.098083 
L 176.607844 -160.456855 
L 177.441347 -160.811233 
L 178.274851 -161.161271 
L 179.108354 -161.507024 
L 179.941857 -161.848543 
L 180.775361 -162.185882 
L 181.608864 -162.519091 
L 182.442367 -162.848222 
L 183.275871 -163.173326 
L 184.109374 -163.494451 
L 184.942878 -163.811648 
L 185.776381 -164.124964 
L 186.609884 -164.434447 
L 187.443388 -164.740146 
L 188.276891 -165.042105 
L 189.110394 -165.340373 
L 189.943898 -165.634993 
L 190.777401 -165.926012 
L 191.610905 -166.213474 
L 192.444408 -166.497422 
L 193.277911 -166.7779 
L 194.111415 -167.054951 
L 194.944918 -167.328616 
L 195.778421 -167.598939 
L 196.611925 -167.86596 
L 197.445428 -168.129719 
L 198.278931 -168.390258 
L 199.112435 -168.647615 
L 199.945938 -168.90183 
L 200.779442 -169.152942 
L 201.612945 -169.400989 
L 202.446448 -169.646009 
L 203.279952 -169.888039 
L 204.113455 -170.127116 
L 204.946958 -170.363277 
L 205.780462 -170.596557 
L 206.613965 -170.826992 
L 207.447469 -171.054617 
L 208.280972 -171.279467 
L 209.114475 -171.501575 
L 209.947979 -171.720977 
L 210.781482 -171.937704 
L 211.614985 -172.15179 
L 212.448489 -172.363268 
L 213.281992 -172.57217 
L 214.115496 -172.778527 
L 214.948999 -172.98237 
L 215.782502 -173.183732 
L 216.616006 -173.382642 
L 217.449509 -173.579131 
L 218.283012 -173.773227 
L 219.116516 -173.964962 
L 219.950019 -174.154364 
L 220.783522 -174.341462 
L 221.617026 -174.526283 
L 222.450529 -174.708857 
L 223.284033 -174.88921 
L 224.117536 -175.067371 
L 224.951039 -175.243366 
L 225.784543 -175.417221 
L 226.618046 -175.588964 
L 227.451549 -175.75862 
L 228.285053 -175.926215 
L 229.118556 -176.091774 
L 229.95206 -176.255322 
L 230.785563 -176.416885 
L 231.619066 -176.576486 
L 232.45257 -176.734149 
L 233.286073 -176.889899 
L 234.119576 -177.043759 
L 234.95308 -177.195752 
L 235.786583 -177.345902 
L 236.620087 -177.49423 
L 237.45359 -177.64076 
L 238.287093 -177.785513 
L 239.120597 -177.928511 
L 239.9541 -178.069777 
L 240.787603 -178.20933 
L 241.621107 -178.347193 
L 242.45461 -178.483385 
L 243.288113 -178.617929 
L 244.121617 -178.750843 
L 244.95512 -178.882148 
L 245.788624 -179.011863 
L 246.622127 -179.140009 
L 247.45563 -179.266605 
L 248.289134 -179.391668 
L 249.122637 -179.515219 
L 249.95614 -179.637277 
L 250.789644 -179.757858 
L 251.623147 -179.876982 
L 252.456651 -179.994666 
L 253.290154 -180.110928 
L 254.123657 -180.225785 
L 254.957161 -180.339256 
L 255.790664 -180.451356 
L 256.624167 -180.562102 
L 257.457671 -180.671512 
L 258.291174 -180.779602 
L 259.124678 -180.886387 
L 259.958181 -180.991884 
L 260.791684 -181.096109 
L 261.625188 -181.199077 
L 262.458691 -181.300804 
L 263.292194 -181.401304 
L 264.125698 -181.500594 
L 264.959201 -181.598687 
L 265.792704 -181.695599 
L 266.626208 -181.791344 
L 267.459711 -181.885936 
L 268.293215 -181.979389 
L 269.126718 -182.071718 
L 269.960221 -182.162936 
L 270.793725 -182.253057 
L 271.627228 -182.342094 
L 272.460731 -182.430061 
L 273.294235 -182.51697 
L 274.127738 -182.602835 
L 274.961242 -182.687669 
L 275.794745 -182.771483 
L 276.628248 -182.854291 
L 277.461752 -182.936105 
L 278.295255 -183.016937 
L 279.128758 -183.096798 
L 279.962262 -183.175702 
L 280.795765 -183.25366 
L 281.629269 -183.330683 
L 282.462772 -183.406782 
L 283.296275 -183.481969 
L 284.129779 -183.556256 
L 284.963282 -183.629653 
L 285.796785 -183.702171 
L 286.630289 -183.773821 
L 287.463792 -183.844613 
L 288.297296 -183.914558 
L 289.130799 -183.983666 
L 289.964302 -184.051948 
L 290.797806 -184.119414 
L 291.631309 -184.186073 
L 292.464812 -184.251936 
L 293.298316 -184.317012 
L 294.131819 -184.381311 
L 294.965322 -184.444842 
L 295.798826 -184.507615 
L 296.632329 -184.569639 
L 297.465833 -184.630923 
L 298.299336 -184.691476 
L 299.132839 -184.751308 
L 299.966343 -184.810426 
L 300.799846 -184.86884 
L 301.633349 -184.926558 
L 302.466853 -184.983589 
L 303.300356 -185.039941 
L 304.13386 -185.095622 
L 304.967363 -185.150641 
L 305.800866 -185.205006 
L 306.63437 -185.258724 
L 307.467873 -185.311804 
L 308.301376 -185.364253 
L 309.13488 -185.416079 
L 309.968383 -185.46729 
L 310.801887 -185.517892 
L 311.63539 -185.567895 
L 312.468893 -185.617304 
L 313.302397 -185.666127 
L 314.1359 -185.714372 
L 314.969403 -185.762044 
L 315.802907 -185.809152 
L 316.63641 -185.855702 
L 317.469913 -185.901701 
L 318.303417 -185.947156 
L 319.13692 -205.941527 
L 319.970424 -205.948647 
L 320.803927 -205.955692 
L 321.63743 -205.96266 
L 322.470934 -205.969555 
L 323.304437 -205.976376 
L 324.13794 -205.983125 
L 324.971444 -205.989803 
L 325.804947 -205.996411 
L 326.638451 -206.002949 
L 327.471954 -206.009419 
L 328.305457 -206.015821 
L 329.138961 -206.022157 
L 329.972464 -206.028427 
L 330.805967 -206.034633 
L 331.639471 -206.040774 
L 332.472974 -206.046853 
L 333.306478 -206.052869 
L 334.139981 -206.058825 
L 334.973484 -206.064719 
L 335.806988 -206.070554 
L 336.640491 -206.076331 
L 337.473994 -206.082049 
L 338.307498 -206.087709 
L 339.141001 -206.093314 
L 339.974504 -206.098862 
L 340.808008 -206.104355 
L 341.641511 -206.109794 
L 342.475015 -206.11518 
L 343.308518 -206.120512 
L 344.142021 -206.125793 
L 344.975525 -206.131021 
L 345.809028 -206.136199 
L 346.642531 -206.141327 
L 347.476035 -206.146405 
L 348.309538 -206.151434 
L 349.143042 -206.156415 
L 349.976545 -206.161348 
L 350.810048 -206.166234 
L 351.643552 -206.171074 
L 352.477055 -206.175868 
L 353.310558 -206.180617 
L 354.144062 -206.185321 
L 354.977565 -206.189981 
L 355.811069 -206.194598 
L 356.644572 -206.199171 
L 357.478075 -206.203702 
L 358.311579 -206.208191 
L 359.145082 -206.212639 
L 359.978585 -206.217046 
L 360.812089 -206.221412 
L 361.645592 -206.225739 
L 362.479095 -206.230027 
L 363.312599 -206.234275 
L 364.146102 -206.238485 
L 364.979606 -206.242658 
L 365.813109 -206.246792 
L 366.646612 -206.25089 
L 367.480116 -206.254952 
L 368.313619 -206.258977 
L 369.147122 -206.262967 
L 369.980626 -206.266921 
L 370.814129 -206.270841 
L 371.647633 -206.274726 
L 372.481136 -206.278578 
L 373.314639 -206.282396 
L 374.148143 -206.286181 
L 374.981646 -206.289933 
L 375.815149 -206.293653 
L 376.648653 -206.297341 
L 377.482156 -206.300997 
L 378.31566 -206.304622 
L 379.149163 -206.308217 
L 379.982666 -206.311781 
L 380.81617 -206.315315 
L 381.649673 -206.318819 
L 382.483176 -206.322294 
L 383.31668 -206.325739 
L 384.150183 -206.329156 
L 384.983686 -206.332545 
L 385.81719 -206.335906 
L 386.650693 -206.339239 
L 387.484197 -206.342544 
L 388.3177 -206.345823 
L 389.151203 -206.349074 
L 389.984707 -206.352299 
L 390.81821 -206.355498 
L 391.651713 -206.358672 
L 392.485217 -206.361819 
L 393.31872 -206.364942 
L 394.152224 -206.368039 
L 394.985727 -206.371111 
L 395.81923 -206.37416 
L 396.652734 -206.377184 
L 397.486237 -206.380184 
L 398.31974 -206.38316 
L 399.153244 -206.386113 
L 399.986747 -206.389043 
L 400.820251 -206.39195 
L 401.653754 -206.394835 
L 402.487257 -206.397697 
L 403.320761 -206.400537 
L 404.154264 -206.403355 
L 404.987767 -206.406151 
L 405.821271 -206.408926 
L 406.654774 -206.41168 
L 407.488277 -206.414413 
L 408.321781 -206.417125 
L 409.155284 -206.419817 
L 409.988788 -206.422488 
L 410.822291 -206.42514 
L 411.655794 -206.427771 
L 412.489298 -206.430383 
L 413.322801 -206.432975 
L 414.156304 -206.435548 
L 414.989808 -206.438102 
L 415.823311 -206.440637 
L 416.656815 -206.443154 
L 417.490318 -206.445652 
L 418.323821 -206.448132 
L 419.157325 -206.450594 
L 419.990828 -206.453037 
L 420.824331 -206.455463 
L 421.657835 -206.457872 
L 422.491338 -206.460263 
L 423.324842 -206.462637 
L 424.158345 -206.464994 
L 424.991848 -206.467334 
L 425.825352 -206.469658 
L 426.658855 -206.471965 
L 427.492358 -206.474255 
L 428.325862 -206.47653 
L 429.159365 -206.478788 
L 429.992868 -206.481031 
L 430.826372 -206.483257 
L 431.659875 -206.485469 
L 432.493379 -206.487664 
L 433.326882 -206.489845 
L 434.160385 -206.49201 
L 434.993889 -206.494161 
L 435.827392 -206.496297 
L 436.660895 -206.498418 
L 437.494399 -206.500524 
L 438.327902 -206.502616 
L 439.161406 -206.504694 
L 439.994909 -206.506758 
L 440.828412 -206.508807 
L 441.661916 -206.510843 
L 442.495419 -206.512865 
L 443.328922 -206.514874 
L 444.162426 -206.516869 
L 444.995929 -206.51885 
L 445.829433 -206.520818 
L 446.662936 -206.522774 
L 447.496439 -206.524716 
L 448.329943 -206.526645 
L 449.163446 -206.528562 
L 449.996949 -206.530466 
L 450.830453 -206.532357 
L 451.663956 -206.534236 
L 452.497459 -206.536103 
L 453.330963 -206.537958 
L 454.164466 -206.5398 
L 454.99797 -206.54163 
L 455.831473 -206.543449 
L 456.664976 -206.545256 
L 457.49848 -206.547051 
L 458.331983 -206.548834 
L 459.165486 -206.550606 
L 459.99899 -206.552367 
L 460.832493 -206.554117 
L 461.665997 -206.555855 
L 462.4995 -206.557582 
L 463.333003 -206.559298 
L 464.166507 -206.561004 
L 465.00001 -206.562698 
L 465.833513 -206.564382 
L 466.667017 -206.566055 
L 467.50052 -206.567718 
L 468.334024 -206.56937 
L 469.167527 -206.571012 
L 470.00103 -206.572644 
L 470.834534 -206.574266 
L 471.668037 -206.575877 
L 472.50154 -206.577479 
L 473.335044 -206.57907 
L 474.168547 -206.580652 
L 475.00205 -206.582224 
L 475.835554 -206.583786 
L 476.669057 -206.585338 
L 477.502561 -206.586882 
L 478.336064 -206.588415 
L 479.169567 -206.589939 
L 480.003071 -206.591454 
L 480.836574 -206.59296 
L 481.670077 -206.594457 
L 482.503581 -206.595944 
L 483.337084 -206.597423 
L 484.170588 -206.598893 
L 485.004091 -206.600353 
L 485.004091 -219.25408 
L 485.004091 -219.25408 
L 484.170588 -219.25528 
L 483.337084 -219.256484 
L 482.503581 -219.257692 
L 481.670077 -219.258905 
L 480.836574 -219.260123 
L 480.003071 -219.261345 
L 479.169567 -219.262571 
L 478.336064 -219.263802 
L 477.502561 -219.265037 
L 476.669057 -219.266277 
L 475.835554 -219.267521 
L 475.00205 -219.268769 
L 474.168547 -219.270022 
L 473.335044 -219.271279 
L 472.50154 -219.272541 
L 471.668037 -219.273807 
L 470.834534 -219.275077 
L 470.00103 -219.276352 
L 469.167527 -219.277631 
L 468.334024 -219.278915 
L 467.50052 -219.280202 
L 466.667017 -219.281495 
L 465.833513 -219.282791 
L 465.00001 -219.284092 
L 464.166507 -219.285396 
L 463.333003 -219.286706 
L 462.4995 -219.288019 
L 461.665997 -219.289337 
L 460.832493 -219.290658 
L 459.99899 -219.291984 
L 459.165486 -219.293314 
L 458.331983 -219.294649 
L 457.49848 -219.295987 
L 456.664976 -219.297329 
L 455.831473 -219.298676 
L 454.99797 -219.300026 
L 454.164466 -219.301381 
L 453.330963 -219.302739 
L 452.497459 -219.304102 
L 451.663956 -219.305468 
L 450.830453 -219.306838 
L 449.996949 -219.308213 
L 449.163446 -219.309591 
L 448.329943 -219.310972 
L 447.496439 -219.312358 
L 446.662936 -219.313747 
L 445.829433 -219.31514 
L 444.995929 -219.316537 
L 444.162426 -219.317937 
L 443.328922 -219.319341 
L 442.495419 -219.320748 
L 441.661916 -219.322159 
L 440.828412 -219.323574 
L 439.994909 -219.324992 
L 439.161406 -219.326413 
L 438.327902 -219.327837 
L 437.494399 -219.329265 
L 436.660895 -219.330696 
L 435.827392 -219.332131 
L 434.993889 -219.333568 
L 434.160385 -219.335009 
L 433.326882 -219.336452 
L 432.493379 -219.337899 
L 431.659875 -219.339348 
L 430.826372 -219.3408 
L 429.992868 -219.342256 
L 429.159365 -219.343713 
L 428.325862 -219.345174 
L 427.492358 -219.346637 
L 426.658855 -219.348103 
L 425.825352 -219.349571 
L 424.991848 -219.351042 
L 424.158345 -219.352515 
L 423.324842 -219.35399 
L 422.491338 -219.355467 
L 421.657835 -219.356947 
L 420.824331 -219.358428 
L 419.990828 -219.359912 
L 419.157325 -219.361397 
L 418.323821 -219.362884 
L 417.490318 -219.364373 
L 416.656815 -219.365864 
L 415.823311 -219.367356 
L 414.989808 -219.368849 
L 414.156304 -219.370344 
L 413.322801 -219.37184 
L 412.489298 -219.373337 
L 411.655794 -219.374836 
L 410.822291 -219.376335 
L 409.988788 -219.377835 
L 409.155284 -219.379336 
L 408.321781 -219.380837 
L 407.488277 -219.382339 
L 406.654774 -219.383841 
L 405.821271 -219.385344 
L 404.987767 -219.386847 
L 404.154264 -219.38835 
L 403.320761 -219.389852 
L 402.487257 -219.391355 
L 401.653754 -219.392857 
L 400.820251 -219.394358 
L 399.986747 -219.395859 
L 399.153244 -219.39736 
L 398.31974 -219.398859 
L 397.486237 -219.400357 
L 396.652734 -219.401854 
L 395.81923 -219.40335 
L 394.985727 -219.404844 
L 394.152224 -219.406336 
L 393.31872 -219.407827 
L 392.485217 -219.409316 
L 391.651713 -219.410802 
L 390.81821 -219.412286 
L 389.984707 -219.413768 
L 389.151203 -219.415247 
L 388.3177 -219.416723 
L 387.484197 -219.418196 
L 386.650693 -219.419665 
L 385.81719 -219.421132 
L 384.983686 -219.422594 
L 384.150183 -219.424053 
L 383.31668 -219.425507 
L 382.483176 -219.426958 
L 381.649673 -219.428404 
L 380.81617 -219.429845 
L 379.982666 -219.431281 
L 379.149163 -219.432712 
L 378.31566 -219.434138 
L 377.482156 -219.435558 
L 376.648653 -219.436972 
L 375.815149 -219.43838 
L 374.981646 -219.439781 
L 374.148143 -219.441176 
L 373.314639 -219.442564 
L 372.481136 -219.443945 
L 371.647633 -219.445318 
L 370.814129 -219.446684 
L 369.980626 -219.448042 
L 369.147122 -219.449391 
L 368.313619 -219.450732 
L 367.480116 -219.452064 
L 366.646612 -219.453386 
L 365.813109 -219.454699 
L 364.979606 -219.456003 
L 364.146102 -219.457296 
L 363.312599 -219.458578 
L 362.479095 -219.45985 
L 361.645592 -219.461111 
L 360.812089 -219.46236 
L 359.978585 -219.463597 
L 359.145082 -219.464822 
L 358.311579 -219.466034 
L 357.478075 -219.467233 
L 356.644572 -219.468419 
L 355.811069 -219.469591 
L 354.977565 -219.470749 
L 354.144062 -219.471893 
L 353.310558 -219.473021 
L 352.477055 -219.474134 
L 351.643552 -219.475231 
L 350.810048 -219.476312 
L 349.976545 -219.477376 
L 349.143042 -219.478423 
L 348.309538 -219.479452 
L 347.476035 -219.480463 
L 346.642531 -219.481455 
L 345.809028 -219.482428 
L 344.975525 -219.483382 
L 344.142021 -219.484315 
L 343.308518 -219.485228 
L 342.475015 -219.48612 
L 341.641511 -219.48699 
L 340.808008 -219.487838 
L 339.974504 -219.488662 
L 339.141001 -219.489464 
L 338.307498 -219.490241 
L 337.473994 -219.490994 
L 336.640491 -219.491722 
L 335.806988 -219.492424 
L 334.973484 -219.4931 
L 334.139981 -219.493748 
L 333.306478 -219.494369 
L 332.472974 -219.494961 
L 331.639471 -219.495525 
L 330.805967 -219.496059 
L 329.972464 -219.496562 
L 329.138961 -219.497034 
L 328.305457 -219.497475 
L 327.471954 -219.497883 
L 326.638451 -219.498257 
L 325.804947 -219.498598 
L 324.971444 -219.498904 
L 324.13794 -219.499174 
L 323.304437 -219.499407 
L 322.470934 -219.499604 
L 321.63743 -219.499762 
L 320.803927 -219.499881 
L 319.970424 -219.499961 
L 319.13692 -219.5 
L 318.303417 -199.512824 
L 317.469913 -199.474601 
L 316.63641 -199.43587 
L 315.802907 -199.396624 
L 314.969403 -199.356857 
L 314.1359 -199.316562 
L 313.302397 -199.275732 
L 312.468893 -199.23436 
L 311.63539 -199.19244 
L 310.801887 -199.149964 
L 309.968383 -199.106925 
L 309.13488 -199.063317 
L 308.301376 -199.019131 
L 307.467873 -198.974361 
L 306.63437 -198.928998 
L 305.800866 -198.883035 
L 304.967363 -198.836465 
L 304.13386 -198.78928 
L 303.300356 -198.741472 
L 302.466853 -198.693032 
L 301.633349 -198.643954 
L 300.799846 -198.594227 
L 299.966343 -198.543845 
L 299.132839 -198.492799 
L 298.299336 -198.441081 
L 297.465833 -198.388681 
L 296.632329 -198.335591 
L 295.798826 -198.281803 
L 294.965322 -198.227306 
L 294.131819 -198.172093 
L 293.298316 -198.116154 
L 292.464812 -198.05948 
L 291.631309 -198.002061 
L 290.797806 -197.943888 
L 289.964302 -197.884951 
L 289.130799 -197.82524 
L 288.297296 -197.764746 
L 287.463792 -197.703459 
L 286.630289 -197.641367 
L 285.796785 -197.578462 
L 284.963282 -197.514733 
L 284.129779 -197.450168 
L 283.296275 -197.384758 
L 282.462772 -197.318492 
L 281.629269 -197.251359 
L 280.795765 -197.183347 
L 279.962262 -197.114445 
L 279.128758 -197.044643 
L 278.295255 -196.973928 
L 277.461752 -196.902289 
L 276.628248 -196.829715 
L 275.794745 -196.756192 
L 274.961242 -196.681709 
L 274.127738 -196.606255 
L 273.294235 -196.529815 
L 272.460731 -196.452379 
L 271.627228 -196.373933 
L 270.793725 -196.294464 
L 269.960221 -196.213959 
L 269.126718 -196.132405 
L 268.293215 -196.049789 
L 267.459711 -195.966097 
L 266.626208 -195.881315 
L 265.792704 -195.795429 
L 264.959201 -195.708427 
L 264.125698 -195.620292 
L 263.292194 -195.531011 
L 262.458691 -195.440569 
L 261.625188 -195.348951 
L 260.791684 -195.256143 
L 259.958181 -195.162129 
L 259.124678 -195.066894 
L 258.291174 -194.970422 
L 257.457671 -194.872697 
L 256.624167 -194.773704 
L 255.790664 -194.673427 
L 254.957161 -194.571848 
L 254.123657 -194.468953 
L 253.290154 -194.364722 
L 252.456651 -194.259141 
L 251.623147 -194.152191 
L 250.789644 -194.043855 
L 249.95614 -193.934116 
L 249.122637 -193.822955 
L 248.289134 -193.710355 
L 247.45563 -193.596297 
L 246.622127 -193.480763 
L 245.788624 -193.363734 
L 244.95512 -193.245191 
L 244.121617 -193.125114 
L 243.288113 -193.003484 
L 242.45461 -192.880282 
L 241.621107 -192.755487 
L 240.787603 -192.62908 
L 239.9541 -192.501039 
L 239.120597 -192.371344 
L 238.287093 -192.239974 
L 237.45359 -192.106907 
L 236.620087 -191.972122 
L 235.786583 -191.835598 
L 234.95308 -191.697312 
L 234.119576 -191.557241 
L 233.286073 -191.415363 
L 232.45257 -191.271656 
L 231.619066 -191.126095 
L 230.785563 -190.978658 
L 229.95206 -190.82932 
L 229.118556 -190.678057 
L 228.285053 -190.524845 
L 227.451549 -190.36966 
L 226.618046 -190.212475 
L 225.784543 -190.053266 
L 224.951039 -189.892007 
L 224.117536 -189.728672 
L 223.284033 -189.563235 
L 222.450529 -189.395668 
L 221.617026 -189.225946 
L 220.783522 -189.05404 
L 219.950019 -188.879923 
L 219.116516 -188.703566 
L 218.283012 -188.524942 
L 217.449509 -188.344022 
L 216.616006 -188.160776 
L 215.782502 -187.975175 
L 214.948999 -187.787189 
L 214.115496 -187.596788 
L 213.281992 -187.403941 
L 212.448489 -187.208617 
L 211.614985 -187.010785 
L 210.781482 -186.810413 
L 209.947979 -186.607469 
L 209.114475 -186.401919 
L 208.280972 -186.193732 
L 207.447469 -185.982874 
L 206.613965 -185.76931 
L 205.780462 -185.553007 
L 204.946958 -185.33393 
L 204.113455 -185.112043 
L 203.279952 -184.887312 
L 202.446448 -184.659699 
L 201.612945 -184.429169 
L 200.779442 -184.195684 
L 199.945938 -183.959207 
L 199.112435 -183.7197 
L 198.278931 -183.477125 
L 197.445428 -183.231443 
L 196.611925 -182.982615 
L 195.778421 -182.7306 
L 194.944918 -182.475358 
L 194.111415 -182.216849 
L 193.277911 -181.955031 
L 192.444408 -181.689862 
L 191.610905 -181.421299 
L 190.777401 -181.149301 
L 189.943898 -180.873822 
L 189.110394 -180.59482 
L 188.276891 -180.312249 
L 187.443388 -180.026064 
L 186.609884 -179.73622 
L 185.776381 -179.44267 
L 184.942878 -179.145368 
L 184.109374 -178.844265 
L 183.275871 -178.539314 
L 182.442367 -178.230466 
L 181.608864 -177.917672 
L 180.775361 -177.600881 
L 179.941857 -177.280044 
L 179.108354 -176.955108 
L 178.274851 -176.626023 
L 177.441347 -176.292735 
L 176.607844 -175.955192 
L 175.77434 -175.613339 
L 174.940837 -175.267122 
L 174.107334 -174.916486 
L 173.27383 -174.561375 
L 172.440327 -174.201732 
L 171.606824 -173.8375 
L 170.77332 -173.468621 
L 169.939817 -173.095036 
L 169.106314 -172.716685 
L 168.27281 -172.333509 
L 167.439307 -171.945447 
L 166.605803 -171.552435 
L 165.7723 -171.154413 
L 164.938797 -170.751316 
L 164.105293 -170.343081 
L 163.27179 -169.929642 
L 162.438287 -169.510933 
L 161.604783 -169.086889 
L 160.77128 -168.657441 
L 159.937776 -168.222521 
L 159.104273 -167.78206 
L 158.27077 -167.335988 
L 157.437266 -166.884234 
L 156.603763 -166.426727 
L 155.77026 -165.963393 
L 154.936756 -165.494158 
L 154.103253 -165.018949 
L 153.269749 -164.53769 
L 152.436246 -164.050303 
L 151.602743 -163.556713 
L 150.769239 -163.05684 
L 149.935736 -162.550605 
L 149.102233 -162.037928 
L 148.268729 -161.518726 
L 147.435226 -160.992919 
L 146.601723 -160.460422 
L 145.768219 -159.921151 
L 144.934716 -159.375019 
L 144.101212 -158.821942 
L 143.267709 -158.26183 
L 142.434206 -157.694595 
L 141.600702 -157.120147 
L 140.767199 -156.538394 
L 139.933696 -155.949245 
L 139.100192 -155.352607 
L 138.266689 -154.748383 
L 137.433185 -154.136479 
L 136.599682 -153.516798 
L 135.766179 -152.889242 
L 134.932675 -152.25371 
L 134.099172 -151.610103 
L 133.265669 -150.958317 
L 132.432165 -150.298251 
L 131.598662 -149.629799 
L 130.765158 -148.952856 
L 129.931655 -148.267313 
L 129.098152 -147.573064 
L 128.264648 -146.869997 
L 127.431145 -146.158002 
L 126.597642 -145.436965 
L 125.764138 -144.706773 
L 124.930635 -143.967309 
L 124.097132 -143.218458 
L 123.263628 -142.4601 
L 122.430125 -141.692115 
L 121.596621 -140.914382 
L 120.763118 -140.126778 
L 119.929615 -139.329178 
L 119.096111 -138.521456 
L 118.262608 -137.703484 
L 117.429105 -136.875133 
L 116.595601 -136.036271 
L 115.762098 -135.186767 
L 114.928594 -134.326486 
L 114.095091 -133.455291 
L 113.261588 -132.573046 
L 112.428084 -131.67961 
L 111.594581 -130.774842 
L 110.761078 -129.8586 
L 109.927574 -128.930738 
L 109.094071 -127.991111 
L 108.260567 -127.039568 
L 107.427064 -126.075961 
L 106.593561 -125.100137 
L 105.760057 -124.111941 
L 104.926554 -123.111218 
L 104.093051 -122.09781 
L 103.259547 -121.071556 
L 102.426044 -120.032295 
L 101.592541 -118.979862 
L 100.759037 -117.914091 
L 99.925534 -116.834814 
L 99.09203 -115.74186 
L 98.258527 -114.635057 
L 97.425024 -113.514231 
L 96.59152 -112.379204 
L 95.758017 -111.229797 
L 94.924514 -110.065829 
L 94.09101 -108.887116 
L 93.257507 -107.693472 
L 92.424003 -106.484709 
L 91.5905 -105.260636 
L 90.756997 -104.02106 
L 89.923493 -102.765786 
L 89.08999 -101.494615 
L 88.256487 -100.207347 
L 87.422983 -98.903779 
L 86.58948 -97.583705 
L 85.755976 -96.246918 
L 84.922473 -94.893206 
L 84.08897 -93.522356 
L 83.255466 -92.134152 
L 82.421963 -90.728375 
L 81.58846 -89.304803 
L 80.754956 -87.863213 
L 79.921453 -86.403376 
L 79.08795 -84.925063 
L 78.254446 -83.428041 
L 77.420943 -81.912074 
L 76.587439 -80.376923 
L 75.753936 -78.822346 
L 74.920433 -77.248098 
L 74.086929 -75.653932 
L 73.253426 -74.039595 
L 72.419923 -72.404834 
L 71.586419 -70.749392 
L 70.752916 -69.073007 
L 69.919412 -67.375415 
L 69.085909 -65.65635 
z
" style="stroke: #0000ff; stroke-opacity: 0.2"/>
    </defs>
    <g clip-path="url(#p4bf5377e00)">
     <use xlink:href="#meb16436e4f" x="0" y="252" style="fill: #0000ff; fill-opacity: 0.2; stroke: #0000ff; stroke-opacity: 0.2"/>
    </g>
   </g>
   <g id="matplotlib.axis_1">
    <g id="xtick_1">
     <g id="line2d_1">
      <path d="M 68.252406 213.52 
L 68.252406 23.88 
" clip-path="url(#p4bf5377e00)" style="fill: none; stroke-dasharray: 2.96,1.28; stroke-dashoffset: 0; stroke: #b0b0b0; stroke-opacity: 0.5; stroke-width: 0.8"/>
     </g>
     <g id="line2d_2">
      <defs>
       <path id="m339378f4a5" d="M 0 0 
L 0 3.5 
" style="stroke: #000000; stroke-width: 0.8"/>
      </defs>
      <g>
       <use xlink:href="#m339378f4a5" x="68.252406" y="213.52" style="stroke: #000000; stroke-width: 0.8"/>
      </g>
     </g>
     <g id="text_1">
      <!-- 0 -->
      <g transform="translate(65.548343 226.978672) scale(0.085 -0.085)">
       <defs>
        <path id="DejaVuSans-30" d="M 2034 4250 
Q 1547 4250 1301 3770 
Q 1056 3291 1056 2328 
Q 1056 1369 1301 889 
Q 1547 409 2034 409 
Q 2525 409 2770 889 
Q 3016 1369 3016 2328 
Q 3016 3291 2770 3770 
Q 2525 4250 2034 4250 
z
M 2034 4750 
Q 2819 4750 3233 4129 
Q 3647 3509 3647 2328 
Q 3647 1150 3233 529 
Q 2819 -91 2034 -91 
Q 1250 -91 836 529 
Q 422 1150 422 2328 
Q 422 3509 836 4129 
Q 1250 4750 2034 4750 
z
" transform="scale(0.015625)"/>
       </defs>
       <use xlink:href="#DejaVuSans-30"/>
      </g>
     </g>
    </g>
    <g id="xtick_2">
     <g id="line2d_3">
      <path d="M 151.602743 213.52 
L 151.602743 23.88 
" clip-path="url(#p4bf5377e00)" style="fill: none; stroke-dasharray: 2.96,1.28; stroke-dashoffset: 0; stroke: #b0b0b0; stroke-opacity: 0.5; stroke-width: 0.8"/>
     </g>
     <g id="line2d_4">
      <g>
       <use xlink:href="#m339378f4a5" x="151.602743" y="213.52" style="stroke: #000000; stroke-width: 0.8"/>
      </g>
     </g>
     <g id="text_2">
      <!-- 100 -->
      <g transform="translate(143.490555 226.978672) scale(0.085 -0.085)">
       <defs>
        <path id="DejaVuSans-31" d="M 794 531 
L 1825 531 
L 1825 4091 
L 703 3866 
L 703 4441 
L 1819 4666 
L 2450 4666 
L 2450 531 
L 3481 531 
L 3481 0 
L 794 0 
L 794 531 
z
" transform="scale(0.015625)"/>
       </defs>
       <use xlink:href="#DejaVuSans-31"/>
       <use xlink:href="#DejaVuSans-30" x="63.623047"/>
       <use xlink:href="#DejaVuSans-30" x="127.246094"/>
      </g>
     </g>
    </g>
    <g id="xtick_3">
     <g id="line2d_5">
      <path d="M 234.95308 213.52 
L 234.95308 23.88 
" clip-path="url(#p4bf5377e00)" style="fill: none; stroke-dasharray: 2.96,1.28; stroke-dashoffset: 0; stroke: #b0b0b0; stroke-opacity: 0.5; stroke-width: 0.8"/>
     </g>
     <g id="line2d_6">
      <g>
       <use xlink:href="#m339378f4a5" x="234.95308" y="213.52" style="stroke: #000000; stroke-width: 0.8"/>
      </g>
     </g>
     <g id="text_3">
      <!-- 200 -->
      <g transform="translate(226.840892 226.978672) scale(0.085 -0.085)">
       <defs>
        <path id="DejaVuSans-32" d="M 1228 531 
L 3431 531 
L 3431 0 
L 469 0 
L 469 531 
Q 828 903 1448 1529 
Q 2069 2156 2228 2338 
Q 2531 2678 2651 2914 
Q 2772 3150 2772 3378 
Q 2772 3750 2511 3984 
Q 2250 4219 1831 4219 
Q 1534 4219 1204 4116 
Q 875 4013 500 3803 
L 500 4441 
Q 881 4594 1212 4672 
Q 1544 4750 1819 4750 
Q 2544 4750 2975 4387 
Q 3406 4025 3406 3419 
Q 3406 3131 3298 2873 
Q 3191 2616 2906 2266 
Q 2828 2175 2409 1742 
Q 1991 1309 1228 531 
z
" transform="scale(0.015625)"/>
       </defs>
       <use xlink:href="#DejaVuSans-32"/>
       <use xlink:href="#DejaVuSans-30" x="63.623047"/>
       <use xlink:href="#DejaVuSans-30" x="127.246094"/>
      </g>
     </g>
    </g>
    <g id="xtick_4">
     <g id="line2d_7">
      <path d="M 318.303417 213.52 
L 318.303417 23.88 
" clip-path="url(#p4bf5377e00)" style="fill: none; stroke-dasharray: 2.96,1.28; stroke-dashoffset: 0; stroke: #b0b0b0; stroke-opacity: 0.5; stroke-width: 0.8"/>
     </g>
     <g id="line2d_8">
      <g>
       <use xlink:href="#m339378f4a5" x="318.303417" y="213.52" style="stroke: #000000; stroke-width: 0.8"/>
      </g>
     </g>
     <g id="text_4">
      <!-- 300 -->
      <g transform="translate(310.191229 226.978672) scale(0.085 -0.085)">
       <defs>
        <path id="DejaVuSans-33" d="M 2597 2516 
Q 3050 2419 3304 2112 
Q 3559 1806 3559 1356 
Q 3559 666 3084 287 
Q 2609 -91 1734 -91 
Q 1441 -91 1130 -33 
Q 819 25 488 141 
L 488 750 
Q 750 597 1062 519 
Q 1375 441 1716 441 
Q 2309 441 2620 675 
Q 2931 909 2931 1356 
Q 2931 1769 2642 2001 
Q 2353 2234 1838 2234 
L 1294 2234 
L 1294 2753 
L 1863 2753 
Q 2328 2753 2575 2939 
Q 2822 3125 2822 3475 
Q 2822 3834 2567 4026 
Q 2313 4219 1838 4219 
Q 1578 4219 1281 4162 
Q 984 4106 628 3988 
L 628 4550 
Q 988 4650 1302 4700 
Q 1616 4750 1894 4750 
Q 2613 4750 3031 4423 
Q 3450 4097 3450 3541 
Q 3450 3153 3228 2886 
Q 3006 2619 2597 2516 
z
" transform="scale(0.015625)"/>
       </defs>
       <use xlink:href="#DejaVuSans-33"/>
       <use xlink:href="#DejaVuSans-30" x="63.623047"/>
       <use xlink:href="#DejaVuSans-30" x="127.246094"/>
      </g>
     </g>
    </g>
    <g id="xtick_5">
     <g id="line2d_9">
      <path d="M 401.653754 213.52 
L 401.653754 23.88 
" clip-path="url(#p4bf5377e00)" style="fill: none; stroke-dasharray: 2.96,1.28; stroke-dashoffset: 0; stroke: #b0b0b0; stroke-opacity: 0.5; stroke-width: 0.8"/>
     </g>
     <g id="line2d_10">
      <g>
       <use xlink:href="#m339378f4a5" x="401.653754" y="213.52" style="stroke: #000000; stroke-width: 0.8"/>
      </g>
     </g>
     <g id="text_5">
      <!-- 400 -->
      <g transform="translate(393.541566 226.978672) scale(0.085 -0.085)">
       <defs>
        <path id="DejaVuSans-34" d="M 2419 4116 
L 825 1625 
L 2419 1625 
L 2419 4116 
z
M 2253 4666 
L 3047 4666 
L 3047 1625 
L 3713 1625 
L 3713 1100 
L 3047 1100 
L 3047 0 
L 2419 0 
L 2419 1100 
L 313 1100 
L 313 1709 
L 2253 4666 
z
" transform="scale(0.015625)"/>
       </defs>
       <use xlink:href="#DejaVuSans-34"/>
       <use xlink:href="#DejaVuSans-30" x="63.623047"/>
       <use xlink:href="#DejaVuSans-30" x="127.246094"/>
      </g>
     </g>
    </g>
    <g id="xtick_6">
     <g id="line2d_11">
      <path d="M 485.004091 213.52 
L 485.004091 23.88 
" clip-path="url(#p4bf5377e00)" style="fill: none; stroke-dasharray: 2.96,1.28; stroke-dashoffset: 0; stroke: #b0b0b0; stroke-opacity: 0.5; stroke-width: 0.8"/>
     </g>
     <g id="line2d_12">
      <g>
       <use xlink:href="#m339378f4a5" x="485.004091" y="213.52" style="stroke: #000000; stroke-width: 0.8"/>
      </g>
     </g>
     <g id="text_6">
      <!-- 500 -->
      <g transform="translate(476.891903 226.978672) scale(0.085 -0.085)">
       <defs>
        <path id="DejaVuSans-35" d="M 691 4666 
L 3169 4666 
L 3169 4134 
L 1269 4134 
L 1269 2991 
Q 1406 3038 1543 3061 
Q 1681 3084 1819 3084 
Q 2600 3084 3056 2656 
Q 3513 2228 3513 1497 
Q 3513 744 3044 326 
Q 2575 -91 1722 -91 
Q 1428 -91 1123 -41 
Q 819 9 494 109 
L 494 744 
Q 775 591 1075 516 
Q 1375 441 1709 441 
Q 2250 441 2565 725 
Q 2881 1009 2881 1497 
Q 2881 1984 2565 2268 
Q 2250 2553 1709 2553 
Q 1456 2553 1204 2497 
Q 953 2441 691 2322 
L 691 4666 
z
" transform="scale(0.015625)"/>
       </defs>
       <use xlink:href="#DejaVuSans-35"/>
       <use xlink:href="#DejaVuSans-30" x="63.623047"/>
       <use xlink:href="#DejaVuSans-30" x="127.246094"/>
      </g>
     </g>
    </g>
    <g id="text_7">
     <!-- Training Episode -->
     <g transform="translate(238.140273 239.964922) scale(0.095 -0.095)">
      <defs>
       <path id="DejaVuSans-54" d="M -19 4666 
L 3928 4666 
L 3928 4134 
L 2272 4134 
L 2272 0 
L 1638 0 
L 1638 4134 
L -19 4134 
L -19 4666 
z
" transform="scale(0.015625)"/>
       <path id="DejaVuSans-72" d="M 2631 2963 
Q 2534 3019 2420 3045 
Q 2306 3072 2169 3072 
Q 1681 3072 1420 2755 
Q 1159 2438 1159 1844 
L 1159 0 
L 581 0 
L 581 3500 
L 1159 3500 
L 1159 2956 
Q 1341 3275 1631 3429 
Q 1922 3584 2338 3584 
Q 2397 3584 2469 3576 
Q 2541 3569 2628 3553 
L 2631 2963 
z
" transform="scale(0.015625)"/>
       <path id="DejaVuSans-61" d="M 2194 1759 
Q 1497 1759 1228 1600 
Q 959 1441 959 1056 
Q 959 750 1161 570 
Q 1363 391 1709 391 
Q 2188 391 2477 730 
Q 2766 1069 2766 1631 
L 2766 1759 
L 2194 1759 
z
M 3341 1997 
L 3341 0 
L 2766 0 
L 2766 531 
Q 2569 213 2275 61 
Q 1981 -91 1556 -91 
Q 1019 -91 701 211 
Q 384 513 384 1019 
Q 384 1609 779 1909 
Q 1175 2209 1959 2209 
L 2766 2209 
L 2766 2266 
Q 2766 2663 2505 2880 
Q 2244 3097 1772 3097 
Q 1472 3097 1187 3025 
Q 903 2953 641 2809 
L 641 3341 
Q 956 3463 1253 3523 
Q 1550 3584 1831 3584 
Q 2591 3584 2966 3190 
Q 3341 2797 3341 1997 
z
" transform="scale(0.015625)"/>
       <path id="DejaVuSans-69" d="M 603 3500 
L 1178 3500 
L 1178 0 
L 603 0 
L 603 3500 
z
M 603 4863 
L 1178 4863 
L 1178 4134 
L 603 4134 
L 603 4863 
z
" transform="scale(0.015625)"/>
       <path id="DejaVuSans-6e" d="M 3513 2113 
L 3513 0 
L 2938 0 
L 2938 2094 
Q 2938 2591 2744 2837 
Q 2550 3084 2163 3084 
Q 1697 3084 1428 2787 
Q 1159 2491 1159 1978 
L 1159 0 
L 581 0 
L 581 3500 
L 1159 3500 
L 1159 2956 
Q 1366 3272 1645 3428 
Q 1925 3584 2291 3584 
Q 2894 3584 3203 3211 
Q 3513 2838 3513 2113 
z
" transform="scale(0.015625)"/>
       <path id="DejaVuSans-67" d="M 2906 1791 
Q 2906 2416 2648 2759 
Q 2391 3103 1925 3103 
Q 1463 3103 1205 2759 
Q 947 2416 947 1791 
Q 947 1169 1205 825 
Q 1463 481 1925 481 
Q 2391 481 2648 825 
Q 2906 1169 2906 1791 
z
M 3481 434 
Q 3481 -459 3084 -895 
Q 2688 -1331 1869 -1331 
Q 1566 -1331 1297 -1286 
Q 1028 -1241 775 -1147 
L 775 -588 
Q 1028 -725 1275 -790 
Q 1522 -856 1778 -856 
Q 2344 -856 2625 -561 
Q 2906 -266 2906 331 
L 2906 616 
Q 2728 306 2450 153 
Q 2172 0 1784 0 
Q 1141 0 747 490 
Q 353 981 353 1791 
Q 353 2603 747 3093 
Q 1141 3584 1784 3584 
Q 2172 3584 2450 3431 
Q 2728 3278 2906 2969 
L 2906 3500 
L 3481 3500 
L 3481 434 
z
" transform="scale(0.015625)"/>
       <path id="DejaVuSans-20" transform="scale(0.015625)"/>
       <path id="DejaVuSans-45" d="M 628 4666 
L 3578 4666 
L 3578 4134 
L 1259 4134 
L 1259 2753 
L 3481 2753 
L 3481 2222 
L 1259 2222 
L 1259 531 
L 3634 531 
L 3634 0 
L 628 0 
L 628 4666 
z
" transform="scale(0.015625)"/>
       <path id="DejaVuSans-70" d="M 1159 525 
L 1159 -1331 
L 581 -1331 
L 581 3500 
L 1159 3500 
L 1159 2969 
Q 1341 3281 1617 3432 
Q 1894 3584 2278 3584 
Q 2916 3584 3314 3078 
Q 3713 2572 3713 1747 
Q 3713 922 3314 415 
Q 2916 -91 2278 -91 
Q 1894 -91 1617 61 
Q 1341 213 1159 525 
z
M 3116 1747 
Q 3116 2381 2855 2742 
Q 2594 3103 2138 3103 
Q 1681 3103 1420 2742 
Q 1159 2381 1159 1747 
Q 1159 1113 1420 752 
Q 1681 391 2138 391 
Q 2594 391 2855 752 
Q 3116 1113 3116 1747 
z
" transform="scale(0.015625)"/>
       <path id="DejaVuSans-73" d="M 2834 3397 
L 2834 2853 
Q 2591 2978 2328 3040 
Q 2066 3103 1784 3103 
Q 1356 3103 1142 2972 
Q 928 2841 928 2578 
Q 928 2378 1081 2264 
Q 1234 2150 1697 2047 
L 1894 2003 
Q 2506 1872 2764 1633 
Q 3022 1394 3022 966 
Q 3022 478 2636 193 
Q 2250 -91 1575 -91 
Q 1294 -91 989 -36 
Q 684 19 347 128 
L 347 722 
Q 666 556 975 473 
Q 1284 391 1588 391 
Q 1994 391 2212 530 
Q 2431 669 2431 922 
Q 2431 1156 2273 1281 
Q 2116 1406 1581 1522 
L 1381 1569 
Q 847 1681 609 1914 
Q 372 2147 372 2553 
Q 372 3047 722 3315 
Q 1072 3584 1716 3584 
Q 2034 3584 2315 3537 
Q 2597 3491 2834 3397 
z
" transform="scale(0.015625)"/>
       <path id="DejaVuSans-6f" d="M 1959 3097 
Q 1497 3097 1228 2736 
Q 959 2375 959 1747 
Q 959 1119 1226 758 
Q 1494 397 1959 397 
Q 2419 397 2687 759 
Q 2956 1122 2956 1747 
Q 2956 2369 2687 2733 
Q 2419 3097 1959 3097 
z
M 1959 3584 
Q 2709 3584 3137 3096 
Q 3566 2609 3566 1747 
Q 3566 888 3137 398 
Q 2709 -91 1959 -91 
Q 1206 -91 779 398 
Q 353 888 353 1747 
Q 353 2609 779 3096 
Q 1206 3584 1959 3584 
z
" transform="scale(0.015625)"/>
       <path id="DejaVuSans-64" d="M 2906 2969 
L 2906 4863 
L 3481 4863 
L 3481 0 
L 2906 0 
L 2906 525 
Q 2725 213 2448 61 
Q 2172 -91 1784 -91 
Q 1150 -91 751 415 
Q 353 922 353 1747 
Q 353 2572 751 3078 
Q 1150 3584 1784 3584 
Q 2172 3584 2448 3432 
Q 2725 3281 2906 2969 
z
M 947 1747 
Q 947 1113 1208 752 
Q 1469 391 1925 391 
Q 2381 391 2643 752 
Q 2906 1113 2906 1747 
Q 2906 2381 2643 2742 
Q 2381 3103 1925 3103 
Q 1469 3103 1208 2742 
Q 947 2381 947 1747 
z
" transform="scale(0.015625)"/>
       <path id="DejaVuSans-65" d="M 3597 1894 
L 3597 1613 
L 953 1613 
Q 991 1019 1311 708 
Q 1631 397 2203 397 
Q 2534 397 2845 478 
Q 3156 559 3463 722 
L 3463 178 
Q 3153 47 2828 -22 
Q 2503 -91 2169 -91 
Q 1331 -91 842 396 
Q 353 884 353 1716 
Q 353 2575 817 3079 
Q 1281 3584 2069 3584 
Q 2775 3584 3186 3129 
Q 3597 2675 3597 1894 
z
M 3022 2063 
Q 3016 2534 2758 2815 
Q 2500 3097 2075 3097 
Q 1594 3097 1305 2825 
Q 1016 2553 972 2059 
L 3022 2063 
z
" transform="scale(0.015625)"/>
      </defs>
      <use xlink:href="#DejaVuSans-54"/>
      <use xlink:href="#DejaVuSans-72" x="46.333984"/>
      <use xlink:href="#DejaVuSans-61" x="87.447266"/>
      <use xlink:href="#DejaVuSans-69" x="148.726562"/>
      <use xlink:href="#DejaVuSans-6e" x="176.509766"/>
      <use xlink:href="#DejaVuSans-69" x="239.888672"/>
      <use xlink:href="#DejaVuSans-6e" x="267.671875"/>
      <use xlink:href="#DejaVuSans-67" x="331.050781"/>
      <use xlink:href="#DejaVuSans-20" x="394.527344"/>
      <use xlink:href="#DejaVuSans-45" x="426.314453"/>
      <use xlink:href="#DejaVuSans-70" x="489.498047"/>
      <use xlink:href="#DejaVuSans-69" x="552.974609"/>
      <use xlink:href="#DejaVuSans-73" x="580.757812"/>
      <use xlink:href="#DejaVuSans-6f" x="632.857422"/>
      <use xlink:href="#DejaVuSans-64" x="694.039062"/>
      <use xlink:href="#DejaVuSans-65" x="757.515625"/>
     </g>
    </g>
   </g>
   <g id="matplotlib.axis_2">
    <g id="ytick_1">
     <g id="line2d_13">
      <path d="M 48.29 197.378758 
L 505.8 197.378758 
" clip-path="url(#p4bf5377e00)" style="fill: none; stroke-dasharray: 2.96,1.28; stroke-dashoffset: 0; stroke: #b0b0b0; stroke-opacity: 0.5; stroke-width: 0.8"/>
     </g>
     <g id="line2d_14">
      <defs>
       <path id="m9d03f8c2a6" d="M 0 0 
L -3.5 0 
" style="stroke: #000000; stroke-width: 0.8"/>
      </defs>
      <g>
       <use xlink:href="#m9d03f8c2a6" x="48.29" y="197.378758" style="stroke: #000000; stroke-width: 0.8"/>
      </g>
     </g>
     <g id="text_8">
      <!-- −50 -->
      <g transform="translate(23.351016 200.608094) scale(0.085 -0.085)">
       <defs>
        <path id="DejaVuSans-2212" d="M 678 2272 
L 4684 2272 
L 4684 1741 
L 678 1741 
L 678 2272 
z
" transform="scale(0.015625)"/>
       </defs>
       <use xlink:href="#DejaVuSans-2212"/>
       <use xlink:href="#DejaVuSans-35" x="83.789062"/>
       <use xlink:href="#DejaVuSans-30" x="147.412109"/>
      </g>
     </g>
    </g>
    <g id="ytick_2">
     <g id="line2d_15">
      <path d="M 48.29 156.968764 
L 505.8 156.968764 
" clip-path="url(#p4bf5377e00)" style="fill: none; stroke-dasharray: 2.96,1.28; stroke-dashoffset: 0; stroke: #b0b0b0; stroke-opacity: 0.5; stroke-width: 0.8"/>
     </g>
     <g id="line2d_16">
      <g>
       <use xlink:href="#m9d03f8c2a6" x="48.29" y="156.968764" style="stroke: #000000; stroke-width: 0.8"/>
      </g>
     </g>
     <g id="text_9">
      <!-- −40 -->
      <g transform="translate(23.351016 160.1981) scale(0.085 -0.085)">
       <use xlink:href="#DejaVuSans-2212"/>
       <use xlink:href="#DejaVuSans-34" x="83.789062"/>
       <use xlink:href="#DejaVuSans-30" x="147.412109"/>
      </g>
     </g>
    </g>
    <g id="ytick_3">
     <g id="line2d_17">
      <path d="M 48.29 116.55877 
L 505.8 116.55877 
" clip-path="url(#p4bf5377e00)" style="fill: none; stroke-dasharray: 2.96,1.28; stroke-dashoffset: 0; stroke: #b0b0b0; stroke-opacity: 0.5; stroke-width: 0.8"/>
     </g>
     <g id="line2d_18">
      <g>
       <use xlink:href="#m9d03f8c2a6" x="48.29" y="116.55877" style="stroke: #000000; stroke-width: 0.8"/>
      </g>
     </g>
     <g id="text_10">
      <!-- −30 -->
      <g transform="translate(23.351016 119.788105) scale(0.085 -0.085)">
       <use xlink:href="#DejaVuSans-2212"/>
       <use xlink:href="#DejaVuSans-33" x="83.789062"/>
       <use xlink:href="#DejaVuSans-30" x="147.412109"/>
      </g>
     </g>
    </g>
    <g id="ytick_4">
     <g id="line2d_19">
      <path d="M 48.29 76.148775 
L 505.8 76.148775 
" clip-path="url(#p4bf5377e00)" style="fill: none; stroke-dasharray: 2.96,1.28; stroke-dashoffset: 0; stroke: #b0b0b0; stroke-opacity: 0.5; stroke-width: 0.8"/>
     </g>
     <g id="line2d_20">
      <g>
       <use xlink:href="#m9d03f8c2a6" x="48.29" y="76.148775" style="stroke: #000000; stroke-width: 0.8"/>
      </g>
     </g>
     <g id="text_11">
      <!-- −20 -->
      <g transform="translate(23.351016 79.378111) scale(0.085 -0.085)">
       <use xlink:href="#DejaVuSans-2212"/>
       <use xlink:href="#DejaVuSans-32" x="83.789062"/>
       <use xlink:href="#DejaVuSans-30" x="147.412109"/>
      </g>
     </g>
    </g>
    <g id="ytick_5">
     <g id="line2d_21">
      <path d="M 48.29 35.738781 
L 505.8 35.738781 
" clip-path="url(#p4bf5377e00)" style="fill: none; stroke-dasharray: 2.96,1.28; stroke-dashoffset: 0; stroke: #b0b0b0; stroke-opacity: 0.5; stroke-width: 0.8"/>
     </g>
     <g id="line2d_22">
      <g>
       <use xlink:href="#m9d03f8c2a6" x="48.29" y="35.738781" style="stroke: #000000; stroke-width: 0.8"/>
      </g>
     </g>
     <g id="text_12">
      <!-- −10 -->
      <g transform="translate(23.351016 38.968117) scale(0.085 -0.085)">
       <use xlink:href="#DejaVuSans-2212"/>
       <use xlink:href="#DejaVuSans-31" x="83.789062"/>
       <use xlink:href="#DejaVuSans-30" x="147.412109"/>
      </g>
     </g>
    </g>
    <g id="text_13">
     <!-- Mean Team Reward -->
     <g transform="translate(17.375312 164.905625) rotate(-90) scale(0.095 -0.095)">
      <defs>
       <path id="DejaVuSans-4d" d="M 628 4666 
L 1569 4666 
L 2759 1491 
L 3956 4666 
L 4897 4666 
L 4897 0 
L 4281 0 
L 4281 4097 
L 3078 897 
L 2444 897 
L 1241 4097 
L 1241 0 
L 628 0 
L 628 4666 
z
" transform="scale(0.015625)"/>
       <path id="DejaVuSans-6d" d="M 3328 2828 
Q 3544 3216 3844 3400 
Q 4144 3584 4550 3584 
Q 5097 3584 5394 3201 
Q 5691 2819 5691 2113 
L 5691 0 
L 5113 0 
L 5113 2094 
Q 5113 2597 4934 2840 
Q 4756 3084 4391 3084 
Q 3944 3084 3684 2787 
Q 3425 2491 3425 1978 
L 3425 0 
L 2847 0 
L 2847 2094 
Q 2847 2600 2669 2842 
Q 2491 3084 2119 3084 
Q 1678 3084 1418 2786 
Q 1159 2488 1159 1978 
L 1159 0 
L 581 0 
L 581 3500 
L 1159 3500 
L 1159 2956 
Q 1356 3278 1631 3431 
Q 1906 3584 2284 3584 
Q 2666 3584 2933 3390 
Q 3200 3197 3328 2828 
z
" transform="scale(0.015625)"/>
       <path id="DejaVuSans-52" d="M 2841 2188 
Q 3044 2119 3236 1894 
Q 3428 1669 3622 1275 
L 4263 0 
L 3584 0 
L 2988 1197 
Q 2756 1666 2539 1819 
Q 2322 1972 1947 1972 
L 1259 1972 
L 1259 0 
L 628 0 
L 628 4666 
L 2053 4666 
Q 2853 4666 3247 4331 
Q 3641 3997 3641 3322 
Q 3641 2881 3436 2590 
Q 3231 2300 2841 2188 
z
M 1259 4147 
L 1259 2491 
L 2053 2491 
Q 2509 2491 2742 2702 
Q 2975 2913 2975 3322 
Q 2975 3731 2742 3939 
Q 2509 4147 2053 4147 
L 1259 4147 
z
" transform="scale(0.015625)"/>
       <path id="DejaVuSans-77" d="M 269 3500 
L 844 3500 
L 1563 769 
L 2278 3500 
L 2956 3500 
L 3675 769 
L 4391 3500 
L 4966 3500 
L 4050 0 
L 3372 0 
L 2619 2869 
L 1863 0 
L 1184 0 
L 269 3500 
z
" transform="scale(0.015625)"/>
      </defs>
      <use xlink:href="#DejaVuSans-4d"/>
      <use xlink:href="#DejaVuSans-65" x="86.279297"/>
      <use xlink:href="#DejaVuSans-61" x="147.802734"/>
      <use xlink:href="#DejaVuSans-6e" x="209.082031"/>
      <use xlink:href="#DejaVuSans-20" x="272.460938"/>
      <use xlink:href="#DejaVuSans-54" x="304.248047"/>
      <use xlink:href="#DejaVuSans-65" x="348.332031"/>
      <use xlink:href="#DejaVuSans-61" x="409.855469"/>
      <use xlink:href="#DejaVuSans-6d" x="471.134766"/>
      <use xlink:href="#DejaVuSans-20" x="568.546875"/>
      <use xlink:href="#DejaVuSans-52" x="600.333984"/>
      <use xlink:href="#DejaVuSans-65" x="665.316406"/>
      <use xlink:href="#DejaVuSans-77" x="726.839844"/>
      <use xlink:href="#DejaVuSans-61" x="808.626953"/>
      <use xlink:href="#DejaVuSans-72" x="869.90625"/>
      <use xlink:href="#DejaVuSans-64" x="909.269531"/>
     </g>
    </g>
   </g>
   <g id="line2d_23">
    <path d="M 69.085909 195.621825 
L 73.253426 187.15916 
L 77.420943 179.209222 
L 81.58846 171.740946 
L 85.755976 164.72515 
L 89.923493 158.13442 
L 94.09101 151.943002 
L 98.258527 146.126703 
L 102.426044 140.662796 
L 106.593561 135.52993 
L 110.761078 130.708049 
L 114.928594 126.178311 
L 119.929615 121.103408 
L 124.930635 116.3952 
L 129.931655 112.027191 
L 134.932675 107.9748 
L 139.933696 104.215219 
L 144.934716 100.727293 
L 149.935736 97.491393 
L 154.936756 94.489307 
L 160.77128 91.259919 
L 166.605803 88.301093 
L 172.440327 85.59016 
L 178.274851 83.106353 
L 184.942878 80.521492 
L 191.610905 78.182613 
L 198.278931 76.066308 
L 205.780462 73.925218 
L 213.281992 72.011945 
L 221.617026 70.123885 
L 229.95206 68.457679 
L 239.120597 66.850072 
L 249.122637 65.330913 
L 259.958181 63.922993 
L 271.627228 62.641986 
L 284.129779 61.496788 
L 298.299336 60.433721 
L 314.1359 59.484533 
L 318.303417 59.27001 
L 319.13692 39.279237 
L 380.81617 39.12742 
L 485.004091 39.072783 
L 485.004091 39.072783 
" clip-path="url(#p4bf5377e00)" style="fill: none; stroke: #0000ff; stroke-width: 2.2; stroke-linecap: square"/>
   </g>
   <g id="line2d_24">
    <path d="M 318.303417 213.52 
L 318.303417 23.88 
" clip-path="url(#p4bf5377e00)" style="fill: none; stroke-dasharray: 5.55,2.4; stroke-dashoffset: 0; stroke: #ff0000; stroke-width: 1.5"/>
   </g>
   <g id="patch_3">
    <path d="M 48.29 213.52 
L 48.29 23.88 
" style="fill: none; stroke: #000000; stroke-width: 0.8; stroke-linejoin: miter; stroke-linecap: square"/>
   </g>
   <g id="patch_4">
    <path d="M 505.8 213.52 
L 505.8 23.88 
" style="fill: none; stroke: #000000; stroke-width: 0.8; stroke-linejoin: miter; stroke-linecap: square"/>
   </g>
   <g id="patch_5">
    <path d="M 48.29 213.52 
L 505.8 213.52 
" style="fill: none; stroke: #000000; stroke-width: 0.8; stroke-linejoin: miter; stroke-linecap: square"/>
   </g>
   <g id="patch_6">
    <path d="M 48.29 23.88 
L 505.8 23.88 
" style="fill: none; stroke: #000000; stroke-width: 0.8; stroke-linejoin: miter; stroke-linecap: square"/>
   </g>
   <g id="text_14">
    <!-- 5-Seed Extended Curriculum Training Curve (MARLIN-Twin) -->
    <g transform="translate(103.384844 17.88) scale(0.105 -0.105)">
     <defs>
      <path id="DejaVuSans-Bold-35" d="M 678 4666 
L 3669 4666 
L 3669 3781 
L 1638 3781 
L 1638 3059 
Q 1775 3097 1914 3117 
Q 2053 3138 2203 3138 
Q 3056 3138 3531 2711 
Q 4006 2284 4006 1522 
Q 4006 766 3489 337 
Q 2972 -91 2053 -91 
Q 1656 -91 1267 -14 
Q 878 63 494 219 
L 494 1166 
Q 875 947 1217 837 
Q 1559 728 1863 728 
Q 2300 728 2551 942 
Q 2803 1156 2803 1522 
Q 2803 1891 2551 2103 
Q 2300 2316 1863 2316 
Q 1603 2316 1309 2248 
Q 1016 2181 678 2041 
L 678 4666 
z
" transform="scale(0.015625)"/>
      <path id="DejaVuSans-Bold-2d" d="M 347 2297 
L 2309 2297 
L 2309 1388 
L 347 1388 
L 347 2297 
z
" transform="scale(0.015625)"/>
      <path id="DejaVuSans-Bold-53" d="M 3834 4519 
L 3834 3531 
Q 3450 3703 3084 3790 
Q 2719 3878 2394 3878 
Q 1963 3878 1756 3759 
Q 1550 3641 1550 3391 
Q 1550 3203 1689 3098 
Q 1828 2994 2194 2919 
L 2706 2816 
Q 3484 2659 3812 2340 
Q 4141 2022 4141 1434 
Q 4141 663 3683 286 
Q 3225 -91 2284 -91 
Q 1841 -91 1394 -6 
Q 947 78 500 244 
L 500 1259 
Q 947 1022 1364 901 
Q 1781 781 2169 781 
Q 2563 781 2772 912 
Q 2981 1044 2981 1288 
Q 2981 1506 2839 1625 
Q 2697 1744 2272 1838 
L 1806 1941 
Q 1106 2091 782 2419 
Q 459 2747 459 3303 
Q 459 4000 909 4375 
Q 1359 4750 2203 4750 
Q 2588 4750 2994 4692 
Q 3400 4634 3834 4519 
z
" transform="scale(0.015625)"/>
      <path id="DejaVuSans-Bold-65" d="M 4031 1759 
L 4031 1441 
L 1416 1441 
Q 1456 1047 1700 850 
Q 1944 653 2381 653 
Q 2734 653 3104 758 
Q 3475 863 3866 1075 
L 3866 213 
Q 3469 63 3072 -14 
Q 2675 -91 2278 -91 
Q 1328 -91 801 392 
Q 275 875 275 1747 
Q 275 2603 792 3093 
Q 1309 3584 2216 3584 
Q 3041 3584 3536 3087 
Q 4031 2591 4031 1759 
z
M 2881 2131 
Q 2881 2450 2695 2645 
Q 2509 2841 2209 2841 
Q 1884 2841 1681 2658 
Q 1478 2475 1428 2131 
L 2881 2131 
z
" transform="scale(0.015625)"/>
      <path id="DejaVuSans-Bold-64" d="M 2919 2988 
L 2919 4863 
L 4044 4863 
L 4044 0 
L 2919 0 
L 2919 506 
Q 2688 197 2409 53 
Q 2131 -91 1766 -91 
Q 1119 -91 703 423 
Q 288 938 288 1747 
Q 288 2556 703 3070 
Q 1119 3584 1766 3584 
Q 2128 3584 2408 3439 
Q 2688 3294 2919 2988 
z
M 2181 722 
Q 2541 722 2730 984 
Q 2919 1247 2919 1747 
Q 2919 2247 2730 2509 
Q 2541 2772 2181 2772 
Q 1825 2772 1636 2509 
Q 1447 2247 1447 1747 
Q 1447 1247 1636 984 
Q 1825 722 2181 722 
z
" transform="scale(0.015625)"/>
      <path id="DejaVuSans-Bold-20" transform="scale(0.015625)"/>
      <path id="DejaVuSans-Bold-45" d="M 588 4666 
L 3834 4666 
L 3834 3756 
L 1791 3756 
L 1791 2888 
L 3713 2888 
L 3713 1978 
L 1791 1978 
L 1791 909 
L 3903 909 
L 3903 0 
L 588 0 
L 588 4666 
z
" transform="scale(0.015625)"/>
      <path id="DejaVuSans-Bold-78" d="M 1422 1791 
L 159 3500 
L 1344 3500 
L 2059 2463 
L 2784 3500 
L 3969 3500 
L 2706 1797 
L 4031 0 
L 2847 0 
L 2059 1106 
L 1281 0 
L 97 0 
L 1422 1791 
z
" transform="scale(0.015625)"/>
      <path id="DejaVuSans-Bold-74" d="M 1759 4494 
L 1759 3500 
L 2913 3500 
L 2913 2700 
L 1759 2700 
L 1759 1216 
Q 1759 972 1856 886 
Q 1953 800 2241 800 
L 2816 800 
L 2816 0 
L 1856 0 
Q 1194 0 917 276 
Q 641 553 641 1216 
L 641 2700 
L 84 2700 
L 84 3500 
L 641 3500 
L 641 4494 
L 1759 4494 
z
" transform="scale(0.015625)"/>
      <path id="DejaVuSans-Bold-6e" d="M 4056 2131 
L 4056 0 
L 2931 0 
L 2931 347 
L 2931 1631 
Q 2931 2084 2911 2256 
Q 2891 2428 2841 2509 
Q 2775 2619 2662 2680 
Q 2550 2741 2406 2741 
Q 2056 2741 1856 2470 
Q 1656 2200 1656 1722 
L 1656 0 
L 538 0 
L 538 3500 
L 1656 3500 
L 1656 2988 
Q 1909 3294 2193 3439 
Q 2478 3584 2822 3584 
Q 3428 3584 3742 3212 
Q 4056 2841 4056 2131 
z
" transform="scale(0.015625)"/>
      <path id="DejaVuSans-Bold-43" d="M 4288 256 
Q 3956 84 3597 -3 
Q 3238 -91 2847 -91 
Q 1681 -91 1000 561 
Q 319 1213 319 2328 
Q 319 3447 1000 4098 
Q 1681 4750 2847 4750 
Q 3238 4750 3597 4662 
Q 3956 4575 4288 4403 
L 4288 3438 
Q 3953 3666 3628 3772 
Q 3303 3878 2944 3878 
Q 2300 3878 1931 3465 
Q 1563 3053 1563 2328 
Q 1563 1606 1931 1193 
Q 2300 781 2944 781 
Q 3303 781 3628 887 
Q 3953 994 4288 1222 
L 4288 256 
z
" transform="scale(0.015625)"/>
      <path id="DejaVuSans-Bold-75" d="M 500 1363 
L 500 3500 
L 1625 3500 
L 1625 3150 
Q 1625 2866 1622 2436 
Q 1619 2006 1619 1863 
Q 1619 1441 1641 1255 
Q 1663 1069 1716 984 
Q 1784 875 1895 815 
Q 2006 756 2150 756 
Q 2500 756 2700 1025 
Q 2900 1294 2900 1772 
L 2900 3500 
L 4019 3500 
L 4019 0 
L 2900 0 
L 2900 506 
Q 2647 200 2364 54 
Q 2081 -91 1741 -91 
Q 1134 -91 817 281 
Q 500 653 500 1363 
z
" transform="scale(0.015625)"/>
      <path id="DejaVuSans-Bold-72" d="M 3138 2547 
Q 2991 2616 2845 2648 
Q 2700 2681 2553 2681 
Q 2122 2681 1889 2404 
Q 1656 2128 1656 1613 
L 1656 0 
L 538 0 
L 538 3500 
L 1656 3500 
L 1656 2925 
Q 1872 3269 2151 3426 
Q 2431 3584 2822 3584 
Q 2878 3584 2943 3579 
Q 3009 3575 3134 3559 
L 3138 2547 
z
" transform="scale(0.015625)"/>
      <path id="DejaVuSans-Bold-69" d="M 538 3500 
L 1656 3500 
L 1656 0 
L 538 0 
L 538 3500 
z
M 538 4863 
L 1656 4863 
L 1656 3950 
L 538 3950 
L 538 4863 
z
" transform="scale(0.015625)"/>
      <path id="DejaVuSans-Bold-63" d="M 3366 3391 
L 3366 2478 
Q 3138 2634 2908 2709 
Q 2678 2784 2431 2784 
Q 1963 2784 1702 2511 
Q 1441 2238 1441 1747 
Q 1441 1256 1702 982 
Q 1963 709 2431 709 
Q 2694 709 2930 787 
Q 3166 866 3366 1019 
L 3366 103 
Q 3103 6 2833 -42 
Q 2563 -91 2291 -91 
Q 1344 -91 809 395 
Q 275 881 275 1747 
Q 275 2613 809 3098 
Q 1344 3584 2291 3584 
Q 2566 3584 2833 3536 
Q 3100 3488 3366 3391 
z
" transform="scale(0.015625)"/>
      <path id="DejaVuSans-Bold-6c" d="M 538 4863 
L 1656 4863 
L 1656 0 
L 538 0 
L 538 4863 
z
" transform="scale(0.015625)"/>
      <path id="DejaVuSans-Bold-6d" d="M 3781 2919 
Q 3994 3244 4286 3414 
Q 4578 3584 4928 3584 
Q 5531 3584 5847 3212 
Q 6163 2841 6163 2131 
L 6163 0 
L 5038 0 
L 5038 1825 
Q 5041 1866 5042 1909 
Q 5044 1953 5044 2034 
Q 5044 2406 4934 2573 
Q 4825 2741 4581 2741 
Q 4263 2741 4089 2478 
Q 3916 2216 3909 1719 
L 3909 0 
L 2784 0 
L 2784 1825 
Q 2784 2406 2684 2573 
Q 2584 2741 2328 2741 
Q 2006 2741 1831 2477 
Q 1656 2213 1656 1722 
L 1656 0 
L 531 0 
L 531 3500 
L 1656 3500 
L 1656 2988 
Q 1863 3284 2130 3434 
Q 2397 3584 2719 3584 
Q 3081 3584 3359 3409 
Q 3638 3234 3781 2919 
z
" transform="scale(0.015625)"/>
      <path id="DejaVuSans-Bold-54" d="M 31 4666 
L 4331 4666 
L 4331 3756 
L 2784 3756 
L 2784 0 
L 1581 0 
L 1581 3756 
L 31 3756 
L 31 4666 
z
" transform="scale(0.015625)"/>
      <path id="DejaVuSans-Bold-61" d="M 2106 1575 
Q 1756 1575 1579 1456 
Q 1403 1338 1403 1106 
Q 1403 894 1545 773 
Q 1688 653 1941 653 
Q 2256 653 2472 879 
Q 2688 1106 2688 1447 
L 2688 1575 
L 2106 1575 
z
M 3816 1997 
L 3816 0 
L 2688 0 
L 2688 519 
Q 2463 200 2181 54 
Q 1900 -91 1497 -91 
Q 953 -91 614 226 
Q 275 544 275 1050 
Q 275 1666 698 1953 
Q 1122 2241 2028 2241 
L 2688 2241 
L 2688 2328 
Q 2688 2594 2478 2717 
Q 2269 2841 1825 2841 
Q 1466 2841 1156 2769 
Q 847 2697 581 2553 
L 581 3406 
Q 941 3494 1303 3539 
Q 1666 3584 2028 3584 
Q 2975 3584 3395 3211 
Q 3816 2838 3816 1997 
z
" transform="scale(0.015625)"/>
      <path id="DejaVuSans-Bold-67" d="M 2919 594 
Q 2688 288 2409 144 
Q 2131 0 1766 0 
Q 1125 0 706 504 
Q 288 1009 288 1791 
Q 288 2575 706 3076 
Q 1125 3578 1766 3578 
Q 2131 3578 2409 3434 
Q 2688 3291 2919 2981 
L 2919 3500 
L 4044 3500 
L 4044 353 
Q 4044 -491 3511 -936 
Q 2978 -1381 1966 -1381 
Q 1638 -1381 1331 -1331 
Q 1025 -1281 716 -1178 
L 716 -306 
Q 1009 -475 1290 -558 
Q 1572 -641 1856 -641 
Q 2406 -641 2662 -400 
Q 2919 -159 2919 353 
L 2919 594 
z
M 2181 2772 
Q 1834 2772 1640 2515 
Q 1447 2259 1447 1791 
Q 1447 1309 1634 1061 
Q 1822 813 2181 813 
Q 2531 813 2725 1069 
Q 2919 1325 2919 1791 
Q 2919 2259 2725 2515 
Q 2531 2772 2181 2772 
z
" transform="scale(0.015625)"/>
      <path id="DejaVuSans-Bold-76" d="M 97 3500 
L 1216 3500 
L 2088 1081 
L 2956 3500 
L 4078 3500 
L 2700 0 
L 1472 0 
L 97 3500 
z
" transform="scale(0.015625)"/>
      <path id="DejaVuSans-Bold-28" d="M 2413 -844 
L 1484 -844 
Q 1006 -72 778 623 
Q 550 1319 550 2003 
Q 550 2688 779 3389 
Q 1009 4091 1484 4856 
L 2413 4856 
Q 2013 4116 1813 3408 
Q 1613 2700 1613 2009 
Q 1613 1319 1811 609 
Q 2009 -100 2413 -844 
z
" transform="scale(0.015625)"/>
      <path id="DejaVuSans-Bold-4d" d="M 588 4666 
L 2119 4666 
L 3181 2169 
L 4250 4666 
L 5778 4666 
L 5778 0 
L 4641 0 
L 4641 3413 
L 3566 897 
L 2803 897 
L 1728 3413 
L 1728 0 
L 588 0 
L 588 4666 
z
" transform="scale(0.015625)"/>
      <path id="DejaVuSans-Bold-41" d="M 3419 850 
L 1538 850 
L 1241 0 
L 31 0 
L 1759 4666 
L 3194 4666 
L 4922 0 
L 3713 0 
L 3419 850 
z
M 1838 1716 
L 3116 1716 
L 2478 3572 
L 1838 1716 
z
" transform="scale(0.015625)"/>
      <path id="DejaVuSans-Bold-52" d="M 2297 2597 
Q 2675 2597 2839 2737 
Q 3003 2878 3003 3200 
Q 3003 3519 2839 3656 
Q 2675 3794 2297 3794 
L 1791 3794 
L 1791 2597 
L 2297 2597 
z
M 1791 1766 
L 1791 0 
L 588 0 
L 588 4666 
L 2425 4666 
Q 3347 4666 3776 4356 
Q 4206 4047 4206 3378 
Q 4206 2916 3982 2619 
Q 3759 2322 3309 2181 
Q 3556 2125 3751 1926 
Q 3947 1728 4147 1325 
L 4800 0 
L 3519 0 
L 2950 1159 
Q 2778 1509 2601 1637 
Q 2425 1766 2131 1766 
L 1791 1766 
z
" transform="scale(0.015625)"/>
      <path id="DejaVuSans-Bold-4c" d="M 588 4666 
L 1791 4666 
L 1791 909 
L 3903 909 
L 3903 0 
L 588 0 
L 588 4666 
z
" transform="scale(0.015625)"/>
      <path id="DejaVuSans-Bold-49" d="M 588 4666 
L 1791 4666 
L 1791 0 
L 588 0 
L 588 4666 
z
" transform="scale(0.015625)"/>
      <path id="DejaVuSans-Bold-4e" d="M 588 4666 
L 1931 4666 
L 3628 1466 
L 3628 4666 
L 4769 4666 
L 4769 0 
L 3425 0 
L 1728 3200 
L 1728 0 
L 588 0 
L 588 4666 
z
" transform="scale(0.015625)"/>
      <path id="DejaVuSans-Bold-77" d="M 225 3500 
L 1313 3500 
L 1900 1088 
L 2491 3500 
L 3425 3500 
L 4013 1113 
L 4603 3500 
L 5691 3500 
L 4769 0 
L 3547 0 
L 2956 2406 
L 2369 0 
L 1147 0 
L 225 3500 
z
" transform="scale(0.015625)"/>
      <path id="DejaVuSans-Bold-29" d="M 513 -844 
Q 913 -100 1113 609 
Q 1313 1319 1313 2009 
Q 1313 2700 1113 3408 
Q 913 4116 513 4856 
L 1441 4856 
Q 1916 4091 2145 3389 
Q 2375 2688 2375 2003 
Q 2375 1319 2147 623 
Q 1919 -72 1441 -844 
L 513 -844 
z
" transform="scale(0.015625)"/>
     </defs>
     <use xlink:href="#DejaVuSans-Bold-35"/>
     <use xlink:href="#DejaVuSans-Bold-2d" x="69.580078"/>
     <use xlink:href="#DejaVuSans-Bold-53" x="111.083984"/>
     <use xlink:href="#DejaVuSans-Bold-65" x="183.105469"/>
     <use xlink:href="#DejaVuSans-Bold-65" x="250.927734"/>
     <use xlink:href="#DejaVuSans-Bold-64" x="318.75"/>
     <use xlink:href="#DejaVuSans-Bold-20" x="390.332031"/>
     <use xlink:href="#DejaVuSans-Bold-45" x="425.146484"/>
     <use xlink:href="#DejaVuSans-Bold-78" x="493.457031"/>
     <use xlink:href="#DejaVuSans-Bold-74" x="557.958984"/>
     <use xlink:href="#DejaVuSans-Bold-65" x="605.761719"/>
     <use xlink:href="#DejaVuSans-Bold-6e" x="673.583984"/>
     <use xlink:href="#DejaVuSans-Bold-64" x="744.775391"/>
     <use xlink:href="#DejaVuSans-Bold-65" x="816.357422"/>
     <use xlink:href="#DejaVuSans-Bold-64" x="884.179688"/>
     <use xlink:href="#DejaVuSans-Bold-20" x="955.761719"/>
     <use xlink:href="#DejaVuSans-Bold-43" x="990.576172"/>
     <use xlink:href="#DejaVuSans-Bold-75" x="1063.964844"/>
     <use xlink:href="#DejaVuSans-Bold-72" x="1135.15625"/>
     <use xlink:href="#DejaVuSans-Bold-72" x="1184.472656"/>
     <use xlink:href="#DejaVuSans-Bold-69" x="1233.789062"/>
     <use xlink:href="#DejaVuSans-Bold-63" x="1268.066406"/>
     <use xlink:href="#DejaVuSans-Bold-75" x="1327.34375"/>
     <use xlink:href="#DejaVuSans-Bold-6c" x="1398.535156"/>
     <use xlink:href="#DejaVuSans-Bold-75" x="1432.8125"/>
     <use xlink:href="#DejaVuSans-Bold-6d" x="1504.003906"/>
     <use xlink:href="#DejaVuSans-Bold-20" x="1608.203125"/>
     <use xlink:href="#DejaVuSans-Bold-54" x="1643.017578"/>
     <use xlink:href="#DejaVuSans-Bold-72" x="1700.230469"/>
     <use xlink:href="#DejaVuSans-Bold-61" x="1749.546875"/>
     <use xlink:href="#DejaVuSans-Bold-69" x="1817.027344"/>
     <use xlink:href="#DejaVuSans-Bold-6e" x="1851.304688"/>
     <use xlink:href="#DejaVuSans-Bold-69" x="1922.496094"/>
     <use xlink:href="#DejaVuSans-Bold-6e" x="1956.773438"/>
     <use xlink:href="#DejaVuSans-Bold-67" x="2027.964844"/>
     <use xlink:href="#DejaVuSans-Bold-20" x="2099.546875"/>
     <use xlink:href="#DejaVuSans-Bold-43" x="2134.361328"/>
     <use xlink:href="#DejaVuSans-Bold-75" x="2207.75"/>
     <use xlink:href="#DejaVuSans-Bold-72" x="2278.941406"/>
     <use xlink:href="#DejaVuSans-Bold-76" x="2328.257812"/>
     <use xlink:href="#DejaVuSans-Bold-65" x="2393.443359"/>
     <use xlink:href="#DejaVuSans-Bold-20" x="2461.265625"/>
     <use xlink:href="#DejaVuSans-Bold-28" x="2496.080078"/>
     <use xlink:href="#DejaVuSans-Bold-4d" x="2541.783203"/>
     <use xlink:href="#DejaVuSans-Bold-41" x="2641.294922"/>
     <use xlink:href="#DejaVuSans-Bold-52" x="2718.6875"/>
     <use xlink:href="#DejaVuSans-Bold-4c" x="2795.689453"/>
     <use xlink:href="#DejaVuSans-Bold-49" x="2859.410156"/>
     <use xlink:href="#DejaVuSans-Bold-4e" x="2896.617188"/>
     <use xlink:href="#DejaVuSans-Bold-2d" x="2980.308594"/>
     <use xlink:href="#DejaVuSans-Bold-54" x="3007.0625"/>
     <use xlink:href="#DejaVuSans-Bold-77" x="3064.275391"/>
     <use xlink:href="#DejaVuSans-Bold-69" x="3156.658203"/>
     <use xlink:href="#DejaVuSans-Bold-6e" x="3190.935547"/>
     <use xlink:href="#DejaVuSans-Bold-29" x="3262.126953"/>
    </g>
   </g>
   <g id="legend_1">
    <g id="patch_7">
     <path d="M 306.541406 209.27 
L 499.85 209.27 
Q 501.55 209.27 501.55 207.57 
L 501.55 170.990781 
Q 501.55 169.290781 499.85 169.290781 
L 306.541406 169.290781 
Q 304.841406 169.290781 304.841406 170.990781 
L 304.841406 207.57 
Q 304.841406 209.27 306.541406 209.27 
z
" style="fill: #ffffff; opacity: 0.8; stroke: #cccccc; stroke-linejoin: miter"/>
    </g>
    <g id="line2d_25">
     <path d="M 308.241406 176.174453 
L 316.741406 176.174453 
L 325.241406 176.174453 
" style="fill: none; stroke: #0000ff; stroke-width: 2.2; stroke-linecap: square"/>
    </g>
    <g id="text_15">
     <!-- MARLIN-Twin MAPPO (Mean of 5 Seeds) -->
     <g transform="translate(332.041406 179.149453) scale(0.085 -0.085)">
      <defs>
       <path id="DejaVuSans-41" d="M 2188 4044 
L 1331 1722 
L 3047 1722 
L 2188 4044 
z
M 1831 4666 
L 2547 4666 
L 4325 0 
L 3669 0 
L 3244 1197 
L 1141 1197 
L 716 0 
L 50 0 
L 1831 4666 
z
" transform="scale(0.015625)"/>
       <path id="DejaVuSans-4c" d="M 628 4666 
L 1259 4666 
L 1259 531 
L 3531 531 
L 3531 0 
L 628 0 
L 628 4666 
z
" transform="scale(0.015625)"/>
       <path id="DejaVuSans-49" d="M 628 4666 
L 1259 4666 
L 1259 0 
L 628 0 
L 628 4666 
z
" transform="scale(0.015625)"/>
       <path id="DejaVuSans-4e" d="M 628 4666 
L 1478 4666 
L 3547 763 
L 3547 4666 
L 4159 4666 
L 4159 0 
L 3309 0 
L 1241 3903 
L 1241 0 
L 628 0 
L 628 4666 
z
" transform="scale(0.015625)"/>
       <path id="DejaVuSans-2d" d="M 313 2009 
L 1997 2009 
L 1997 1497 
L 313 1497 
L 313 2009 
z
" transform="scale(0.015625)"/>
       <path id="DejaVuSans-50" d="M 1259 4147 
L 1259 2394 
L 2053 2394 
Q 2494 2394 2734 2622 
Q 2975 2850 2975 3272 
Q 2975 3691 2734 3919 
Q 2494 4147 2053 4147 
L 1259 4147 
z
M 628 4666 
L 2053 4666 
Q 2838 4666 3239 4311 
Q 3641 3956 3641 3272 
Q 3641 2581 3239 2228 
Q 2838 1875 2053 1875 
L 1259 1875 
L 1259 0 
L 628 0 
L 628 4666 
z
" transform="scale(0.015625)"/>
       <path id="DejaVuSans-4f" d="M 2522 4238 
Q 1834 4238 1429 3725 
Q 1025 3213 1025 2328 
Q 1025 1447 1429 934 
Q 1834 422 2522 422 
Q 3209 422 3611 934 
Q 4013 1447 4013 2328 
Q 4013 3213 3611 3725 
Q 3209 4238 2522 4238 
z
M 2522 4750 
Q 3503 4750 4090 4092 
Q 4678 3434 4678 2328 
Q 4678 1225 4090 567 
Q 3503 -91 2522 -91 
Q 1538 -91 948 565 
Q 359 1222 359 2328 
Q 359 3434 948 4092 
Q 1538 4750 2522 4750 
z
" transform="scale(0.015625)"/>
       <path id="DejaVuSans-28" d="M 1984 4856 
Q 1566 4138 1362 3434 
Q 1159 2731 1159 2009 
Q 1159 1288 1364 580 
Q 1569 -128 1984 -844 
L 1484 -844 
Q 1016 -109 783 600 
Q 550 1309 550 2009 
Q 550 2706 781 3412 
Q 1013 4119 1484 4856 
L 1984 4856 
z
" transform="scale(0.015625)"/>
       <path id="DejaVuSans-66" d="M 2375 4863 
L 2375 4384 
L 1825 4384 
Q 1516 4384 1395 4259 
Q 1275 4134 1275 3809 
L 1275 3500 
L 2222 3500 
L 2222 3053 
L 1275 3053 
L 1275 0 
L 697 0 
L 697 3053 
L 147 3053 
L 147 3500 
L 697 3500 
L 697 3744 
Q 697 4328 969 4595 
Q 1241 4863 1831 4863 
L 2375 4863 
z
" transform="scale(0.015625)"/>
       <path id="DejaVuSans-53" d="M 3425 4513 
L 3425 3897 
Q 3066 4069 2747 4153 
Q 2428 4238 2131 4238 
Q 1616 4238 1336 4038 
Q 1056 3838 1056 3469 
Q 1056 3159 1242 3001 
Q 1428 2844 1947 2747 
L 2328 2669 
Q 3034 2534 3370 2195 
Q 3706 1856 3706 1288 
Q 3706 609 3251 259 
Q 2797 -91 1919 -91 
Q 1588 -91 1214 -16 
Q 841 59 441 206 
L 441 856 
Q 825 641 1194 531 
Q 1563 422 1919 422 
Q 2459 422 2753 634 
Q 3047 847 3047 1241 
Q 3047 1584 2836 1778 
Q 2625 1972 2144 2069 
L 1759 2144 
Q 1053 2284 737 2584 
Q 422 2884 422 3419 
Q 422 4038 858 4394 
Q 1294 4750 2059 4750 
Q 2388 4750 2728 4690 
Q 3069 4631 3425 4513 
z
" transform="scale(0.015625)"/>
       <path id="DejaVuSans-29" d="M 513 4856 
L 1013 4856 
Q 1481 4119 1714 3412 
Q 1947 2706 1947 2009 
Q 1947 1309 1714 600 
Q 1481 -109 1013 -844 
L 513 -844 
Q 928 -128 1133 580 
Q 1338 1288 1338 2009 
Q 1338 2731 1133 3434 
Q 928 4138 513 4856 
z
" transform="scale(0.015625)"/>
      </defs>
      <use xlink:href="#DejaVuSans-4d"/>
      <use xlink:href="#DejaVuSans-41" x="86.279297"/>
      <use xlink:href="#DejaVuSans-52" x="154.6875"/>
      <use xlink:href="#DejaVuSans-4c" x="224.169922"/>
      <use xlink:href="#DejaVuSans-49" x="279.882812"/>
      <use xlink:href="#DejaVuSans-4e" x="309.375"/>
      <use xlink:href="#DejaVuSans-2d" x="384.179688"/>
      <use xlink:href="#DejaVuSans-54" x="411.138672"/>
      <use xlink:href="#DejaVuSans-77" x="455.722656"/>
      <use xlink:href="#DejaVuSans-69" x="537.509766"/>
      <use xlink:href="#DejaVuSans-6e" x="565.292969"/>
      <use xlink:href="#DejaVuSans-20" x="628.671875"/>
      <use xlink:href="#DejaVuSans-4d" x="660.458984"/>
      <use xlink:href="#DejaVuSans-41" x="746.738281"/>
      <use xlink:href="#DejaVuSans-50" x="815.146484"/>
      <use xlink:href="#DejaVuSans-50" x="875.449219"/>
      <use xlink:href="#DejaVuSans-4f" x="935.751953"/>
      <use xlink:href="#DejaVuSans-20" x="1014.462891"/>
      <use xlink:href="#DejaVuSans-28" x="1046.25"/>
      <use xlink:href="#DejaVuSans-4d" x="1085.263672"/>
      <use xlink:href="#DejaVuSans-65" x="1171.542969"/>
      <use xlink:href="#DejaVuSans-61" x="1233.066406"/>
      <use xlink:href="#DejaVuSans-6e" x="1294.345703"/>
      <use xlink:href="#DejaVuSans-20" x="1357.724609"/>
      <use xlink:href="#DejaVuSans-6f" x="1389.511719"/>
      <use xlink:href="#DejaVuSans-66" x="1450.693359"/>
      <use xlink:href="#DejaVuSans-20" x="1485.898438"/>
      <use xlink:href="#DejaVuSans-35" x="1517.685547"/>
      <use xlink:href="#DejaVuSans-20" x="1581.308594"/>
      <use xlink:href="#DejaVuSans-53" x="1613.095703"/>
      <use xlink:href="#DejaVuSans-65" x="1676.572266"/>
      <use xlink:href="#DejaVuSans-65" x="1738.095703"/>
      <use xlink:href="#DejaVuSans-64" x="1799.619141"/>
      <use xlink:href="#DejaVuSans-73" x="1863.095703"/>
      <use xlink:href="#DejaVuSans-29" x="1915.195312"/>
     </g>
    </g>
    <g id="patch_8">
     <path d="M 308.241406 191.625859 
L 325.241406 191.625859 
L 325.241406 185.675859 
L 308.241406 185.675859 
z
" style="fill: #0000ff; fill-opacity: 0.2; stroke: #0000ff; stroke-opacity: 0.2; stroke-linejoin: miter"/>
    </g>
    <g id="text_16">
     <!-- ±1 Std Dev (95% CI) -->
     <g transform="translate(332.041406 191.625859) scale(0.085 -0.085)">
      <defs>
       <path id="DejaVuSans-b1" d="M 2944 4013 
L 2944 2803 
L 4684 2803 
L 4684 2272 
L 2944 2272 
L 2944 1063 
L 2419 1063 
L 2419 2272 
L 678 2272 
L 678 2803 
L 2419 2803 
L 2419 4013 
L 2944 4013 
z
M 678 531 
L 4684 531 
L 4684 0 
L 678 0 
L 678 531 
z
" transform="scale(0.015625)"/>
       <path id="DejaVuSans-74" d="M 1172 4494 
L 1172 3500 
L 2356 3500 
L 2356 3053 
L 1172 3053 
L 1172 1153 
Q 1172 725 1289 603 
Q 1406 481 1766 481 
L 2356 481 
L 2356 0 
L 1766 0 
Q 1100 0 847 248 
Q 594 497 594 1153 
L 594 3053 
L 172 3053 
L 172 3500 
L 594 3500 
L 594 4494 
L 1172 4494 
z
" transform="scale(0.015625)"/>
       <path id="DejaVuSans-44" d="M 1259 4147 
L 1259 519 
L 2022 519 
Q 2988 519 3436 956 
Q 3884 1394 3884 2338 
Q 3884 3275 3436 3711 
Q 2988 4147 2022 4147 
L 1259 4147 
z
M 628 4666 
L 1925 4666 
Q 3281 4666 3915 4102 
Q 4550 3538 4550 2338 
Q 4550 1131 3912 565 
Q 3275 0 1925 0 
L 628 0 
L 628 4666 
z
" transform="scale(0.015625)"/>
       <path id="DejaVuSans-76" d="M 191 3500 
L 800 3500 
L 1894 563 
L 2988 3500 
L 3597 3500 
L 2284 0 
L 1503 0 
L 191 3500 
z
" transform="scale(0.015625)"/>
       <path id="DejaVuSans-39" d="M 703 97 
L 703 672 
Q 941 559 1184 500 
Q 1428 441 1663 441 
Q 2288 441 2617 861 
Q 2947 1281 2994 2138 
Q 2813 1869 2534 1725 
Q 2256 1581 1919 1581 
Q 1219 1581 811 2004 
Q 403 2428 403 3163 
Q 403 3881 828 4315 
Q 1253 4750 1959 4750 
Q 2769 4750 3195 4129 
Q 3622 3509 3622 2328 
Q 3622 1225 3098 567 
Q 2575 -91 1691 -91 
Q 1453 -91 1209 -44 
Q 966 3 703 97 
z
M 1959 2075 
Q 2384 2075 2632 2365 
Q 2881 2656 2881 3163 
Q 2881 3666 2632 3958 
Q 2384 4250 1959 4250 
Q 1534 4250 1286 3958 
Q 1038 3666 1038 3163 
Q 1038 2656 1286 2365 
Q 1534 2075 1959 2075 
z
" transform="scale(0.015625)"/>
       <path id="DejaVuSans-25" d="M 4653 2053 
Q 4381 2053 4226 1822 
Q 4072 1591 4072 1178 
Q 4072 772 4226 539 
Q 4381 306 4653 306 
Q 4919 306 5073 539 
Q 5228 772 5228 1178 
Q 5228 1588 5073 1820 
Q 4919 2053 4653 2053 
z
M 4653 2450 
Q 5147 2450 5437 2106 
Q 5728 1763 5728 1178 
Q 5728 594 5436 251 
Q 5144 -91 4653 -91 
Q 4153 -91 3862 251 
Q 3572 594 3572 1178 
Q 3572 1766 3864 2108 
Q 4156 2450 4653 2450 
z
M 1428 4353 
Q 1159 4353 1004 4120 
Q 850 3888 850 3481 
Q 850 3069 1003 2837 
Q 1156 2606 1428 2606 
Q 1700 2606 1854 2837 
Q 2009 3069 2009 3481 
Q 2009 3884 1853 4118 
Q 1697 4353 1428 4353 
z
M 4250 4750 
L 4750 4750 
L 1831 -91 
L 1331 -91 
L 4250 4750 
z
M 1428 4750 
Q 1922 4750 2215 4408 
Q 2509 4066 2509 3481 
Q 2509 2891 2217 2550 
Q 1925 2209 1428 2209 
Q 931 2209 642 2551 
Q 353 2894 353 3481 
Q 353 4063 643 4406 
Q 934 4750 1428 4750 
z
" transform="scale(0.015625)"/>
       <path id="DejaVuSans-43" d="M 4122 4306 
L 4122 3641 
Q 3803 3938 3442 4084 
Q 3081 4231 2675 4231 
Q 1875 4231 1450 3742 
Q 1025 3253 1025 2328 
Q 1025 1406 1450 917 
Q 1875 428 2675 428 
Q 3081 428 3442 575 
Q 3803 722 4122 1019 
L 4122 359 
Q 3791 134 3420 21 
Q 3050 -91 2638 -91 
Q 1578 -91 968 557 
Q 359 1206 359 2328 
Q 359 3453 968 4101 
Q 1578 4750 2638 4750 
Q 3056 4750 3426 4639 
Q 3797 4528 4122 4306 
z
" transform="scale(0.015625)"/>
      </defs>
      <use xlink:href="#DejaVuSans-b1"/>
      <use xlink:href="#DejaVuSans-31" x="83.789062"/>
      <use xlink:href="#DejaVuSans-20" x="147.412109"/>
      <use xlink:href="#DejaVuSans-53" x="179.199219"/>
      <use xlink:href="#DejaVuSans-74" x="242.675781"/>
      <use xlink:href="#DejaVuSans-64" x="281.884766"/>
      <use xlink:href="#DejaVuSans-20" x="345.361328"/>
      <use xlink:href="#DejaVuSans-44" x="377.148438"/>
      <use xlink:href="#DejaVuSans-65" x="454.150391"/>
      <use xlink:href="#DejaVuSans-76" x="515.673828"/>
      <use xlink:href="#DejaVuSans-20" x="574.853516"/>
      <use xlink:href="#DejaVuSans-28" x="606.640625"/>
      <use xlink:href="#DejaVuSans-39" x="645.654297"/>
      <use xlink:href="#DejaVuSans-35" x="709.277344"/>
      <use xlink:href="#DejaVuSans-25" x="772.900391"/>
      <use xlink:href="#DejaVuSans-20" x="867.919922"/>
      <use xlink:href="#DejaVuSans-43" x="899.707031"/>
      <use xlink:href="#DejaVuSans-49" x="969.53125"/>
      <use xlink:href="#DejaVuSans-29" x="999.023438"/>
     </g>
    </g>
    <g id="line2d_26">
     <path d="M 308.241406 201.127266 
L 316.741406 201.127266 
L 325.241406 201.127266 
" style="fill: none; stroke-dasharray: 5.55,2.4; stroke-dashoffset: 0; stroke: #ff0000; stroke-width: 1.5"/>
    </g>
    <g id="text_17">
     <!-- Stage 2 Transition (Ep 300) -->
     <g transform="translate(332.041406 204.102266) scale(0.085 -0.085)">
      <use xlink:href="#DejaVuSans-53"/>
      <use xlink:href="#DejaVuSans-74" x="63.476562"/>
      <use xlink:href="#DejaVuSans-61" x="102.685547"/>
      <use xlink:href="#DejaVuSans-67" x="163.964844"/>
      <use xlink:href="#DejaVuSans-65" x="227.441406"/>
      <use xlink:href="#DejaVuSans-20" x="288.964844"/>
      <use xlink:href="#DejaVuSans-32" x="320.751953"/>
      <use xlink:href="#DejaVuSans-20" x="384.375"/>
      <use xlink:href="#DejaVuSans-54" x="416.162109"/>
      <use xlink:href="#DejaVuSans-72" x="462.496094"/>
      <use xlink:href="#DejaVuSans-61" x="503.609375"/>
      <use xlink:href="#DejaVuSans-6e" x="564.888672"/>
      <use xlink:href="#DejaVuSans-73" x="628.267578"/>
      <use xlink:href="#DejaVuSans-69" x="680.367188"/>
      <use xlink:href="#DejaVuSans-74" x="708.150391"/>
      <use xlink:href="#DejaVuSans-69" x="747.359375"/>
      <use xlink:href="#DejaVuSans-6f" x="775.142578"/>
      <use xlink:href="#DejaVuSans-6e" x="836.324219"/>
      <use xlink:href="#DejaVuSans-20" x="899.703125"/>
      <use xlink:href="#DejaVuSans-28" x="931.490234"/>
      <use xlink:href="#DejaVuSans-45" x="970.503906"/>
      <use xlink:href="#DejaVuSans-70" x="1033.6875"/>
      <use xlink:href="#DejaVuSans-20" x="1097.164062"/>
      <use xlink:href="#DejaVuSans-33" x="1128.951172"/>
      <use xlink:href="#DejaVuSans-30" x="1192.574219"/>
      <use xlink:href="#DejaVuSans-30" x="1256.197266"/>
      <use xlink:href="#DejaVuSans-29" x="1319.820312"/>
     </g>
    </g>
   </g>
  </g>
 </g>
 <defs>
  <clipPath id="p4bf5377e00">
   <rect x="48.29" y="23.88" width="457.51" height="189.64"/>
  </clipPath>
 </defs>
</svg>
